M48
; DRILL file {KiCad 5.1.5} date Mon Mar 16 23:18:50 2020
; FORMAT={-:-/ absolute / inch / decimal}
; #@! TF.CreationDate,2020-03-16T23:18:50+01:00
; #@! TF.GenerationSoftware,Kicad,Pcbnew,5.1.5
; #@! TF.FileFunction,Plated,1,6,PTH
FMAT,2
INCH
T1C0.0079
T2C0.0157
T3C0.0236
T4C0.0256
T5C0.0276
T6C0.0315
T7C0.0315
T8C0.0354
T9C0.0394
T10C0.0472
T11C0.0512
T12C0.0551
T13C0.1220
%
G90
G05
T1
X2.835Y-2.62
X2.835Y-2.855
X2.835Y-3.0925
X2.835Y-3.3275
X2.835Y-3.565
X2.8375Y-2.1575
X2.8375Y-2.385
X2.8375Y-3.8
X2.8875Y-2.11
X2.8875Y-3.85
X2.9Y-5.27
X2.965Y-5.055
X2.965Y-5.09
X2.965Y-5.125
X2.965Y-5.575
X2.97Y-2.22
X2.9799Y-3.4449
X2.98Y-3.595
X2.99Y-2.36
X3.0Y-5.055
X3.0Y-5.09
X3.0Y-5.125
X3.005Y-2.735
X3.01Y-2.535
X3.015Y-3.1328
X3.015Y-3.1075
X3.03Y-5.27
X3.04Y-2.82
X3.04Y-3.16
X3.065Y-5.35
X3.065Y-5.385
X3.065Y-5.42
X3.065Y-5.455
X3.065Y-5.49
X3.085Y-2.72
X3.11Y-2.915
X3.1125Y-3.85
X3.115Y-2.11
X3.115Y-2.33
X3.115Y-2.82
X3.115Y-3.435
X3.125Y-3.145
X3.14Y-2.55
X3.15Y-5.35
X3.15Y-5.385
X3.15Y-5.42
X3.15Y-5.455
X3.15Y-5.49
X3.155Y-2.72
X3.165Y-3.1527
X3.18Y-3.105
X3.185Y-3.41
X3.185Y-3.7
X3.185Y-5.35
X3.185Y-5.49
X3.2Y-3.025
X3.22Y-5.49
X3.23Y-2.195
X3.285Y-4.02
X3.31Y-2.34
X3.315Y-2.24
X3.315Y-2.73
X3.32Y-3.51
X3.32Y-3.735
X3.33Y-2.555
X3.335Y-3.045
X3.35Y-2.11
X3.35Y-3.85
X3.365Y-5.37
X3.365Y-5.42
X3.365Y-5.47
X3.37Y-3.36
X3.37Y-2.99
X3.375Y-2.86
X3.385Y-2.915
X3.39Y-2.39
X3.39Y-2.78
X3.39Y-3.21
X3.39Y-3.26
X3.39Y-3.735
X3.395Y-2.68
X3.4Y-2.875
X3.425Y-3.02
X3.435Y-3.635
X3.44Y-2.24
X3.44Y-2.47
X3.44Y-3.1527
X3.44Y-3.36
X3.44Y-3.51
X3.46Y-3.26
X3.485Y-2.755
X3.505Y-2.24
X3.505Y-2.63
X3.505Y-2.925
X3.51Y-2.39
X3.51Y-3.1527
X3.525Y-2.855
X3.535Y-2.57
X3.535Y-2.89
X3.575Y-2.5
X3.585Y-2.34
X3.585Y-2.78
X3.585Y-3.21
X3.585Y-3.85
X3.5875Y-2.1079
X3.605Y-2.27
X3.605Y-3.2425
X3.605Y-3.54
X3.615Y-2.645
X3.649Y-3.4689
X3.65Y-3.3475
X3.655Y-3.515
X3.66Y-3.4
X3.66Y-3.685
X3.66Y-3.735
X3.675Y-3.035
X3.695Y-2.39
X3.695Y-3.44
X3.73Y-3.735
X3.745Y-5.645
X3.745Y-5.775
X3.75Y-2.7098
X3.76Y-3.515
X3.765Y-3.46
X3.77Y-2.395
X3.7725Y-3.365
X3.775Y-2.59
X3.7775Y-3.685
X3.78Y-3.635
X3.785Y-3.42
X3.805Y-3.255
X3.8225Y-2.1079
X3.8225Y-3.85
X3.825Y-5.315
X3.825Y-5.355
X3.825Y-5.49
X3.825Y-5.53
X3.84Y-2.635
X3.84Y-3.54
X3.855Y-2.975
X3.86Y-3.735
X3.865Y-5.315
X3.865Y-5.53
X3.8692Y-2.49
X3.87Y-2.875
X3.8704Y-3.3637
X3.88Y-3.63
X3.9025Y-3.25
X3.905Y-5.315
X3.905Y-5.53
X3.91Y-3.085
X3.945Y-2.365
X3.945Y-2.59
X3.945Y-3.2
X3.945Y-3.65
X3.945Y-5.315
X3.945Y-5.53
X3.95Y-2.925
X3.96Y-3.44
X3.97Y-2.235
X3.97Y-3.1275
X3.975Y-3.53
X3.985Y-3.73
X3.985Y-5.315
X3.985Y-5.355
X3.985Y-5.49
X3.985Y-5.53
X3.995Y-2.49
X3.995Y-2.875
X3.995Y-3.2525
X4.005Y-2.77
X4.01Y-2.69
X4.015Y-2.365
X4.015Y-2.58
X4.015Y-3.2
X4.025Y-2.985
X4.025Y-3.62
X4.05Y-3.355
X4.0575Y-2.1079
X4.0575Y-3.85
X4.06Y-2.265
X4.06Y-2.875
X4.06Y-5.71
X4.065Y-2.49
X4.065Y-3.1
X4.065Y-3.15
X4.075Y-3.565
X4.095Y-3.3902
X4.12Y-5.38
X4.12Y-5.42
X4.12Y-5.46
X4.145Y-3.56
X4.145Y-3.61
X4.17Y-2.71
X4.18Y-3.43
X4.185Y-5.42
X4.2Y-2.315
X4.24Y-3.62
X4.24Y-3.775
X4.245Y-3.385
X4.25Y-5.38
X4.25Y-5.42
X4.25Y-5.46
X4.28Y-2.365
X4.295Y-2.1079
X4.295Y-3.85
X4.305Y-3.765
X4.32Y-3.615
X4.33Y-2.265
X4.355Y-2.365
X4.37Y-3.48
X4.395Y-3.54
X4.4Y-2.265
X4.4Y-5.26
X4.4Y-5.3
X4.4Y-5.34
X4.4Y-5.53
X4.4Y-5.57
X4.4Y-5.61
X4.43Y-4.29
X4.435Y-2.385
X4.44Y-5.26
X4.44Y-5.3
X4.44Y-5.34
X4.44Y-5.53
X4.44Y-5.57
X4.44Y-5.61
X4.445Y-4.97
X4.48Y-2.315
X4.48Y-4.51
X4.4875Y-4.2828
X4.4875Y-4.3075
X4.4875Y-4.3403
X4.4875Y-4.365
X4.49Y-4.39
X4.52Y-3.85
X4.5225Y-2.1075
X4.525Y-4.465
X4.5474Y-4.1425
X4.5525Y-4.2175
X4.565Y-2.62
X4.565Y-4.19
X4.5675Y-2.1575
X4.5675Y-2.8559
X4.5675Y-3.0921
X4.5675Y-3.5646
X4.57Y-2.385
X4.57Y-3.3775
X4.57Y-3.8
X4.6Y-4.11
X4.61Y-4.465
X4.625Y-4.235
X4.63Y-4.115
X4.635Y-3.945
X4.6425Y-3.395
X4.645Y-2.58
X4.645Y-3.875
X4.645Y-4.075
X4.6475Y-2.6775
X4.65Y-2.915
X4.65Y-3.0075
X4.65Y-3.245
X4.65Y-4.51
X4.68Y-3.775
X4.705Y-4.185
X4.7053Y-5.32
X4.7075Y-3.61
X4.715Y-3.84
X4.715Y-5.65
X4.7325Y-4.37
X4.735Y-2.915
X4.735Y-4.29
X4.735Y-4.33
X4.735Y-5.32
X4.735Y-5.55
X4.7375Y-4.4075
X4.74Y-3.2275
X4.74Y-5.19
X4.745Y-3.945
X4.755Y-2.535
X4.76Y-4.235
X4.77Y-3.395
X4.78Y-4.18
X4.7827Y-3.61
X4.785Y-4.14
X4.785Y-5.4
X4.79Y-3.1925
X4.8Y-2.58
X4.8Y-2.91
X4.825Y-4.4
X4.825Y-5.4
X4.83Y-3.74
X4.835Y-3.395
X4.835Y-4.725
X4.835Y-4.8527
X4.835Y-4.895
X4.85Y-2.915
X4.85Y-3.245
X4.8525Y-2.58
X4.865Y-5.2425
X4.865Y-5.4
X4.865Y-5.5475
X4.865Y-5.59
X4.875Y-3.045
X4.88Y-4.755
X4.89Y-3.575
X4.895Y-4.915
X4.9Y-4.6
X4.91Y-5.01
X4.915Y-5.55
X4.93Y-4.88
X4.93Y-2.58
X4.935Y-2.915
X4.94Y-5.34
X4.97Y-3.045
X5.0Y-2.58
X5.0Y-2.91
X5.0Y-3.24
X5.005Y-3.37
X5.005Y-3.62
X5.005Y-3.7825
X5.03Y-5.01
X5.045Y-4.65
X5.05Y-4.54
X5.07Y-3.2425
X5.075Y-2.915
X5.075Y-3.6125
X5.08Y-4.65
X5.095Y-2.705
X5.095Y-3.8675
X5.1Y-3.56
X5.1Y-4.265
X5.12Y-3.652
X5.12Y-3.815
X5.125Y-3.01
X5.14Y-3.87
X5.145Y-4.26
X5.145Y-5.01
X5.15Y-3.24
X5.155Y-2.915
X5.158Y-3.6502
X5.17Y-3.58
X5.1726Y-3.8702
X5.18Y-4.115
X5.18Y-4.89
X5.1891Y-5.0081
X5.19Y-3.985
X5.19Y-4.415
X5.21Y-3.395
X5.21Y-4.115
X5.22Y-2.91
X5.22Y-3.2425
X5.221Y-3.755
X5.2275Y-3.095
X5.23Y-4.725
X5.245Y-4.885
X5.245Y-5.01
X5.25Y-4.8
X5.265Y-3.35
X5.265Y-4.265
X5.27Y-2.915
X5.2725Y-3.245
X5.285Y-4.665
X5.295Y-5.005
X5.325Y-3.585
X5.34Y-4.885
X5.36Y-2.915
X5.385Y-4.88
X5.395Y-4.64
X5.395Y-4.71
X5.395Y-4.85
X5.405Y-5.105
X5.415Y-3.245
X5.42Y-5.01
X5.425Y-2.915
X5.46Y-5.21
X5.46Y-5.25
X5.46Y-5.29
X5.46Y-5.33
X5.46Y-5.37
X5.46Y-5.41
X5.46Y-5.45
X5.475Y-3.44
X5.5Y-3.595
X5.5Y-4.255
X5.5Y-5.21
X5.5Y-5.25
X5.5Y-5.29
X5.5Y-5.33
X5.5Y-5.37
X5.5Y-5.41
X5.5Y-5.45
X5.515Y-3.855
X5.516Y-3.904
X5.518Y-4.592
X5.52Y-4.855
X5.53Y-3.77
X5.54Y-5.015
X5.57Y-4.445
X5.57Y-4.685
X5.575Y-4.98
X5.595Y-5.07
X5.595Y-5.2
X5.6Y-5.25
X5.61Y-4.265
X5.69Y-3.43
X5.69Y-3.6502
X5.69Y-4.265
X5.695Y-3.8875
X5.695Y-5.07
X5.725Y-4.0425
X5.733Y-4.807
X5.7452Y-3.81
X5.7551Y-4.288
X5.76Y-4.355
X5.765Y-4.33
X5.765Y-4.525
X5.765Y-4.7227
X5.765Y-4.97
X5.8Y-5.07
X5.855Y-4.625
X5.855Y-4.665
X5.86Y-3.78
X5.86Y-3.805
X5.86Y-3.8325
X5.8624Y-4.0141
X5.8625Y-4.0675
X5.865Y-4.505
X5.8675Y-4.7175
X5.8699Y-4.9389
X5.87Y-4.685
X5.875Y-5.1
X5.8835Y-4.896
X5.885Y-4.26
X5.895Y-4.8
X5.9Y-5.1
X5.915Y-3.6125
X5.92Y-4.46
X5.925Y-4.04
X5.925Y-4.33
X5.925Y-4.36
X5.925Y-5.1
X5.93Y-3.575
X5.93Y-3.855
X5.935Y-3.705
X5.935Y-3.935
X5.935Y-4.09
X5.935Y-4.26
X5.945Y-4.175
X5.95Y-4.46
X5.95Y-5.1
X5.96Y-4.5
X5.965Y-3.995
X5.9747Y-5.1
X5.98Y-4.8
X5.985Y-4.495
X6.005Y-4.52
X6.005Y-5.095
X6.02Y-4.495
X6.02Y-5.005
X6.0225Y-5.1125
X6.0225Y-4.155
X6.035Y-2.81
X6.035Y-3.035
X6.0377Y-4.44
X6.0425Y-4.1725
X6.0426Y-5.0982
X6.055Y-3.995
X6.06Y-4.155
X6.06Y-4.495
X6.07Y-3.72
X6.0723Y-4.45
X6.075Y-4.68
X6.075Y-4.72
X6.08Y-4.175
X6.0825Y-5.1087
X6.085Y-3.855
X6.085Y-4.09
X6.085Y-4.265
X6.09Y-3.575
X6.095Y-3.78
X6.095Y-3.805
X6.095Y-3.83
X6.095Y-5.13
X6.1021Y-4.164
X6.105Y-4.495
X6.1073Y-4.44
X6.1177Y-5.1123
X6.1197Y-5.147
X6.125Y-3.57
X6.125Y-3.635
X6.125Y-4.175
X6.135Y-4.44
X6.14Y-4.26
X6.165Y-4.39
X6.165Y-4.47
X6.1652Y-4.9702
X6.1757Y-4.8257
X6.18Y-5.095
X6.185Y-4.255
X6.19Y-4.1525
X6.19Y-4.47
X6.195Y-4.645
X6.2Y-4.442
X6.215Y-4.1525
X6.225Y-5.01
X6.23Y-4.45
X6.2378Y-4.6905
X6.2394Y-4.175
X6.24Y-4.265
X6.24Y-4.915
X6.2403Y-4.666
X6.25Y-4.56
X6.253Y-4.7238
X6.26Y-4.25
X6.265Y-4.695
X6.27Y-4.1525
X6.28Y-4.76
X6.28Y-4.785
X6.2947Y-4.1525
X6.3107Y-5.0098
X6.315Y-4.275
X6.315Y-4.305
X6.315Y-4.5323
X6.315Y-4.6277
X6.325Y-3.765
X6.325Y-4.82
X6.325Y-4.89
X6.3273Y-3.56
X6.3275Y-3.8675
X6.33Y-4.135
X6.3325Y-3.8125
X6.3353Y-5.011
X6.34Y-3.61
X6.3425Y-3.6575
X6.3425Y-3.8975
X6.345Y-4.605
X6.3453Y-3.7866
X6.355Y-3.585
X6.355Y-5.25
X6.355Y-5.29
X6.355Y-5.33
X6.355Y-5.37
X6.355Y-5.41
X6.355Y-5.45
X6.36Y-3.535
X6.36Y-4.02
X6.36Y-5.01
X6.365Y-3.8725
X6.365Y-4.26
X6.375Y-4.0415
X6.3773Y-4.095
X6.385Y-3.51
X6.3877Y-4.735
X6.395Y-4.95
X6.395Y-5.01
X6.395Y-5.25
X6.395Y-5.29
X6.395Y-5.33
X6.395Y-5.37
X6.395Y-5.41
X6.395Y-5.45
X6.42Y-4.83
X6.44Y-4.16
X6.45Y-3.865
X6.45Y-4.83
X6.46Y-5.015
X6.48Y-4.83
X6.5Y-4.045
X6.505Y-4.165
X6.505Y-5.1
X6.5135Y-4.8308
X6.5223Y-4.6073
X6.545Y-4.83
X6.5523Y-4.7123
X6.555Y-5.015
X6.555Y-5.22
X6.575Y-5.0
X6.6Y-4.5
X6.6023Y-4.745
X6.6025Y-3.68
X6.6055Y-4.4503
X6.6099Y-4.6841
X6.61Y-4.29
X6.625Y-3.505
X6.625Y-3.535
X6.625Y-3.585
X6.63Y-3.765
X6.63Y-3.84
X6.63Y-5.39
X6.695Y-4.915
X6.7025Y-4.5323
X6.705Y-4.4875
X6.815Y-4.31
X6.815Y-4.48
X6.825Y-4.455
X6.83Y-4.245
X6.85Y-3.645
X6.85Y-3.805
X6.8725Y-4.0225
X6.9Y-4.155
X6.9Y-4.215
X6.9Y-4.275
X6.9Y-4.3973
X6.9325Y-4.0225
X6.995Y-4.255
X7.005Y-4.515
X7.0075Y-3.6375
X7.03Y-4.38
X7.04Y-4.42
X7.04Y-4.56
X7.055Y-2.96
X7.09Y-4.4
X7.105Y-4.0
X7.105Y-4.08
X7.11Y-4.37
X7.125Y-4.39
X7.145Y-4.115
X7.1497Y-4.375
X7.16Y-4.445
X7.17Y-4.2
X7.185Y-3.5
X7.185Y-3.55
X7.19Y-3.85
X7.205Y-4.0
X7.215Y-4.175
X7.215Y-4.335
X7.215Y-3.075
X7.225Y-4.445
X7.2346Y-4.2046
X7.245Y-2.98
X7.2554Y-4.2254
X7.39Y-4.185
X7.39Y-4.335
X7.39Y-4.435
X7.39Y-4.085
X7.435Y-3.55
X7.44Y-3.5
X7.45Y-3.8
X7.45Y-3.85
X7.475Y-4.135
X7.475Y-4.385
X7.675Y-3.57
X7.69Y-3.815
X7.735Y-4.135
X7.735Y-4.385
X7.83Y-3.545
X7.83Y-3.62
X7.83Y-3.695
X7.975Y-3.84
X8.065Y-3.6
X8.095Y-3.345
X8.0975Y-3.19
X8.0975Y-3.215
X8.0975Y-3.2425
X8.0975Y-3.27
X8.0975Y-3.295
X8.115Y-3.6
X8.245Y-3.345
X8.3Y-3.54
X8.345Y-5.56
X8.345Y-5.61
X8.345Y-5.66
X8.345Y-5.71
X8.345Y-5.76
X8.51Y-5.56
X8.51Y-5.61
X8.51Y-5.66
X8.51Y-5.71
X8.51Y-5.76
X3.0433Y-3.5144
X3.0433Y-3.5656
X3.0867Y-3.5144
X3.0867Y-3.5656
X3.0433Y-3.6594
X3.0433Y-3.7106
X3.0867Y-3.6594
X3.0867Y-3.7106
X7.0587Y-4.2237
X7.0587Y-4.265
X7.0587Y-4.3063
X7.1Y-4.2237
X7.1Y-4.265
X7.1Y-4.3063
X7.1413Y-4.2237
X7.1413Y-4.265
X7.1413Y-4.3063
X3.0433Y-3.3694
X3.0433Y-3.4206
X3.0867Y-3.3694
X3.0867Y-3.4206
T2
X3.055Y-5.64
X3.075Y-4.55
X3.075Y-4.65
X3.075Y-4.75
X3.1Y-5.23
X3.1Y-5.28
X3.15Y-5.23
X3.15Y-5.28
X3.17Y-4.55
X3.17Y-4.65
X3.17Y-4.75
X3.205Y-5.78
X3.26Y-5.64
X3.26Y-5.78
X3.27Y-4.55
X3.27Y-4.65
X3.27Y-4.75
X3.31Y-5.64
X3.31Y-5.78
X3.375Y-5.23
X3.375Y-5.28
X3.43Y-4.955
X3.43Y-5.005
X3.43Y-5.055
X3.43Y-5.105
X3.43Y-5.155
X3.43Y-5.23
X3.43Y-5.28
X3.48Y-4.955
X3.48Y-5.005
X3.48Y-5.055
X3.48Y-5.105
X3.48Y-5.155
X3.48Y-5.23
X3.48Y-5.28
X3.48Y-5.365
X3.48Y-5.415
X3.53Y-4.955
X3.53Y-5.005
X3.53Y-5.055
X3.53Y-5.105
X3.53Y-5.155
X3.53Y-5.23
X3.53Y-5.28
X3.53Y-5.365
X3.53Y-5.415
X3.61Y-5.365
X3.61Y-5.415
X3.61Y-5.465
X3.615Y-4.955
X3.615Y-5.005
X3.615Y-5.055
X3.615Y-5.105
X3.615Y-5.155
X3.66Y-5.365
X3.66Y-5.415
X3.66Y-5.465
X3.665Y-4.955
X3.665Y-5.005
X3.665Y-5.055
X3.665Y-5.105
X3.665Y-5.155
X3.715Y-4.955
X3.715Y-5.005
X3.715Y-5.055
X3.715Y-5.105
X3.715Y-5.155
X3.875Y-4.55
X3.875Y-4.65
X3.875Y-4.75
X3.975Y-4.545
X3.975Y-4.65
X3.975Y-4.75
X4.075Y-4.545
X4.075Y-4.65
X4.075Y-4.75
X4.115Y-5.625
X4.23Y-4.955
X4.23Y-5.005
X4.23Y-5.055
X4.23Y-5.105
X4.23Y-5.155
X4.28Y-4.955
X4.28Y-5.005
X4.28Y-5.055
X4.28Y-5.105
X4.28Y-5.155
X4.33Y-4.955
X4.33Y-5.005
X4.33Y-5.055
X4.33Y-5.105
X4.33Y-5.155
X4.79Y-2.155
X5.28Y-2.425
X5.33Y-2.68
X5.535Y-2.68
X5.715Y-5.715
X5.715Y-5.775
X5.735Y-2.655
X5.735Y-3.005
X5.765Y-5.775
X5.815Y-5.775
X5.934Y-2.812
X6.18Y-2.838
X6.21Y-2.235
X6.265Y-3.015
X6.41Y-2.23
X6.51Y-2.3525
X6.51Y-2.435
X6.575Y-5.77
X6.585Y-3.0
X6.625Y-5.77
X6.675Y-5.77
X6.785Y-2.9725
X6.805Y-2.43
X6.885Y-2.805
X6.885Y-3.015
X6.925Y-3.21
X7.035Y-3.25
X7.04Y-2.11
X7.04Y-2.395
X7.145Y-2.74
X7.155Y-2.955
X7.325Y-4.52
X7.33Y-2.3925
X7.45Y-2.61
X7.495Y-2.955
X7.61Y-2.96
X8.15Y-4.685
X8.15Y-4.735
X8.15Y-4.785
X8.4Y-4.72
X8.57Y-5.66
T3
X5.16Y-5.575
X5.26Y-5.575
X5.36Y-5.575
X5.99Y-5.575
X6.09Y-5.575
X6.19Y-5.575
T4
X5.585Y-5.345
X5.585Y-5.395
X5.635Y-5.345
X5.635Y-5.395
X5.685Y-5.345
X5.685Y-5.395
X5.735Y-5.345
X5.735Y-5.395
X5.785Y-5.345
X5.785Y-5.395
T5
X3.51Y-4.11
X3.56Y-4.06
X3.56Y-4.16
X3.61Y-4.11
X2.9425Y-2.405
X3.0425Y-2.405
X3.1425Y-2.405
X3.2425Y-2.405
T6
X4.2423Y-2.6
X4.2663Y-2.6587
X4.325Y-2.5173
X4.325Y-2.6827
X4.3837Y-2.5413
X4.4077Y-2.6
T7
X8.6402Y-2.387
X8.6402Y-2.487
X8.6402Y-2.587
X8.6402Y-2.687
X8.6402Y-2.787
X8.6402Y-2.887
X8.6402Y-2.987
X8.6402Y-3.087
X8.6402Y-3.187
X8.6402Y-3.287
X8.6402Y-3.387
X8.6402Y-3.487
X8.6402Y-3.587
X8.6402Y-3.687
X8.6402Y-3.787
X8.6402Y-3.887
X8.6402Y-3.987
X8.6402Y-4.087
X8.6402Y-4.187
X8.6402Y-4.287
X8.6402Y-4.387
X8.6402Y-4.487
X8.6402Y-4.587
X8.6402Y-4.687
X8.6402Y-4.787
X8.6402Y-4.887
X8.6402Y-4.987
X8.6402Y-5.087
X8.6402Y-5.187
X8.6402Y-5.287
X8.6402Y-5.387
X8.6402Y-5.487
X8.8402Y-2.387
X8.8402Y-2.487
X8.8402Y-2.587
X8.8402Y-2.687
X8.8402Y-2.787
X8.8402Y-2.887
X8.8402Y-2.987
X8.8402Y-3.087
X8.8402Y-3.187
X8.8402Y-3.287
X8.8402Y-3.387
X8.8402Y-3.487
X8.8402Y-3.587
X8.8402Y-3.687
X8.8402Y-3.787
X8.8402Y-3.887
X8.8402Y-3.987
X8.8402Y-4.087
X8.8402Y-4.187
X8.8402Y-4.287
X8.8402Y-4.387
X8.8402Y-4.487
X8.8402Y-4.587
X8.8402Y-4.687
X8.8402Y-4.787
X8.8402Y-4.887
X8.8402Y-4.987
X8.8402Y-5.087
X8.8402Y-5.187
X8.8402Y-5.287
X8.8402Y-5.387
X8.8402Y-5.487
T8
X7.16Y-2.33
X7.73Y-2.33
T9
X6.515Y-5.285
X6.515Y-5.385
X4.515Y-4.655
X4.515Y-4.755
X4.515Y-4.855
X4.515Y-4.955
X4.515Y-5.055
X4.615Y-4.655
X4.615Y-4.755
X4.615Y-4.855
X4.615Y-4.955
X4.615Y-5.055
T10
X6.935Y-4.78
X6.935Y-5.18
X6.935Y-5.58
X7.735Y-5.08
X7.735Y-5.28
X7.735Y-5.58
T11
X8.0714Y-5.3031
X8.0714Y-5.6969
X8.2486Y-5.3031
X8.2486Y-5.6969
T12
X7.87Y-3.025
X8.07Y-3.025
X8.27Y-3.025
X8.47Y-3.025
X7.87Y-2.41
X8.07Y-2.41
X8.27Y-2.41
X8.47Y-2.41
X7.87Y-2.205
X8.07Y-2.205
X8.27Y-2.205
X8.47Y-2.205
X7.87Y-2.615
X8.07Y-2.615
X8.27Y-2.615
X8.47Y-2.615
X7.87Y-2.82
X8.07Y-2.82
X8.27Y-2.82
X8.47Y-2.82
T13
X8.9402Y-2.187
X8.9402Y-5.687
T0
M30
