G04 #@! TF.GenerationSoftware,KiCad,Pcbnew,5.1.5*
G04 #@! TF.CreationDate,2020-03-12T20:53:22+01:00*
G04 #@! TF.ProjectId,ETH1CDMM1,45544831-4344-44d4-9d31-2e6b69636164,rev?*
G04 #@! TF.SameCoordinates,Original*
G04 #@! TF.FileFunction,Profile,NP*
%FSLAX46Y46*%
G04 Gerber Fmt 4.6, Leading zero omitted, Abs format (unit mm)*
G04 Created by KiCad (PCBNEW 5.1.5) date 2020-03-12 20:53:22*
%MOMM*%
%LPD*%
G04 APERTURE LIST*
%ADD10C,0.050000*%
G04 APERTURE END LIST*
D10*
X186563000Y-143891000D02*
G75*
G02X186055000Y-143891000I-254000J0D01*
G01*
X186563000Y-139573000D02*
X186563000Y-143891000D01*
X186055000Y-139573000D02*
X186055000Y-143891000D01*
X186055000Y-139573000D02*
G75*
G02X186563000Y-139573000I254000J0D01*
G01*
X186055000Y-119253000D02*
G75*
G02X186563000Y-119253000I254000J0D01*
G01*
X186563000Y-123571000D02*
G75*
G02X186055000Y-123571000I-254000J0D01*
G01*
X186563000Y-119253000D02*
X186563000Y-123571000D01*
X186055000Y-119253000D02*
X186055000Y-123571000D01*
X87124199Y-102603264D02*
X86423500Y-101854000D01*
X88592763Y-101120133D02*
X87944851Y-100332048D01*
X89789000Y-100711000D02*
X89789000Y-99695000D01*
X88592763Y-101120133D02*
G75*
G02X89789000Y-100711000I1831236J-3400866D01*
G01*
X87944851Y-100332048D02*
G75*
G02X89789000Y-99695000I2479149J-4188952D01*
G01*
X91059001Y-100711001D02*
X91059000Y-99695000D01*
X94106999Y-103759000D02*
X95123000Y-103759000D01*
X94106999Y-105029001D02*
X95123000Y-105029000D01*
X91059000Y-109093000D02*
X91058999Y-108076999D01*
X89789001Y-109093000D02*
X89789000Y-108076999D01*
X89789400Y-109093000D02*
G75*
G02X86423500Y-101856950I634600J4696050D01*
G01*
X91059000Y-99695000D02*
G75*
G02X95123000Y-103759000I-635000J-4699000D01*
G01*
X95123000Y-105029000D02*
G75*
G02X91059000Y-109093000I-4699000J635000D01*
G01*
X89789000Y-108076999D02*
G75*
G02X87124199Y-102603264I637198J3695735D01*
G01*
X91059002Y-100711001D02*
G75*
G02X94107000Y-103759000I-635001J-3682998D01*
G01*
X94106999Y-105029001D02*
G75*
G02X91059000Y-108077000I-3682998J635000D01*
G01*
X230000000Y-52000000D02*
X228000000Y-50000000D01*
X228000000Y-150000000D02*
X230000000Y-148000000D01*
X70000000Y-150000000D02*
X70000000Y-50000000D01*
X228000000Y-150000000D02*
X70000000Y-150000000D01*
X230000000Y-52000000D02*
X230000000Y-148000000D01*
X70000000Y-50000000D02*
X228000000Y-50000000D01*
M02*
