%FSLAX45Y45*%
G04 Gerber Fmt 4.5, Leading zero omitted, Abs format (unit mm)*
G04 Created by KiCad (PCBNEW 5.1.5) date 2020-03-10 19:57:23*
%MOMM*%
%LPD*%
G04 APERTURE LIST*
%TA.AperFunction,Profile*%
%ADD10C,0.050000*%
%TD*%
%ADD11C,0.200000*%
%ADD12C,0.300000*%
G04 APERTURE END LIST*
D10*
X18656300Y-14389100D02*
G75*
G02X18605500Y-14389100I-25400J0D01*
G01*
X18656300Y-13957300D02*
X18656300Y-14389100D01*
X18605500Y-13957300D02*
X18605500Y-14389100D01*
X18605500Y-13957300D02*
G75*
G02X18656300Y-13957300I25400J0D01*
G01*
X18605500Y-11925300D02*
G75*
G02X18656300Y-11925300I25400J0D01*
G01*
X18656300Y-12357100D02*
G75*
G02X18605500Y-12357100I-25400J0D01*
G01*
X18656300Y-11925300D02*
X18656300Y-12357100D01*
X18605500Y-11925300D02*
X18605500Y-12357100D01*
X8712420Y-10260326D02*
X8642350Y-10185400D01*
X8859276Y-10112013D02*
X8794485Y-10033205D01*
X8978900Y-10071100D02*
X8978900Y-9969500D01*
X8859276Y-10112013D02*
G75*
G02X8978900Y-10071100I183124J-340087D01*
G01*
X8794485Y-10033205D02*
G75*
G02X8978900Y-9969500I247915J-418895D01*
G01*
X9105900Y-10071100D02*
X9105900Y-9969500D01*
X9410700Y-10375900D02*
X9512300Y-10375900D01*
X9410700Y-10502900D02*
X9512300Y-10502900D01*
X9105900Y-10909300D02*
X9105900Y-10807700D01*
X8978900Y-10909300D02*
X8978900Y-10807700D01*
X8978940Y-10909300D02*
G75*
G02X8642350Y-10185695I63460J469605D01*
G01*
X9105900Y-9969500D02*
G75*
G02X9512300Y-10375900I-63500J-469900D01*
G01*
X9512300Y-10502900D02*
G75*
G02X9105900Y-10909300I-469900J63500D01*
G01*
X8978900Y-10807700D02*
G75*
G02X8712420Y-10260326I63720J369574D01*
G01*
X9105900Y-10071100D02*
G75*
G02X9410700Y-10375900I-63500J-368300D01*
G01*
X9410700Y-10502900D02*
G75*
G02X9105900Y-10807700I-368300J63500D01*
G01*
X23000000Y-5200000D02*
X22800000Y-5000000D01*
X22800000Y-15000000D02*
X23000000Y-14800000D01*
X7000000Y-15000000D02*
X7000000Y-5000000D01*
X22800000Y-15000000D02*
X7000000Y-15000000D01*
X23000000Y-5200000D02*
X23000000Y-14800000D01*
X7000000Y-5000000D02*
X22800000Y-5000000D01*
D11*
X7190900Y-6644800D02*
X7210900Y-6664800D01*
X7210900Y-6644800D02*
X7190900Y-6664800D01*
X7190900Y-7241700D02*
X7210900Y-7261700D01*
X7210900Y-7241700D02*
X7190900Y-7261700D01*
X7190900Y-7844950D02*
X7210900Y-7864950D01*
X7210900Y-7844950D02*
X7190900Y-7864950D01*
X7190900Y-8441850D02*
X7210900Y-8461850D01*
X7210900Y-8441850D02*
X7190900Y-8461850D01*
X7190900Y-9045100D02*
X7210900Y-9065100D01*
X7210900Y-9045100D02*
X7190900Y-9065100D01*
X7197250Y-5470050D02*
X7217250Y-5490050D01*
X7217250Y-5470050D02*
X7197250Y-5490050D01*
X7197250Y-6047900D02*
X7217250Y-6067900D01*
X7217250Y-6047900D02*
X7197250Y-6067900D01*
X7197250Y-9642000D02*
X7217250Y-9662000D01*
X7217250Y-9642000D02*
X7197250Y-9662000D01*
X7324250Y-5349400D02*
X7344250Y-5369400D01*
X7344250Y-5349400D02*
X7324250Y-5369400D01*
X7324250Y-9769000D02*
X7344250Y-9789000D01*
X7344250Y-9769000D02*
X7324250Y-9789000D01*
X7356000Y-13375800D02*
X7376000Y-13395800D01*
X7376000Y-13375800D02*
X7356000Y-13395800D01*
X7521100Y-12829700D02*
X7541100Y-12849700D01*
X7541100Y-12829700D02*
X7521100Y-12849700D01*
X7521100Y-12918600D02*
X7541100Y-12938600D01*
X7541100Y-12918600D02*
X7521100Y-12938600D01*
X7521100Y-13007500D02*
X7541100Y-13027500D01*
X7541100Y-13007500D02*
X7521100Y-13027500D01*
X7521100Y-14150500D02*
X7541100Y-14170500D01*
X7541100Y-14150500D02*
X7521100Y-14170500D01*
X7533800Y-5628800D02*
X7553800Y-5648800D01*
X7553800Y-5628800D02*
X7533800Y-5648800D01*
X7558850Y-8739950D02*
X7578850Y-8759950D01*
X7578850Y-8739950D02*
X7558850Y-8759950D01*
X7559200Y-9121300D02*
X7579200Y-9141300D01*
X7579200Y-9121300D02*
X7559200Y-9141300D01*
X7584600Y-5984400D02*
X7604600Y-6004400D01*
X7604600Y-5984400D02*
X7584600Y-6004400D01*
X7610000Y-12829700D02*
X7630000Y-12849700D01*
X7630000Y-12829700D02*
X7610000Y-12849700D01*
X7610000Y-12918600D02*
X7630000Y-12938600D01*
X7630000Y-12918600D02*
X7610000Y-12938600D01*
X7610000Y-13007500D02*
X7630000Y-13027500D01*
X7630000Y-13007500D02*
X7610000Y-13027500D01*
X7622700Y-6936900D02*
X7642700Y-6956900D01*
X7642700Y-6936900D02*
X7622700Y-6956900D01*
X7635400Y-6428900D02*
X7655400Y-6448900D01*
X7655400Y-6428900D02*
X7635400Y-6448900D01*
X7648035Y-7947435D02*
X7668035Y-7967435D01*
X7668035Y-7947435D02*
X7648035Y-7967435D01*
X7648100Y-7883050D02*
X7668100Y-7903050D01*
X7668100Y-7883050D02*
X7648100Y-7903050D01*
X7686200Y-13375800D02*
X7706200Y-13395800D01*
X7706200Y-13375800D02*
X7686200Y-13395800D01*
X7711600Y-7152800D02*
X7731600Y-7172800D01*
X7731600Y-7152800D02*
X7711600Y-7172800D01*
X7711600Y-8016400D02*
X7731600Y-8036400D01*
X7731600Y-8016400D02*
X7711600Y-8036400D01*
X7775100Y-13579000D02*
X7795100Y-13599000D01*
X7795100Y-13579000D02*
X7775100Y-13599000D01*
X7775100Y-13667900D02*
X7795100Y-13687900D01*
X7795100Y-13667900D02*
X7775100Y-13687900D01*
X7775100Y-13756800D02*
X7795100Y-13776800D01*
X7795100Y-13756800D02*
X7775100Y-13776800D01*
X7775100Y-13845700D02*
X7795100Y-13865700D01*
X7795100Y-13845700D02*
X7775100Y-13865700D01*
X7775100Y-13934600D02*
X7795100Y-13954600D01*
X7795100Y-13934600D02*
X7775100Y-13954600D01*
X7825900Y-6898800D02*
X7845900Y-6918800D01*
X7845900Y-6898800D02*
X7825900Y-6918800D01*
X7889400Y-7394100D02*
X7909400Y-7414100D01*
X7909400Y-7394100D02*
X7889400Y-7414100D01*
X7895750Y-9769000D02*
X7915750Y-9789000D01*
X7915750Y-9769000D02*
X7895750Y-9789000D01*
X7902100Y-5349400D02*
X7922100Y-5369400D01*
X7922100Y-5349400D02*
X7902100Y-5369400D01*
X7902100Y-5908200D02*
X7922100Y-5928200D01*
X7922100Y-5908200D02*
X7902100Y-5928200D01*
X7902100Y-7152800D02*
X7922100Y-7172800D01*
X7922100Y-7152800D02*
X7902100Y-7172800D01*
X7902100Y-8714900D02*
X7922100Y-8734900D01*
X7922100Y-8714900D02*
X7902100Y-8734900D01*
X7927500Y-7978300D02*
X7947500Y-7998300D01*
X7947500Y-7978300D02*
X7927500Y-7998300D01*
X7965600Y-6467000D02*
X7985600Y-6487000D01*
X7985600Y-6467000D02*
X7965600Y-6487000D01*
X7991000Y-13579000D02*
X8011000Y-13599000D01*
X8011000Y-13579000D02*
X7991000Y-13599000D01*
X7991000Y-13667900D02*
X8011000Y-13687900D01*
X8011000Y-13667900D02*
X7991000Y-13687900D01*
X7991000Y-13756800D02*
X8011000Y-13776800D01*
X8011000Y-13756800D02*
X7991000Y-13776800D01*
X7991000Y-13845700D02*
X8011000Y-13865700D01*
X8011000Y-13845700D02*
X7991000Y-13865700D01*
X7991000Y-13934600D02*
X8011000Y-13954600D01*
X8011000Y-13934600D02*
X7991000Y-13954600D01*
X8003700Y-6898800D02*
X8023700Y-6918800D01*
X8023700Y-6898800D02*
X8003700Y-6918800D01*
X8029100Y-7997749D02*
X8049100Y-8017749D01*
X8049100Y-7997749D02*
X8029100Y-8017749D01*
X8067200Y-7876700D02*
X8087200Y-7896700D01*
X8087200Y-7876700D02*
X8067200Y-7896700D01*
X8079900Y-8651400D02*
X8099900Y-8671400D01*
X8099900Y-8651400D02*
X8079900Y-8671400D01*
X8079900Y-9388000D02*
X8099900Y-9408000D01*
X8099900Y-9388000D02*
X8079900Y-9408000D01*
X8079900Y-13579000D02*
X8099900Y-13599000D01*
X8099900Y-13579000D02*
X8079900Y-13599000D01*
X8079900Y-13934600D02*
X8099900Y-13954600D01*
X8099900Y-13934600D02*
X8079900Y-13954600D01*
X8118000Y-7673500D02*
X8138000Y-7693500D01*
X8138000Y-7673500D02*
X8118000Y-7693500D01*
X8168800Y-13934600D02*
X8188800Y-13954600D01*
X8188800Y-13934600D02*
X8168800Y-13954600D01*
X8194200Y-5565300D02*
X8214200Y-5585300D01*
X8214200Y-5565300D02*
X8194200Y-5585300D01*
X8333900Y-10200800D02*
X8353900Y-10220800D01*
X8353900Y-10200800D02*
X8333900Y-10220800D01*
X8397400Y-5933600D02*
X8417400Y-5953600D01*
X8417400Y-5933600D02*
X8397400Y-5953600D01*
X8410100Y-5679600D02*
X8430100Y-5699600D01*
X8430100Y-5679600D02*
X8410100Y-5699600D01*
X8410100Y-6924200D02*
X8430100Y-6944200D01*
X8430100Y-6924200D02*
X8410100Y-6944200D01*
X8422800Y-8905400D02*
X8442800Y-8925400D01*
X8442800Y-8905400D02*
X8422800Y-8925400D01*
X8422800Y-9476900D02*
X8442800Y-9496900D01*
X8442800Y-9476900D02*
X8422800Y-9496900D01*
X8448200Y-6479700D02*
X8468200Y-6499700D01*
X8468200Y-6479700D02*
X8448200Y-6499700D01*
X8460900Y-7724300D02*
X8480900Y-7744300D01*
X8480900Y-7724300D02*
X8460900Y-7744300D01*
X8499000Y-5349400D02*
X8519000Y-5369400D01*
X8519000Y-5349400D02*
X8499000Y-5369400D01*
X8499000Y-9769000D02*
X8519000Y-9789000D01*
X8519000Y-9769000D02*
X8499000Y-9789000D01*
X8537100Y-13629800D02*
X8557100Y-13649800D01*
X8557100Y-13629800D02*
X8537100Y-13649800D01*
X8537100Y-13756800D02*
X8557100Y-13776800D01*
X8557100Y-13756800D02*
X8537100Y-13776800D01*
X8537100Y-13883800D02*
X8557100Y-13903800D01*
X8557100Y-13883800D02*
X8537100Y-13903800D01*
X8549800Y-8524400D02*
X8569800Y-8544400D01*
X8569800Y-8524400D02*
X8549800Y-8544400D01*
X8549802Y-7584600D02*
X8569802Y-7604600D01*
X8569802Y-7584600D02*
X8549802Y-7604600D01*
X8562500Y-7254400D02*
X8582500Y-7274400D01*
X8582500Y-7254400D02*
X8562500Y-7274400D01*
X8587900Y-7394100D02*
X8607900Y-7414100D01*
X8607900Y-7394100D02*
X8587900Y-7414100D01*
X8600600Y-6060600D02*
X8620600Y-6080600D01*
X8620600Y-6060600D02*
X8600600Y-6080600D01*
X8600600Y-7051200D02*
X8620600Y-7071200D01*
X8620600Y-7051200D02*
X8600600Y-7071200D01*
X8600600Y-8143400D02*
X8620600Y-8163400D01*
X8620600Y-8143400D02*
X8600600Y-8163400D01*
X8600600Y-8270400D02*
X8620600Y-8290400D01*
X8620600Y-8270400D02*
X8600600Y-8290400D01*
X8600600Y-9476900D02*
X8620600Y-9496900D01*
X8620600Y-9476900D02*
X8600600Y-9496900D01*
X8613300Y-6797200D02*
X8633300Y-6817200D01*
X8633300Y-6797200D02*
X8613300Y-6817200D01*
X8626000Y-7292500D02*
X8646000Y-7312500D01*
X8646000Y-7292500D02*
X8626000Y-7312500D01*
X8689500Y-7660800D02*
X8709500Y-7680800D01*
X8709500Y-7660800D02*
X8689500Y-7680800D01*
X8714900Y-9222900D02*
X8734900Y-9242900D01*
X8734900Y-9222900D02*
X8714900Y-9242900D01*
X8727600Y-5679600D02*
X8747600Y-5699600D01*
X8747600Y-5679600D02*
X8727600Y-5699600D01*
X8727600Y-6263800D02*
X8747600Y-6283800D01*
X8747600Y-6263800D02*
X8727600Y-6283800D01*
X8727600Y-7997749D02*
X8747600Y-8017749D01*
X8747600Y-7997749D02*
X8727600Y-8017749D01*
X8727600Y-8524400D02*
X8747600Y-8544400D01*
X8747600Y-8524400D02*
X8727600Y-8544400D01*
X8727600Y-8905400D02*
X8747600Y-8925400D01*
X8747600Y-8905400D02*
X8727600Y-8925400D01*
X8778400Y-8270400D02*
X8798400Y-8290400D01*
X8798400Y-8270400D02*
X8778400Y-8290400D01*
X8841900Y-6987700D02*
X8861900Y-7007700D01*
X8861900Y-6987700D02*
X8841900Y-7007700D01*
X8892700Y-5679600D02*
X8912700Y-5699600D01*
X8912700Y-5679600D02*
X8892700Y-5699600D01*
X8892700Y-6670200D02*
X8912700Y-6690200D01*
X8912700Y-6670200D02*
X8892700Y-6690200D01*
X8892700Y-7419499D02*
X8912700Y-7439499D01*
X8912700Y-7419499D02*
X8892700Y-7439499D01*
X8905400Y-6060600D02*
X8925400Y-6080600D01*
X8925400Y-6060600D02*
X8905400Y-6080600D01*
X8905400Y-7997749D02*
X8925400Y-8017749D01*
X8925400Y-7997749D02*
X8905400Y-8017749D01*
X8943500Y-7241700D02*
X8963500Y-7261700D01*
X8963500Y-7241700D02*
X8943500Y-7261700D01*
X8968900Y-6517797D02*
X8988900Y-6537797D01*
X8988900Y-6517797D02*
X8968900Y-6537797D01*
X8968900Y-7330600D02*
X8988900Y-7350600D01*
X8988900Y-7330600D02*
X8968900Y-7350600D01*
X9070500Y-6340000D02*
X9090500Y-6360000D01*
X9090500Y-6340000D02*
X9070500Y-6360000D01*
X9095900Y-5933600D02*
X9115900Y-5953600D01*
X9115900Y-5933600D02*
X9095900Y-5953600D01*
X9095900Y-7051200D02*
X9115900Y-7071200D01*
X9115900Y-7051200D02*
X9095900Y-7071200D01*
X9095900Y-8143400D02*
X9115900Y-8163400D01*
X9115900Y-8143400D02*
X9095900Y-8163400D01*
X9095900Y-9769000D02*
X9115900Y-9789000D01*
X9115900Y-9769000D02*
X9095900Y-9789000D01*
X9102250Y-5344001D02*
X9122250Y-5364001D01*
X9122250Y-5344001D02*
X9102250Y-5364001D01*
X9146700Y-5755800D02*
X9166700Y-5775800D01*
X9166700Y-5755800D02*
X9146700Y-5775800D01*
X9146700Y-8225950D02*
X9166700Y-8245950D01*
X9166700Y-8225950D02*
X9146700Y-8245950D01*
X9146700Y-8981600D02*
X9166700Y-9001600D01*
X9166700Y-8981600D02*
X9146700Y-9001600D01*
X9172100Y-6708300D02*
X9192100Y-6728300D01*
X9192100Y-6708300D02*
X9172100Y-6728300D01*
X9258493Y-8801129D02*
X9278493Y-8821129D01*
X9278493Y-8801129D02*
X9258493Y-8821129D01*
X9260999Y-8492650D02*
X9280999Y-8512650D01*
X9280999Y-8492650D02*
X9260999Y-8512650D01*
X9273700Y-8918100D02*
X9293700Y-8938100D01*
X9293700Y-8918100D02*
X9273700Y-8938100D01*
X9286400Y-8626000D02*
X9306400Y-8646000D01*
X9306400Y-8626000D02*
X9286400Y-8646000D01*
X9286400Y-9349900D02*
X9306400Y-9369900D01*
X9306400Y-9349900D02*
X9286400Y-9369900D01*
X9286400Y-9476900D02*
X9306400Y-9496900D01*
X9306400Y-9476900D02*
X9286400Y-9496900D01*
X9324500Y-7698900D02*
X9344500Y-7718900D01*
X9344500Y-7698900D02*
X9324500Y-7718900D01*
X9375300Y-6060600D02*
X9395300Y-6080600D01*
X9395300Y-6060600D02*
X9375300Y-6080600D01*
X9375300Y-8727600D02*
X9395300Y-8747600D01*
X9395300Y-8727600D02*
X9375300Y-8747600D01*
X9464200Y-9476900D02*
X9484200Y-9496900D01*
X9484200Y-9476900D02*
X9464200Y-9496900D01*
X9502300Y-14328300D02*
X9522300Y-14348300D01*
X9522300Y-14328300D02*
X9502300Y-14348300D01*
X9502300Y-14658500D02*
X9522300Y-14678500D01*
X9522300Y-14658500D02*
X9502300Y-14678500D01*
X9515000Y-6873000D02*
X9535000Y-6893000D01*
X9535000Y-6873000D02*
X9515000Y-6893000D01*
X9540400Y-8918100D02*
X9560400Y-8938100D01*
X9560400Y-8918100D02*
X9540400Y-8938100D01*
X9553100Y-8778400D02*
X9573100Y-8798400D01*
X9573100Y-8778400D02*
X9553100Y-8798400D01*
X9565800Y-6073300D02*
X9585800Y-6093300D01*
X9585800Y-6073300D02*
X9565800Y-6093300D01*
X9572150Y-8537100D02*
X9592150Y-8557100D01*
X9592150Y-8537100D02*
X9572150Y-8557100D01*
X9578500Y-6568600D02*
X9598500Y-6588600D01*
X9598500Y-6568600D02*
X9578500Y-6588600D01*
X9584850Y-9349900D02*
X9604850Y-9369900D01*
X9604850Y-9349900D02*
X9584850Y-9369900D01*
X9591200Y-9222900D02*
X9611200Y-9242900D01*
X9611200Y-9222900D02*
X9591200Y-9242900D01*
X9603900Y-8676800D02*
X9623900Y-8696800D01*
X9623900Y-8676800D02*
X9603900Y-8696800D01*
X9654700Y-8257700D02*
X9674700Y-8277700D01*
X9674700Y-8257700D02*
X9654700Y-8277700D01*
X9699150Y-5343999D02*
X9719150Y-5363999D01*
X9719150Y-5343999D02*
X9699150Y-5363999D01*
X9699150Y-9769000D02*
X9719150Y-9789000D01*
X9719150Y-9769000D02*
X9699150Y-9789000D01*
X9705500Y-13490100D02*
X9725500Y-13510100D01*
X9725500Y-13490100D02*
X9705500Y-13510100D01*
X9705500Y-13591700D02*
X9725500Y-13611700D01*
X9725500Y-13591700D02*
X9705500Y-13611700D01*
X9705500Y-13934600D02*
X9725500Y-13954600D01*
X9725500Y-13934600D02*
X9705500Y-13954600D01*
X9705500Y-14036200D02*
X9725500Y-14056200D01*
X9725500Y-14036200D02*
X9705500Y-14056200D01*
X9743600Y-6682900D02*
X9763600Y-6702900D01*
X9763600Y-6682900D02*
X9743600Y-6702900D01*
X9743600Y-8981600D02*
X9763600Y-9001600D01*
X9763600Y-8981600D02*
X9743600Y-9001600D01*
X9781700Y-7546500D02*
X9801700Y-7566500D01*
X9801700Y-7546500D02*
X9781700Y-7566500D01*
X9794400Y-9476900D02*
X9814400Y-9496900D01*
X9814400Y-9476900D02*
X9794400Y-9496900D01*
X9807100Y-13490100D02*
X9827100Y-13510100D01*
X9827100Y-13490100D02*
X9807100Y-13510100D01*
X9807100Y-14036200D02*
X9827100Y-14056200D01*
X9827100Y-14036200D02*
X9807100Y-14056200D01*
X9817700Y-6314600D02*
X9837700Y-6334600D01*
X9837700Y-6314600D02*
X9817700Y-6334600D01*
X9819800Y-7292500D02*
X9839800Y-7312500D01*
X9839800Y-7292500D02*
X9819800Y-7312500D01*
X9820920Y-8533800D02*
X9840920Y-8553800D01*
X9840920Y-8533800D02*
X9820920Y-8553800D01*
X9845200Y-9210200D02*
X9865200Y-9230200D01*
X9865200Y-9210200D02*
X9845200Y-9230200D01*
X9902350Y-8245000D02*
X9922350Y-8265000D01*
X9922350Y-8245000D02*
X9902350Y-8265000D01*
X9908700Y-13490100D02*
X9928700Y-13510100D01*
X9928700Y-13490100D02*
X9908700Y-13510100D01*
X9908700Y-14036200D02*
X9928700Y-14056200D01*
X9928700Y-14036200D02*
X9908700Y-14056200D01*
X9921400Y-7825900D02*
X9941400Y-7845900D01*
X9941400Y-7825900D02*
X9921400Y-7845900D01*
X10010300Y-5997100D02*
X10030300Y-6017100D01*
X10030300Y-5997100D02*
X10010300Y-6017100D01*
X10010300Y-6568600D02*
X10030300Y-6588600D01*
X10030300Y-6568600D02*
X10010300Y-6588600D01*
X10010300Y-8118000D02*
X10030300Y-8138000D01*
X10030300Y-8118000D02*
X10010300Y-8138000D01*
X10010300Y-9261000D02*
X10030300Y-9281000D01*
X10030300Y-9261000D02*
X10010300Y-9281000D01*
X10010300Y-13490100D02*
X10030300Y-13510100D01*
X10030300Y-13490100D02*
X10010300Y-13510100D01*
X10010300Y-14036200D02*
X10030300Y-14056200D01*
X10030300Y-14036200D02*
X10010300Y-14056200D01*
X10023000Y-7419500D02*
X10043000Y-7439500D01*
X10043000Y-7419500D02*
X10023000Y-7439500D01*
X10048401Y-8727600D02*
X10068401Y-8747600D01*
X10068401Y-8727600D02*
X10048401Y-8747600D01*
X10073800Y-5666900D02*
X10093800Y-5686900D01*
X10093800Y-5666900D02*
X10073800Y-5686900D01*
X10073800Y-7933850D02*
X10093800Y-7953850D01*
X10093800Y-7933850D02*
X10073800Y-7953850D01*
X10086501Y-8956200D02*
X10106501Y-8976200D01*
X10106501Y-8956200D02*
X10086501Y-8976200D01*
X10111900Y-9464200D02*
X10131900Y-9484200D01*
X10131900Y-9464200D02*
X10111900Y-9484200D01*
X10111900Y-13490100D02*
X10131900Y-13510100D01*
X10131900Y-13490100D02*
X10111900Y-13510100D01*
X10111900Y-13591700D02*
X10131900Y-13611700D01*
X10131900Y-13591700D02*
X10111900Y-13611700D01*
X10111900Y-13934600D02*
X10131900Y-13954600D01*
X10131900Y-13934600D02*
X10111900Y-13954600D01*
X10111900Y-14036200D02*
X10131900Y-14056200D01*
X10131900Y-14036200D02*
X10111900Y-14056200D01*
X10137300Y-6314600D02*
X10157300Y-6334600D01*
X10157300Y-6314600D02*
X10137300Y-6334600D01*
X10137300Y-7292500D02*
X10157300Y-7312500D01*
X10157300Y-7292500D02*
X10137300Y-7312500D01*
X10137300Y-8251350D02*
X10157300Y-8271350D01*
X10157300Y-8251350D02*
X10137300Y-8271350D01*
X10162700Y-7025800D02*
X10182700Y-7045800D01*
X10182700Y-7025800D02*
X10162700Y-7045800D01*
X10175401Y-6822600D02*
X10195401Y-6842600D01*
X10195401Y-6822600D02*
X10175401Y-6842600D01*
X10188100Y-5997100D02*
X10208100Y-6017100D01*
X10208100Y-5997100D02*
X10188100Y-6017100D01*
X10188100Y-6543200D02*
X10208100Y-6563200D01*
X10208100Y-6543200D02*
X10188100Y-6563200D01*
X10188100Y-8118000D02*
X10208100Y-8138000D01*
X10208100Y-8118000D02*
X10188100Y-8138000D01*
X10213500Y-7571900D02*
X10233500Y-7591900D01*
X10233500Y-7571900D02*
X10213500Y-7591900D01*
X10213500Y-9184800D02*
X10233500Y-9204800D01*
X10233500Y-9184800D02*
X10213500Y-9204800D01*
X10277000Y-8511700D02*
X10297000Y-8531700D01*
X10297000Y-8511700D02*
X10277000Y-8531700D01*
X10296050Y-5344000D02*
X10316050Y-5364000D01*
X10316050Y-5344000D02*
X10296050Y-5364000D01*
X10296050Y-9769000D02*
X10316050Y-9789000D01*
X10316050Y-9769000D02*
X10296050Y-9789000D01*
X10302400Y-5743100D02*
X10322400Y-5763100D01*
X10322400Y-5743100D02*
X10302400Y-5763100D01*
X10302400Y-7292500D02*
X10322400Y-7312500D01*
X10322400Y-7292500D02*
X10302400Y-7312500D01*
X10302400Y-14493400D02*
X10322400Y-14513400D01*
X10322400Y-14493400D02*
X10302400Y-14513400D01*
X10315100Y-6314600D02*
X10335100Y-6334600D01*
X10335100Y-6314600D02*
X10315100Y-6334600D01*
X10315100Y-7864000D02*
X10335100Y-7884000D01*
X10335100Y-7864000D02*
X10315100Y-7884000D01*
X10315100Y-7991000D02*
X10335100Y-8011000D01*
X10335100Y-7991000D02*
X10315100Y-8011000D01*
X10340500Y-9045100D02*
X10360500Y-9065100D01*
X10360500Y-9045100D02*
X10340500Y-9065100D01*
X10391300Y-8600999D02*
X10411300Y-8620999D01*
X10411300Y-8600999D02*
X10391300Y-8620999D01*
X10454800Y-13655200D02*
X10474800Y-13675200D01*
X10474800Y-13655200D02*
X10454800Y-13675200D01*
X10454800Y-13756800D02*
X10474800Y-13776800D01*
X10474800Y-13756800D02*
X10454800Y-13776800D01*
X10454800Y-13858400D02*
X10474800Y-13878400D01*
X10474800Y-13858400D02*
X10454800Y-13878400D01*
X10518300Y-9032400D02*
X10538300Y-9052400D01*
X10538300Y-9032400D02*
X10518300Y-9052400D01*
X10518300Y-9159400D02*
X10538300Y-9179400D01*
X10538300Y-9159400D02*
X10518300Y-9179400D01*
X10581800Y-6873400D02*
X10601800Y-6893400D01*
X10601800Y-6873400D02*
X10581800Y-6893400D01*
X10607200Y-8702200D02*
X10627200Y-8722200D01*
X10627200Y-8702200D02*
X10607200Y-8722200D01*
X10619900Y-13756800D02*
X10639900Y-13776800D01*
X10639900Y-13756800D02*
X10619900Y-13776800D01*
X10658000Y-5870100D02*
X10678000Y-5890100D01*
X10678000Y-5870100D02*
X10658000Y-5890100D01*
X10759600Y-9184800D02*
X10779600Y-9204800D01*
X10779600Y-9184800D02*
X10759600Y-9204800D01*
X10759600Y-9578500D02*
X10779600Y-9598500D01*
X10779600Y-9578500D02*
X10759600Y-9598500D01*
X10772300Y-8587898D02*
X10792300Y-8607898D01*
X10792300Y-8587898D02*
X10772300Y-8607898D01*
X10785000Y-13655200D02*
X10805000Y-13675200D01*
X10805000Y-13655200D02*
X10785000Y-13675200D01*
X10785000Y-13756800D02*
X10805000Y-13776800D01*
X10805000Y-13756800D02*
X10785000Y-13776800D01*
X10785000Y-13858400D02*
X10805000Y-13878400D01*
X10805000Y-13858400D02*
X10785000Y-13878400D01*
X10861200Y-5997100D02*
X10881200Y-6017100D01*
X10881200Y-5997100D02*
X10861200Y-6017100D01*
X10899300Y-5344000D02*
X10919300Y-5364000D01*
X10919300Y-5344000D02*
X10899300Y-5364000D01*
X10899300Y-9769000D02*
X10919300Y-9789000D01*
X10919300Y-9769000D02*
X10899300Y-9789000D01*
X10924700Y-9553100D02*
X10944700Y-9573100D01*
X10944700Y-9553100D02*
X10924700Y-9573100D01*
X10962800Y-9172100D02*
X10982800Y-9192100D01*
X10982800Y-9172100D02*
X10962800Y-9192100D01*
X10988200Y-5743100D02*
X11008200Y-5763100D01*
X11008200Y-5743100D02*
X10988200Y-5763100D01*
X11051700Y-5997100D02*
X11071700Y-6017100D01*
X11071700Y-5997100D02*
X11051700Y-6017100D01*
X11089800Y-8829200D02*
X11109800Y-8849200D01*
X11109800Y-8829200D02*
X11089800Y-8849200D01*
X11153300Y-8981600D02*
X11173300Y-9001600D01*
X11173300Y-8981600D02*
X11153300Y-9001600D01*
X11166000Y-5743100D02*
X11186000Y-5763100D01*
X11186000Y-5743100D02*
X11166000Y-5763100D01*
X11166000Y-13350400D02*
X11186000Y-13370400D01*
X11186000Y-13350400D02*
X11166000Y-13370400D01*
X11166000Y-13452000D02*
X11186000Y-13472000D01*
X11186000Y-13452000D02*
X11166000Y-13472000D01*
X11166000Y-13553600D02*
X11186000Y-13573600D01*
X11186000Y-13553600D02*
X11166000Y-13573600D01*
X11166000Y-14036200D02*
X11186000Y-14056200D01*
X11186000Y-14036200D02*
X11166000Y-14056200D01*
X11166000Y-14137800D02*
X11186000Y-14157800D01*
X11186000Y-14137800D02*
X11166000Y-14157800D01*
X11166000Y-14239400D02*
X11186000Y-14259400D01*
X11186000Y-14239400D02*
X11166000Y-14259400D01*
X11242200Y-10886600D02*
X11262200Y-10906600D01*
X11262200Y-10886600D02*
X11242200Y-10906600D01*
X11254900Y-6047900D02*
X11274900Y-6067900D01*
X11274900Y-6047900D02*
X11254900Y-6067900D01*
X11267600Y-13350400D02*
X11287600Y-13370400D01*
X11287600Y-13350400D02*
X11267600Y-13370400D01*
X11267600Y-13452000D02*
X11287600Y-13472000D01*
X11287600Y-13452000D02*
X11267600Y-13472000D01*
X11267600Y-13553600D02*
X11287600Y-13573600D01*
X11287600Y-13553600D02*
X11267600Y-13573600D01*
X11267600Y-14036200D02*
X11287600Y-14056200D01*
X11287600Y-14036200D02*
X11267600Y-14056200D01*
X11267600Y-14137800D02*
X11287600Y-14157800D01*
X11287600Y-14137800D02*
X11267600Y-14157800D01*
X11267600Y-14239400D02*
X11287600Y-14259400D01*
X11287600Y-14239400D02*
X11267600Y-14259400D01*
X11280300Y-12613800D02*
X11300300Y-12633800D01*
X11300300Y-12613800D02*
X11280300Y-12633800D01*
X11369200Y-5870100D02*
X11389200Y-5890100D01*
X11389200Y-5870100D02*
X11369200Y-5890100D01*
X11369200Y-11445400D02*
X11389200Y-11465400D01*
X11389200Y-11445400D02*
X11369200Y-11465400D01*
X11388249Y-10868350D02*
X11408249Y-10888350D01*
X11408249Y-10868350D02*
X11388249Y-10888350D01*
X11388250Y-10931050D02*
X11408250Y-10951050D01*
X11408250Y-10931050D02*
X11388250Y-10951050D01*
X11388250Y-11014400D02*
X11408250Y-11034400D01*
X11408250Y-11014400D02*
X11388250Y-11034400D01*
X11388250Y-11077100D02*
X11408250Y-11097100D01*
X11408250Y-11077100D02*
X11388250Y-11097100D01*
X11394600Y-11140600D02*
X11414600Y-11160600D01*
X11414600Y-11140600D02*
X11394600Y-11160600D01*
X11470800Y-9769000D02*
X11490800Y-9789000D01*
X11490800Y-9769000D02*
X11470800Y-9789000D01*
X11477150Y-5343050D02*
X11497150Y-5363050D01*
X11497150Y-5343050D02*
X11477150Y-5363050D01*
X11483500Y-11331100D02*
X11503500Y-11351100D01*
X11503500Y-11331100D02*
X11483500Y-11351100D01*
X11540504Y-10511885D02*
X11560504Y-10531885D01*
X11560504Y-10511885D02*
X11540504Y-10531885D01*
X11553350Y-10702450D02*
X11573350Y-10722450D01*
X11573350Y-10702450D02*
X11553350Y-10722450D01*
X11585100Y-6644800D02*
X11605100Y-6664800D01*
X11605100Y-6644800D02*
X11585100Y-6664800D01*
X11585100Y-10632600D02*
X11605100Y-10652600D01*
X11605100Y-10632600D02*
X11585100Y-10652600D01*
X11591450Y-5470050D02*
X11611450Y-5490050D01*
X11611450Y-5470050D02*
X11591450Y-5490050D01*
X11591450Y-7244000D02*
X11611450Y-7264000D01*
X11611450Y-7244000D02*
X11591450Y-7264000D01*
X11591450Y-7843999D02*
X11611450Y-7863999D01*
X11611450Y-7843999D02*
X11591450Y-7863999D01*
X11591450Y-9044000D02*
X11611450Y-9064000D01*
X11611450Y-9044000D02*
X11591450Y-9064000D01*
X11597800Y-6047900D02*
X11617800Y-6067900D01*
X11617800Y-6047900D02*
X11597800Y-6067900D01*
X11597800Y-8568850D02*
X11617800Y-8588850D01*
X11617800Y-8568850D02*
X11597800Y-8588850D01*
X11597800Y-9642000D02*
X11617800Y-9662000D01*
X11617800Y-9642000D02*
X11597800Y-9662000D01*
X11674000Y-10429400D02*
X11694000Y-10449400D01*
X11694000Y-10429400D02*
X11674000Y-10449400D01*
X11699400Y-11331100D02*
X11719400Y-11351100D01*
X11719400Y-11331100D02*
X11699400Y-11351100D01*
X11737500Y-10746900D02*
X11757500Y-10766900D01*
X11757500Y-10746900D02*
X11737500Y-10766900D01*
X11750200Y-10442099D02*
X11770200Y-10462099D01*
X11770200Y-10442099D02*
X11750200Y-10462099D01*
X11762900Y-10010300D02*
X11782900Y-10030300D01*
X11782900Y-10010300D02*
X11762900Y-10030300D01*
X11781952Y-8613300D02*
X11801952Y-8633300D01*
X11801952Y-8613300D02*
X11781952Y-8633300D01*
X11788300Y-6543200D02*
X11808300Y-6563200D01*
X11808300Y-6543200D02*
X11788300Y-6563200D01*
X11788300Y-9832500D02*
X11808300Y-9852500D01*
X11808300Y-9832500D02*
X11788300Y-9852500D01*
X11794650Y-6790850D02*
X11814650Y-6810850D01*
X11814650Y-6790850D02*
X11794650Y-6810850D01*
X11801000Y-7394100D02*
X11821000Y-7414100D01*
X11821000Y-7394100D02*
X11801000Y-7414100D01*
X11801000Y-7629050D02*
X11821000Y-7649050D01*
X11821000Y-7629050D02*
X11801000Y-7649050D01*
X11801000Y-8232300D02*
X11821000Y-8252300D01*
X11821000Y-8232300D02*
X11801000Y-8252300D01*
X11801000Y-10353200D02*
X11821000Y-10373200D01*
X11821000Y-10353200D02*
X11801000Y-10373200D01*
X11801000Y-11445400D02*
X11821000Y-11465400D01*
X11821000Y-11445400D02*
X11801000Y-11465400D01*
X11877200Y-9578500D02*
X11897200Y-9598500D01*
X11897200Y-9578500D02*
X11877200Y-9598500D01*
X11940700Y-10619900D02*
X11960700Y-10639900D01*
X11960700Y-10619900D02*
X11940700Y-10639900D01*
X11941499Y-13502800D02*
X11961499Y-13522800D01*
X11961499Y-13502800D02*
X11941499Y-13522800D01*
X11947050Y-9159400D02*
X11967050Y-9179400D01*
X11967050Y-9159400D02*
X11947050Y-9179400D01*
X11966100Y-9743600D02*
X11986100Y-9763600D01*
X11986100Y-9743600D02*
X11966100Y-9763600D01*
X11966100Y-14341000D02*
X11986100Y-14361000D01*
X11986100Y-14341000D02*
X11966100Y-14361000D01*
X12010550Y-11089800D02*
X12030550Y-11109800D01*
X12030550Y-11089800D02*
X12010550Y-11109800D01*
X12016900Y-7394100D02*
X12036900Y-7414100D01*
X12036900Y-7394100D02*
X12016900Y-7414100D01*
X12016900Y-10886600D02*
X12036900Y-10906600D01*
X12036900Y-10886600D02*
X12016900Y-10906600D01*
X12016900Y-10988200D02*
X12036900Y-11008200D01*
X12036900Y-10988200D02*
X12016900Y-11008200D01*
X12016900Y-13502800D02*
X12036900Y-13522800D01*
X12036900Y-13502800D02*
X12016900Y-13522800D01*
X12016900Y-14087000D02*
X12036900Y-14107000D01*
X12036900Y-14087000D02*
X12016900Y-14107000D01*
X12023250Y-11185050D02*
X12043250Y-11205050D01*
X12043250Y-11185050D02*
X12023250Y-11205050D01*
X12029600Y-8187850D02*
X12049600Y-8207850D01*
X12049600Y-8187850D02*
X12029600Y-8207850D01*
X12029601Y-13172600D02*
X12049601Y-13192600D01*
X12049601Y-13172600D02*
X12029601Y-13192600D01*
X12042300Y-10010300D02*
X12062300Y-10030300D01*
X12062300Y-10010300D02*
X12042300Y-10030300D01*
X12067700Y-6428900D02*
X12087700Y-6448900D01*
X12087700Y-6428900D02*
X12067700Y-6448900D01*
X12080400Y-10746900D02*
X12100400Y-10766900D01*
X12100400Y-10746900D02*
X12080400Y-10766900D01*
X12105800Y-8613300D02*
X12125800Y-8633300D01*
X12125800Y-8613300D02*
X12105800Y-8633300D01*
X12131200Y-10607200D02*
X12151200Y-10627200D01*
X12151200Y-10607200D02*
X12131200Y-10627200D01*
X12137949Y-9159400D02*
X12157949Y-9179400D01*
X12157949Y-9159400D02*
X12137949Y-9179400D01*
X12143900Y-10505600D02*
X12163900Y-10525600D01*
X12163900Y-10505600D02*
X12143900Y-10525600D01*
X12143900Y-13706000D02*
X12163900Y-13726000D01*
X12163900Y-13706000D02*
X12143900Y-13726000D01*
X12156600Y-8098950D02*
X12176600Y-8118950D01*
X12176600Y-8098950D02*
X12156600Y-8118950D01*
X12182000Y-6543200D02*
X12202000Y-6563200D01*
X12202000Y-6543200D02*
X12182000Y-6563200D01*
X12182000Y-7381400D02*
X12202000Y-7401400D01*
X12202000Y-7381400D02*
X12182000Y-7401400D01*
X12245500Y-11166000D02*
X12265500Y-11186000D01*
X12265500Y-11166000D02*
X12245500Y-11186000D01*
X12245500Y-13706000D02*
X12265500Y-13726000D01*
X12265500Y-13706000D02*
X12245500Y-13726000D01*
X12258200Y-9489600D02*
X12278200Y-9509600D01*
X12278200Y-9489600D02*
X12258200Y-9509600D01*
X12270900Y-8613300D02*
X12290900Y-8633300D01*
X12290900Y-8613300D02*
X12270900Y-8633300D01*
X12270900Y-11991500D02*
X12290900Y-12011500D01*
X12290900Y-11991500D02*
X12270900Y-12011500D01*
X12270900Y-12315749D02*
X12290900Y-12335749D01*
X12290900Y-12315749D02*
X12270900Y-12335749D01*
X12270900Y-12423300D02*
X12290900Y-12443300D01*
X12290900Y-12423300D02*
X12270900Y-12443300D01*
X12309000Y-7394100D02*
X12329000Y-7414100D01*
X12329000Y-7394100D02*
X12309000Y-7414100D01*
X12309000Y-8232300D02*
X12329000Y-8252300D01*
X12329000Y-8232300D02*
X12309000Y-8252300D01*
X12315350Y-6543200D02*
X12335350Y-6563200D01*
X12335350Y-6543200D02*
X12315350Y-6563200D01*
X12347100Y-13305950D02*
X12367100Y-13325950D01*
X12367100Y-13305950D02*
X12347100Y-13325950D01*
X12347100Y-13706000D02*
X12367100Y-13726000D01*
X12367100Y-13706000D02*
X12347100Y-13726000D01*
X12347100Y-14080650D02*
X12367100Y-14100650D01*
X12367100Y-14080650D02*
X12347100Y-14100650D01*
X12347100Y-14188600D02*
X12367100Y-14208600D01*
X12367100Y-14188600D02*
X12347100Y-14208600D01*
X12372500Y-7724300D02*
X12392500Y-7744300D01*
X12392500Y-7724300D02*
X12372500Y-7744300D01*
X12385200Y-12067700D02*
X12405200Y-12087700D01*
X12405200Y-12067700D02*
X12385200Y-12087700D01*
X12410600Y-9070500D02*
X12430600Y-9090500D01*
X12430600Y-9070500D02*
X12410600Y-9090500D01*
X12423300Y-12474100D02*
X12443300Y-12494100D01*
X12443300Y-12474100D02*
X12423300Y-12494100D01*
X12436000Y-11674000D02*
X12456000Y-11694000D01*
X12456000Y-11674000D02*
X12436000Y-11694000D01*
X12461400Y-12715400D02*
X12481400Y-12735400D01*
X12481400Y-12715400D02*
X12461400Y-12735400D01*
X12474100Y-14087000D02*
X12494100Y-14107000D01*
X12494100Y-14087000D02*
X12474100Y-14107000D01*
X12512200Y-12385200D02*
X12532200Y-12405200D01*
X12532200Y-12385200D02*
X12512200Y-12405200D01*
X12512200Y-6543200D02*
X12532200Y-6563200D01*
X12532200Y-6543200D02*
X12512200Y-6563200D01*
X12524901Y-7394100D02*
X12544901Y-7414100D01*
X12544901Y-7394100D02*
X12524901Y-7414100D01*
X12537600Y-13553600D02*
X12557600Y-13573600D01*
X12557600Y-13553600D02*
X12537600Y-13573600D01*
X12613800Y-7724300D02*
X12633800Y-7744300D01*
X12633800Y-7724300D02*
X12613800Y-7744300D01*
X12690000Y-6543200D02*
X12710000Y-6563200D01*
X12710000Y-6543200D02*
X12690000Y-6563200D01*
X12690000Y-7381400D02*
X12710000Y-7401400D01*
X12710000Y-7381400D02*
X12690000Y-7401400D01*
X12690000Y-8219600D02*
X12710000Y-8239600D01*
X12710000Y-8219600D02*
X12690000Y-8239600D01*
X12702700Y-8549800D02*
X12722700Y-8569800D01*
X12722700Y-8549800D02*
X12702700Y-8569800D01*
X12702700Y-9184800D02*
X12722700Y-9204800D01*
X12722700Y-9184800D02*
X12702700Y-9204800D01*
X12702700Y-9597550D02*
X12722700Y-9617550D01*
X12722700Y-9597550D02*
X12702700Y-9617550D01*
X12766200Y-12715400D02*
X12786200Y-12735400D01*
X12786200Y-12715400D02*
X12766200Y-12735400D01*
X12804299Y-11801000D02*
X12824299Y-11821000D01*
X12824299Y-11801000D02*
X12804299Y-11821000D01*
X12817000Y-11521600D02*
X12837000Y-11541600D01*
X12837000Y-11521600D02*
X12817000Y-11541600D01*
X12867800Y-8225950D02*
X12887800Y-8245950D01*
X12887800Y-8225950D02*
X12867800Y-8245950D01*
X12880500Y-7394100D02*
X12900500Y-7414100D01*
X12900500Y-7394100D02*
X12880500Y-7414100D01*
X12880500Y-9165750D02*
X12900500Y-9185750D01*
X12900500Y-9165750D02*
X12880500Y-9185750D01*
X12893200Y-11801000D02*
X12913200Y-11821000D01*
X12913200Y-11801000D02*
X12893200Y-11821000D01*
X12931300Y-6860700D02*
X12951300Y-6880700D01*
X12951300Y-6860700D02*
X12931300Y-6880700D01*
X12931300Y-9813450D02*
X12951300Y-9833450D01*
X12951300Y-9813450D02*
X12931300Y-9833450D01*
X12944000Y-9032400D02*
X12964000Y-9052400D01*
X12964000Y-9032400D02*
X12944000Y-9052400D01*
X12944000Y-10823100D02*
X12964000Y-10843100D01*
X12964000Y-10823100D02*
X12944000Y-10843100D01*
X12994800Y-9266080D02*
X13014800Y-9286080D01*
X13014800Y-9266080D02*
X12994800Y-9286080D01*
X12994800Y-9680099D02*
X13014800Y-9700099D01*
X13014800Y-9680099D02*
X12994800Y-9700099D01*
X13007500Y-7635400D02*
X13027500Y-7655400D01*
X13027500Y-7635400D02*
X13007500Y-7655400D01*
X13045600Y-9819800D02*
X13065600Y-9839800D01*
X13065600Y-9819800D02*
X13045600Y-9839800D01*
X13058300Y-10810400D02*
X13078300Y-10830400D01*
X13078300Y-10810400D02*
X13058300Y-10830400D01*
X13058300Y-12715400D02*
X13078300Y-12735400D01*
X13078300Y-12715400D02*
X13058300Y-12735400D01*
X13071000Y-8219600D02*
X13091000Y-8239600D01*
X13091000Y-8219600D02*
X13071000Y-8239600D01*
X13083700Y-7394100D02*
X13103700Y-7414100D01*
X13103700Y-7394100D02*
X13083700Y-7414100D01*
X13091320Y-9261400D02*
X13111320Y-9281400D01*
X13111320Y-9261400D02*
X13091320Y-9281400D01*
X13121800Y-9083200D02*
X13141800Y-9103200D01*
X13141800Y-9083200D02*
X13121800Y-9103200D01*
X13128357Y-9820200D02*
X13148357Y-9840200D01*
X13148357Y-9820200D02*
X13128357Y-9840200D01*
X13147200Y-10442099D02*
X13167200Y-10462099D01*
X13167200Y-10442099D02*
X13147200Y-10462099D01*
X13147200Y-12410600D02*
X13167200Y-12430600D01*
X13167200Y-12410600D02*
X13147200Y-12430600D01*
X13170382Y-12710638D02*
X13190382Y-12730638D01*
X13190382Y-12710638D02*
X13170382Y-12730638D01*
X13172600Y-10111900D02*
X13192600Y-10131900D01*
X13192600Y-10111900D02*
X13172600Y-10131900D01*
X13172600Y-11204100D02*
X13192600Y-11224100D01*
X13192600Y-11204100D02*
X13172600Y-11224100D01*
X13223400Y-8613300D02*
X13243400Y-8633300D01*
X13243400Y-8613300D02*
X13223400Y-8633300D01*
X13223400Y-10442100D02*
X13243400Y-10462100D01*
X13243400Y-10442100D02*
X13223400Y-10462100D01*
X13248800Y-7381402D02*
X13268800Y-7401402D01*
X13268800Y-7381402D02*
X13248800Y-7401402D01*
X13248800Y-8225950D02*
X13268800Y-8245950D01*
X13268800Y-8225950D02*
X13248800Y-8245950D01*
X13251340Y-9527700D02*
X13271340Y-9547700D01*
X13271340Y-9527700D02*
X13251340Y-9547700D01*
X13267850Y-7851300D02*
X13287850Y-7871300D01*
X13287850Y-7851300D02*
X13267850Y-7871300D01*
X13274200Y-11991500D02*
X13294200Y-12011500D01*
X13294200Y-11991500D02*
X13274200Y-12011500D01*
X13312300Y-12397900D02*
X13332300Y-12417900D01*
X13332300Y-12397900D02*
X13312300Y-12417900D01*
X13312300Y-12715400D02*
X13332300Y-12735400D01*
X13332300Y-12715400D02*
X13312300Y-12735400D01*
X13325000Y-12182000D02*
X13345000Y-12202000D01*
X13345000Y-12182000D02*
X13325000Y-12202000D01*
X13363100Y-8499000D02*
X13383100Y-8519000D01*
X13383100Y-8499000D02*
X13363100Y-8519000D01*
X13363100Y-10823100D02*
X13383100Y-10843100D01*
X13383100Y-10823100D02*
X13363100Y-10843100D01*
X13375800Y-7394100D02*
X13395800Y-7414100D01*
X13395800Y-7394100D02*
X13375800Y-7414100D01*
X13382150Y-8232300D02*
X13402150Y-8252300D01*
X13402150Y-8232300D02*
X13382150Y-8252300D01*
X13413899Y-11839100D02*
X13433899Y-11859100D01*
X13433899Y-11839100D02*
X13413899Y-11859100D01*
X13439300Y-12702700D02*
X13459300Y-12722700D01*
X13459300Y-12702700D02*
X13439300Y-12722700D01*
X13515500Y-9095900D02*
X13535500Y-9115900D01*
X13535500Y-9095900D02*
X13515500Y-9115900D01*
X13553600Y-12397900D02*
X13573600Y-12417900D01*
X13573600Y-12397900D02*
X13553600Y-12417900D01*
X13604400Y-7394100D02*
X13624400Y-7414100D01*
X13624400Y-7394100D02*
X13604400Y-7414100D01*
X13667900Y-12385200D02*
X13687900Y-12405200D01*
X13687900Y-12385200D02*
X13667900Y-12405200D01*
X13693300Y-11775600D02*
X13713300Y-11795600D01*
X13713300Y-11775600D02*
X13693300Y-11795600D01*
X13693300Y-11953400D02*
X13713300Y-11973400D01*
X13713300Y-11953400D02*
X13693300Y-11973400D01*
X13693300Y-12309000D02*
X13713300Y-12329000D01*
X13713300Y-12309000D02*
X13693300Y-12329000D01*
X13718700Y-12956700D02*
X13738700Y-12976700D01*
X13738700Y-12956700D02*
X13718700Y-12976700D01*
X13744100Y-8232300D02*
X13764100Y-8252300D01*
X13764100Y-8232300D02*
X13744100Y-8252300D01*
X13756800Y-12715400D02*
X13776800Y-12735400D01*
X13776800Y-12715400D02*
X13756800Y-12735400D01*
X13769500Y-7394100D02*
X13789500Y-7414100D01*
X13789500Y-7394100D02*
X13769500Y-7414100D01*
X13858400Y-13223400D02*
X13878400Y-13243400D01*
X13878400Y-13223400D02*
X13858400Y-13243400D01*
X13858400Y-13325000D02*
X13878400Y-13345000D01*
X13878400Y-13325000D02*
X13858400Y-13345000D01*
X13858400Y-13731400D02*
X13878400Y-13751400D01*
X13878400Y-13731400D02*
X13858400Y-13751400D01*
X13858400Y-13833000D02*
X13878400Y-13853000D01*
X13878400Y-13833000D02*
X13858400Y-13853000D01*
X13896500Y-8727600D02*
X13916500Y-8747600D01*
X13916500Y-8727600D02*
X13896500Y-8747600D01*
X13960000Y-9121300D02*
X13980000Y-9141300D01*
X13980000Y-9121300D02*
X13960000Y-9141300D01*
X13960000Y-10797700D02*
X13980000Y-10817700D01*
X13980000Y-10797700D02*
X13960000Y-10817700D01*
X13960000Y-13223400D02*
X13980000Y-13243400D01*
X13980000Y-13223400D02*
X13960000Y-13243400D01*
X13960000Y-13325000D02*
X13980000Y-13345000D01*
X13980000Y-13325000D02*
X13960000Y-13345000D01*
X13960000Y-13426600D02*
X13980000Y-13446600D01*
X13980000Y-13426600D02*
X13960000Y-13446600D01*
X13960000Y-13528200D02*
X13980000Y-13548200D01*
X13980000Y-13528200D02*
X13960000Y-13548200D01*
X13960000Y-13629800D02*
X13980000Y-13649800D01*
X13980000Y-13629800D02*
X13960000Y-13649800D01*
X13960000Y-13731400D02*
X13980000Y-13751400D01*
X13980000Y-13731400D02*
X13960000Y-13751400D01*
X13960000Y-13833000D02*
X13980000Y-13853000D01*
X13980000Y-13833000D02*
X13960000Y-13853000D01*
X13998100Y-9781700D02*
X14018100Y-9801700D01*
X14018100Y-9781700D02*
X13998100Y-9801700D01*
X14000640Y-9906160D02*
X14020640Y-9926160D01*
X14020640Y-9906160D02*
X14000640Y-9926160D01*
X14005720Y-11653679D02*
X14025720Y-11673679D01*
X14025720Y-11653679D02*
X14005720Y-11673679D01*
X14010800Y-12321700D02*
X14030800Y-12341700D01*
X14030800Y-12321700D02*
X14010800Y-12341700D01*
X14036200Y-9565800D02*
X14056200Y-9585800D01*
X14056200Y-9565800D02*
X14036200Y-9585800D01*
X14061600Y-12728100D02*
X14081600Y-12748100D01*
X14081600Y-12728100D02*
X14061600Y-12748100D01*
X14137800Y-11280300D02*
X14157800Y-11300300D01*
X14157800Y-11280300D02*
X14137800Y-11300300D01*
X14137800Y-11889900D02*
X14157800Y-11909900D01*
X14157800Y-11889900D02*
X14137800Y-11909900D01*
X14150500Y-12639200D02*
X14170500Y-12659200D01*
X14170500Y-12639200D02*
X14150500Y-12659200D01*
X14201300Y-12867800D02*
X14221300Y-12887800D01*
X14221300Y-12867800D02*
X14201300Y-12887800D01*
X14201300Y-13198000D02*
X14221300Y-13218000D01*
X14221300Y-13198000D02*
X14201300Y-13218000D01*
X14214000Y-13325000D02*
X14234000Y-13345000D01*
X14234000Y-13325000D02*
X14214000Y-13345000D01*
X14239400Y-10823100D02*
X14259400Y-10843100D01*
X14259400Y-10823100D02*
X14239400Y-10843100D01*
X14442600Y-8702200D02*
X14462600Y-8722200D01*
X14462600Y-8702200D02*
X14442600Y-8722200D01*
X14442600Y-9261400D02*
X14462600Y-9281400D01*
X14462600Y-9261400D02*
X14442600Y-9281400D01*
X14442600Y-10823100D02*
X14462600Y-10843100D01*
X14462600Y-10823100D02*
X14442600Y-10843100D01*
X14455300Y-9864250D02*
X14475300Y-9884250D01*
X14475300Y-9864250D02*
X14455300Y-9884250D01*
X14455300Y-12867800D02*
X14475300Y-12887800D01*
X14475300Y-12867800D02*
X14455300Y-12887800D01*
X14531500Y-10257950D02*
X14551500Y-10277950D01*
X14551500Y-10257950D02*
X14531500Y-10277950D01*
X14551928Y-12199672D02*
X14571928Y-12219672D01*
X14571928Y-12199672D02*
X14551928Y-12219672D01*
X14582700Y-9667400D02*
X14602700Y-9687400D01*
X14602700Y-9667400D02*
X14582700Y-9687400D01*
X14607949Y-10881448D02*
X14627949Y-10901448D01*
X14627949Y-10881448D02*
X14607949Y-10901448D01*
X14620400Y-11051700D02*
X14640400Y-11071700D01*
X14640400Y-11051700D02*
X14620400Y-11071700D01*
X14633100Y-10988200D02*
X14653100Y-11008200D01*
X14653100Y-10988200D02*
X14633100Y-11008200D01*
X14633100Y-11483500D02*
X14653100Y-11503500D01*
X14653100Y-11483500D02*
X14633100Y-11503500D01*
X14633100Y-11985549D02*
X14653100Y-12005549D01*
X14653100Y-11985549D02*
X14633100Y-12005549D01*
X14633100Y-12613800D02*
X14653100Y-12633800D01*
X14653100Y-12613800D02*
X14633100Y-12633800D01*
X14722000Y-12867800D02*
X14742000Y-12887800D01*
X14742000Y-12867800D02*
X14722000Y-12887800D01*
X14861700Y-11737500D02*
X14881700Y-11757500D01*
X14881700Y-11737500D02*
X14861700Y-11757500D01*
X14861700Y-11839100D02*
X14881700Y-11859100D01*
X14881700Y-11839100D02*
X14861700Y-11859100D01*
X14874400Y-9591200D02*
X14894400Y-9611200D01*
X14894400Y-9591200D02*
X14874400Y-9611200D01*
X14874400Y-9654700D02*
X14894400Y-9674700D01*
X14894400Y-9654700D02*
X14874400Y-9674700D01*
X14874400Y-9724550D02*
X14894400Y-9744550D01*
X14894400Y-9724550D02*
X14874400Y-9744550D01*
X14880528Y-10185903D02*
X14900528Y-10205903D01*
X14900528Y-10185903D02*
X14880528Y-10205903D01*
X14880750Y-10321450D02*
X14900750Y-10341450D01*
X14900750Y-10321450D02*
X14880750Y-10341450D01*
X14887100Y-11432700D02*
X14907100Y-11452700D01*
X14907100Y-11432700D02*
X14887100Y-11452700D01*
X14893450Y-11972450D02*
X14913450Y-11992450D01*
X14913450Y-11972450D02*
X14893450Y-11992450D01*
X14899436Y-12534898D02*
X14919436Y-12554898D01*
X14919436Y-12534898D02*
X14899436Y-12554898D01*
X14899800Y-11889900D02*
X14919800Y-11909900D01*
X14919800Y-11889900D02*
X14899800Y-11909900D01*
X14912500Y-12944000D02*
X14932500Y-12964000D01*
X14932500Y-12944000D02*
X14912500Y-12964000D01*
X14934200Y-12425950D02*
X14954200Y-12445950D01*
X14954200Y-12425950D02*
X14934200Y-12445950D01*
X14937900Y-10810400D02*
X14957900Y-10830400D01*
X14957900Y-10810400D02*
X14937900Y-10830400D01*
X14963300Y-12182000D02*
X14983300Y-12202000D01*
X14983300Y-12182000D02*
X14963300Y-12202000D01*
X14976000Y-12944000D02*
X14996000Y-12964000D01*
X14996000Y-12944000D02*
X14976000Y-12964000D01*
X15014100Y-9165750D02*
X15034100Y-9185750D01*
X15034100Y-9165750D02*
X15014100Y-9185750D01*
X15026800Y-11318400D02*
X15046800Y-11338400D01*
X15046800Y-11318400D02*
X15026800Y-11338400D01*
X15039500Y-10251600D02*
X15059500Y-10271600D01*
X15059500Y-10251600D02*
X15039500Y-10271600D01*
X15039500Y-10988200D02*
X15059500Y-11008200D01*
X15059500Y-10988200D02*
X15039500Y-11008200D01*
X15039500Y-11064400D02*
X15059500Y-11084400D01*
X15059500Y-11064400D02*
X15039500Y-11084400D01*
X15039500Y-12944000D02*
X15059500Y-12964000D01*
X15059500Y-12944000D02*
X15039500Y-12964000D01*
X15052200Y-9070500D02*
X15072200Y-9090500D01*
X15072200Y-9070500D02*
X15052200Y-9090500D01*
X15052200Y-9781700D02*
X15072200Y-9801700D01*
X15072200Y-9781700D02*
X15052200Y-9801700D01*
X15064900Y-9400700D02*
X15084900Y-9420700D01*
X15084900Y-9400700D02*
X15064900Y-9420700D01*
X15064900Y-9984900D02*
X15084900Y-10004900D01*
X15084900Y-9984900D02*
X15064900Y-10004900D01*
X15064900Y-10378600D02*
X15084900Y-10398600D01*
X15084900Y-10378600D02*
X15064900Y-10398600D01*
X15064900Y-10810400D02*
X15084900Y-10830400D01*
X15084900Y-10810400D02*
X15064900Y-10830400D01*
X15090300Y-10594500D02*
X15110300Y-10614500D01*
X15110300Y-10594500D02*
X15090300Y-10614500D01*
X15103000Y-11318400D02*
X15123000Y-11338400D01*
X15123000Y-11318400D02*
X15103000Y-11338400D01*
X15103000Y-12944000D02*
X15123000Y-12964000D01*
X15123000Y-12944000D02*
X15103000Y-12964000D01*
X15128400Y-11420000D02*
X15148400Y-11440000D01*
X15148400Y-11420000D02*
X15128400Y-11440000D01*
X15141100Y-10137300D02*
X15161100Y-10157300D01*
X15161100Y-10137300D02*
X15141100Y-10157300D01*
X15165700Y-12944000D02*
X15185700Y-12964000D01*
X15185700Y-12944000D02*
X15165700Y-12964000D01*
X15179200Y-12182000D02*
X15199200Y-12202000D01*
X15199200Y-12182000D02*
X15179200Y-12202000D01*
X15191900Y-11407300D02*
X15211900Y-11427300D01*
X15211900Y-11407300D02*
X15191900Y-11427300D01*
X15242700Y-11470800D02*
X15262700Y-11490800D01*
X15262700Y-11470800D02*
X15242700Y-11490800D01*
X15242700Y-12931300D02*
X15262700Y-12951300D01*
X15262700Y-12931300D02*
X15242700Y-12951300D01*
X15280800Y-11407300D02*
X15300800Y-11427300D01*
X15300800Y-11407300D02*
X15280800Y-11427300D01*
X15280800Y-12702700D02*
X15300800Y-12722700D01*
X15300800Y-12702700D02*
X15280800Y-12722700D01*
X15287036Y-12975636D02*
X15307036Y-12995636D01*
X15307036Y-12975636D02*
X15287036Y-12995636D01*
X15287150Y-10543700D02*
X15307150Y-10563700D01*
X15307150Y-10543700D02*
X15287150Y-10563700D01*
X15318900Y-7127400D02*
X15338900Y-7147400D01*
X15338900Y-7127400D02*
X15318900Y-7147400D01*
X15318900Y-7698900D02*
X15338900Y-7718900D01*
X15338900Y-7698900D02*
X15318900Y-7718900D01*
X15325649Y-11267603D02*
X15345649Y-11287603D01*
X15345649Y-11267603D02*
X15325649Y-11287603D01*
X15338064Y-10588036D02*
X15358064Y-10608036D01*
X15358064Y-10588036D02*
X15338064Y-10608036D01*
X15338163Y-12939341D02*
X15358163Y-12959341D01*
X15358163Y-12939341D02*
X15338163Y-12959341D01*
X15369700Y-10137300D02*
X15389700Y-10157300D01*
X15389700Y-10137300D02*
X15369700Y-10157300D01*
X15382400Y-10543700D02*
X15402400Y-10563700D01*
X15402400Y-10543700D02*
X15382400Y-10563700D01*
X15382400Y-11407300D02*
X15402400Y-11427300D01*
X15402400Y-11407300D02*
X15382400Y-11427300D01*
X15407800Y-9438800D02*
X15427800Y-9458800D01*
X15427800Y-9438800D02*
X15407800Y-9458800D01*
X15413750Y-11293000D02*
X15433750Y-11313000D01*
X15433750Y-11293000D02*
X15413750Y-11313000D01*
X15420500Y-11877200D02*
X15440500Y-11897200D01*
X15440500Y-11877200D02*
X15420500Y-11897200D01*
X15420500Y-11978800D02*
X15440500Y-11998800D01*
X15440500Y-11978800D02*
X15420500Y-11998800D01*
X15433251Y-10594500D02*
X15453251Y-10614500D01*
X15453251Y-10594500D02*
X15433251Y-10614500D01*
X15441373Y-13025018D02*
X15461373Y-13045018D01*
X15461373Y-13025018D02*
X15441373Y-13045018D01*
X15445900Y-9781700D02*
X15465900Y-9801700D01*
X15465900Y-9781700D02*
X15445900Y-9801700D01*
X15445900Y-10378600D02*
X15465900Y-10398600D01*
X15465900Y-10378600D02*
X15445900Y-10398600D01*
X15445900Y-10823100D02*
X15465900Y-10843100D01*
X15465900Y-10823100D02*
X15445900Y-10843100D01*
X15458600Y-9070500D02*
X15478600Y-9090500D01*
X15478600Y-9070500D02*
X15458600Y-9090500D01*
X15471300Y-9591200D02*
X15491300Y-9611200D01*
X15491300Y-9591200D02*
X15471300Y-9611200D01*
X15471300Y-9654700D02*
X15491300Y-9674700D01*
X15491300Y-9654700D02*
X15471300Y-9674700D01*
X15471300Y-9718200D02*
X15491300Y-9738200D01*
X15491300Y-9718200D02*
X15471300Y-9738200D01*
X15489322Y-10566439D02*
X15509322Y-10586439D01*
X15509322Y-10566439D02*
X15489322Y-10586439D01*
X15496699Y-11407300D02*
X15516699Y-11427300D01*
X15516699Y-11407300D02*
X15496699Y-11427300D01*
X15496700Y-13071000D02*
X15516700Y-13091000D01*
X15516700Y-13071000D02*
X15496700Y-13091000D01*
X15502651Y-11267600D02*
X15522651Y-11287600D01*
X15522651Y-11267600D02*
X15502651Y-11287600D01*
X15546725Y-13033199D02*
X15566725Y-13053199D01*
X15566725Y-13033199D02*
X15546725Y-13053199D01*
X15547499Y-9057800D02*
X15567499Y-9077800D01*
X15567499Y-9057800D02*
X15547499Y-9077800D01*
X15547500Y-9222900D02*
X15567500Y-9242900D01*
X15567500Y-9222900D02*
X15547500Y-9242900D01*
X15547500Y-10594500D02*
X15567500Y-10614500D01*
X15567500Y-10594500D02*
X15547500Y-10614500D01*
X15572900Y-11267600D02*
X15592900Y-11287600D01*
X15592900Y-11267600D02*
X15572900Y-11287600D01*
X15585600Y-10810400D02*
X15605600Y-10830400D01*
X15605600Y-10810400D02*
X15585600Y-10830400D01*
X15598300Y-13109100D02*
X15618300Y-13129100D01*
X15618300Y-13109100D02*
X15598300Y-13129100D01*
X15649100Y-11140600D02*
X15669100Y-11160600D01*
X15669100Y-11140600D02*
X15649100Y-11160600D01*
X15649100Y-11343800D02*
X15669100Y-11363800D01*
X15669100Y-11343800D02*
X15649100Y-11363800D01*
X15655450Y-12620150D02*
X15675450Y-12640150D01*
X15675450Y-12620150D02*
X15655450Y-12640150D01*
X15676168Y-12247168D02*
X15696168Y-12267168D01*
X15696168Y-12247168D02*
X15676168Y-12267168D01*
X15687200Y-12931300D02*
X15707200Y-12951300D01*
X15707200Y-12931300D02*
X15687200Y-12951300D01*
X15699900Y-10797700D02*
X15719900Y-10817700D01*
X15719900Y-10797700D02*
X15699900Y-10817700D01*
X15712600Y-10537350D02*
X15732600Y-10557350D01*
X15732600Y-10537350D02*
X15712600Y-10557350D01*
X15712600Y-11343800D02*
X15732600Y-11363800D01*
X15732600Y-11343800D02*
X15712600Y-11363800D01*
X15725300Y-11788300D02*
X15745300Y-11808300D01*
X15745300Y-11788300D02*
X15725300Y-11808300D01*
X15738000Y-11272781D02*
X15758000Y-11292781D01*
X15758000Y-11272781D02*
X15738000Y-11292781D01*
X15750700Y-12715400D02*
X15770700Y-12735400D01*
X15770700Y-12715400D02*
X15750700Y-12735400D01*
X15776100Y-10537350D02*
X15796100Y-10557350D01*
X15796100Y-10537350D02*
X15776100Y-10557350D01*
X15814200Y-11293000D02*
X15834200Y-11313000D01*
X15834200Y-11293000D02*
X15814200Y-11313000D01*
X15833918Y-11903945D02*
X15853918Y-11923945D01*
X15853918Y-11903945D02*
X15833918Y-11923945D01*
X15838003Y-10594383D02*
X15858003Y-10614383D01*
X15858003Y-10594383D02*
X15838003Y-10614383D01*
X15839600Y-10823100D02*
X15859600Y-10843100D01*
X15859600Y-10823100D02*
X15839600Y-10843100D01*
X15839600Y-12474100D02*
X15859600Y-12494100D01*
X15859600Y-12474100D02*
X15839600Y-12494100D01*
X15840443Y-11841584D02*
X15860443Y-11861584D01*
X15860443Y-11841584D02*
X15840443Y-11861584D01*
X15865000Y-11572400D02*
X15885000Y-11592400D01*
X15885000Y-11572400D02*
X15865000Y-11592400D01*
X15872661Y-11988378D02*
X15892661Y-12008378D01*
X15892661Y-11988378D02*
X15872661Y-12008378D01*
X15890400Y-10785000D02*
X15910400Y-10805000D01*
X15910400Y-10785000D02*
X15890400Y-10805000D01*
X15903100Y-11915300D02*
X15923100Y-11935300D01*
X15923100Y-11915300D02*
X15903100Y-11935300D01*
X15915800Y-10537350D02*
X15935800Y-10557350D01*
X15935800Y-10537350D02*
X15915800Y-10557350D01*
X15941200Y-12080400D02*
X15961200Y-12100400D01*
X15961200Y-12080400D02*
X15941200Y-12100400D01*
X15941200Y-12143900D02*
X15961200Y-12163900D01*
X15961200Y-12143900D02*
X15941200Y-12163900D01*
X15978500Y-10537350D02*
X15998500Y-10557350D01*
X15998500Y-10537350D02*
X15978500Y-10557350D01*
X16019128Y-12714881D02*
X16039128Y-12734881D01*
X16039128Y-12714881D02*
X16019128Y-12734881D01*
X16030100Y-10848500D02*
X16050100Y-10868500D01*
X16050100Y-10848500D02*
X16030100Y-10868500D01*
X16030100Y-10931450D02*
X16050100Y-10951450D01*
X16050100Y-10931450D02*
X16030100Y-10951450D01*
X16030100Y-11502150D02*
X16050100Y-11522150D01*
X16050100Y-11502150D02*
X16030100Y-11522150D01*
X16030100Y-11744250D02*
X16050100Y-11764250D01*
X16050100Y-11744250D02*
X16030100Y-11764250D01*
X16055500Y-9553100D02*
X16075500Y-9573100D01*
X16075500Y-9553100D02*
X16055500Y-9573100D01*
X16055500Y-12232800D02*
X16075500Y-12252800D01*
X16075500Y-12232800D02*
X16055500Y-12252800D01*
X16055500Y-12410600D02*
X16075500Y-12430600D01*
X16075500Y-12410600D02*
X16055500Y-12430600D01*
X16061451Y-9032400D02*
X16081451Y-9052400D01*
X16081451Y-9032400D02*
X16061451Y-9052400D01*
X16061850Y-9813450D02*
X16081850Y-9833450D01*
X16081850Y-9813450D02*
X16061850Y-9833450D01*
X16074550Y-9673750D02*
X16094550Y-9693750D01*
X16094550Y-9673750D02*
X16074550Y-9693750D01*
X16081752Y-12717982D02*
X16101752Y-12737982D01*
X16101752Y-12717982D02*
X16081752Y-12737982D01*
X16093600Y-9159400D02*
X16113600Y-9179400D01*
X16113600Y-9159400D02*
X16093600Y-9179400D01*
X16099950Y-9280049D02*
X16119950Y-9300049D01*
X16119950Y-9280049D02*
X16099950Y-9300049D01*
X16099950Y-9889650D02*
X16119950Y-9909650D01*
X16119950Y-9889650D02*
X16099950Y-9909650D01*
X16106300Y-11686700D02*
X16126300Y-11706700D01*
X16126300Y-11686700D02*
X16106300Y-11706700D01*
X16107007Y-9607893D02*
X16127007Y-9627893D01*
X16127007Y-9607893D02*
X16107007Y-9627893D01*
X16131700Y-9095900D02*
X16151700Y-9115900D01*
X16151700Y-9095900D02*
X16131700Y-9115900D01*
X16131700Y-13325000D02*
X16151700Y-13345000D01*
X16151700Y-13325000D02*
X16131700Y-13345000D01*
X16131700Y-13426600D02*
X16151700Y-13446600D01*
X16151700Y-13426600D02*
X16131700Y-13446600D01*
X16131700Y-13528200D02*
X16151700Y-13548200D01*
X16151700Y-13528200D02*
X16131700Y-13548200D01*
X16131700Y-13629800D02*
X16151700Y-13649800D01*
X16151700Y-13629800D02*
X16131700Y-13649800D01*
X16131700Y-13731400D02*
X16151700Y-13751400D01*
X16151700Y-13731400D02*
X16131700Y-13751400D01*
X16131700Y-13833000D02*
X16151700Y-13853000D01*
X16151700Y-13833000D02*
X16131700Y-13853000D01*
X16144400Y-8968900D02*
X16164400Y-8988900D01*
X16164400Y-8968900D02*
X16144400Y-8988900D01*
X16144400Y-10200800D02*
X16164400Y-10220800D01*
X16164400Y-10200800D02*
X16144400Y-10220800D01*
X16144400Y-12715400D02*
X16164400Y-12735400D01*
X16164400Y-12715400D02*
X16144400Y-12735400D01*
X16157100Y-9826150D02*
X16177100Y-9846150D01*
X16177100Y-9826150D02*
X16157100Y-9846150D01*
X16157100Y-10810400D02*
X16177100Y-10830400D01*
X16177100Y-10810400D02*
X16157100Y-10830400D01*
X16182500Y-10255300D02*
X16202500Y-10275300D01*
X16202500Y-10255300D02*
X16182500Y-10275300D01*
X16188451Y-10391300D02*
X16208451Y-10411300D01*
X16208451Y-10391300D02*
X16188451Y-10411300D01*
X16207900Y-8905400D02*
X16227900Y-8925400D01*
X16227900Y-8905400D02*
X16207900Y-8925400D01*
X16214649Y-12016900D02*
X16234649Y-12036900D01*
X16234649Y-12016900D02*
X16214649Y-12036900D01*
X16233300Y-12563000D02*
X16253300Y-12583000D01*
X16253300Y-12563000D02*
X16233300Y-12583000D01*
X16233300Y-12715400D02*
X16253300Y-12735400D01*
X16253300Y-12715400D02*
X16233300Y-12735400D01*
X16233300Y-13325000D02*
X16253300Y-13345000D01*
X16253300Y-13325000D02*
X16233300Y-13345000D01*
X16233300Y-13426600D02*
X16253300Y-13446600D01*
X16253300Y-13426600D02*
X16233300Y-13446600D01*
X16233300Y-13528200D02*
X16253300Y-13548200D01*
X16253300Y-13528200D02*
X16233300Y-13548200D01*
X16233300Y-13629800D02*
X16253300Y-13649800D01*
X16253300Y-13629800D02*
X16233300Y-13649800D01*
X16233300Y-13731400D02*
X16253300Y-13751400D01*
X16253300Y-13731400D02*
X16233300Y-13751400D01*
X16233300Y-13833000D02*
X16253300Y-13853000D01*
X16253300Y-13833000D02*
X16233300Y-13853000D01*
X16296800Y-12258200D02*
X16316800Y-12278200D01*
X16316800Y-12258200D02*
X16296800Y-12278200D01*
X16347600Y-10556400D02*
X16367600Y-10576400D01*
X16367600Y-10556400D02*
X16347600Y-10576400D01*
X16373000Y-9807100D02*
X16393000Y-9827100D01*
X16393000Y-9807100D02*
X16373000Y-9827100D01*
X16373000Y-12258200D02*
X16393000Y-12278200D01*
X16393000Y-12258200D02*
X16373000Y-12278200D01*
X16398400Y-12728100D02*
X16418400Y-12748100D01*
X16418400Y-12728100D02*
X16398400Y-12748100D01*
X16449200Y-12258200D02*
X16469200Y-12278200D01*
X16469200Y-12258200D02*
X16449200Y-12278200D01*
X16500000Y-10264300D02*
X16520000Y-10284300D01*
X16520000Y-10264300D02*
X16500000Y-10284300D01*
X16512700Y-10569100D02*
X16532700Y-10589100D01*
X16532700Y-10569100D02*
X16512700Y-10589100D01*
X16512700Y-12944000D02*
X16532700Y-12964000D01*
X16532700Y-12944000D02*
X16512700Y-12964000D01*
X16534200Y-12260200D02*
X16554200Y-12280200D01*
X16554200Y-12260200D02*
X16534200Y-12280200D01*
X16556548Y-11692448D02*
X16576548Y-11712448D01*
X16576548Y-11692448D02*
X16556548Y-11712448D01*
X16614300Y-12258200D02*
X16634300Y-12278200D01*
X16634300Y-12258200D02*
X16614300Y-12278200D01*
X16632748Y-11959148D02*
X16652748Y-11979148D01*
X16652748Y-11959148D02*
X16632748Y-11979148D01*
X16639700Y-12728100D02*
X16659700Y-12748100D01*
X16659700Y-12728100D02*
X16639700Y-12748100D01*
X16639700Y-13248800D02*
X16659700Y-13268800D01*
X16659700Y-13248800D02*
X16639700Y-13268800D01*
X16690500Y-12690000D02*
X16710500Y-12710000D01*
X16710500Y-12690000D02*
X16690500Y-12710000D01*
X16754000Y-11420000D02*
X16774000Y-11440000D01*
X16774000Y-11420000D02*
X16754000Y-11440000D01*
X16759950Y-12042300D02*
X16779950Y-12062300D01*
X16779950Y-12042300D02*
X16759950Y-12062300D01*
X16760350Y-9337200D02*
X16780350Y-9357200D01*
X16780350Y-9337200D02*
X16760350Y-9357200D01*
X16767991Y-11293849D02*
X16787991Y-11313849D01*
X16787991Y-11293849D02*
X16767991Y-11313849D01*
X16779265Y-11887499D02*
X16799265Y-11907499D01*
X16799265Y-11887499D02*
X16779265Y-11907499D01*
X16779400Y-10886600D02*
X16799400Y-10906600D01*
X16799400Y-10886600D02*
X16779400Y-10906600D01*
X16817500Y-8892700D02*
X16837500Y-8912700D01*
X16837500Y-8892700D02*
X16817500Y-8912700D01*
X16817500Y-8968900D02*
X16837500Y-8988900D01*
X16837500Y-8968900D02*
X16817500Y-8988900D01*
X16817500Y-9095900D02*
X16837500Y-9115900D01*
X16837500Y-9095900D02*
X16817500Y-9115900D01*
X16830200Y-9553100D02*
X16850200Y-9573100D01*
X16850200Y-9553100D02*
X16830200Y-9573100D01*
X16830200Y-9743600D02*
X16850200Y-9763600D01*
X16850200Y-9743600D02*
X16830200Y-9763600D01*
X16830200Y-13680600D02*
X16850200Y-13700600D01*
X16850200Y-13680600D02*
X16830200Y-13700600D01*
X16995300Y-12474100D02*
X17015300Y-12494100D01*
X17015300Y-12474100D02*
X16995300Y-12494100D01*
X17014350Y-11502150D02*
X17034350Y-11522150D01*
X17034350Y-11502150D02*
X17014350Y-11522150D01*
X17020700Y-11388250D02*
X17040700Y-11408250D01*
X17040700Y-11388250D02*
X17020700Y-11408250D01*
X17300100Y-10937400D02*
X17320100Y-10957400D01*
X17320100Y-10937400D02*
X17300100Y-10957400D01*
X17300100Y-11369200D02*
X17320100Y-11389200D01*
X17320100Y-11369200D02*
X17300100Y-11389200D01*
X17325500Y-11305700D02*
X17345500Y-11325700D01*
X17345500Y-11305700D02*
X17325500Y-11325700D01*
X17338200Y-10772300D02*
X17358200Y-10792300D01*
X17358200Y-10772300D02*
X17338200Y-10792300D01*
X17389000Y-9248300D02*
X17409000Y-9268300D01*
X17409000Y-9248300D02*
X17389000Y-9268300D01*
X17389000Y-9654700D02*
X17409000Y-9674700D01*
X17409000Y-9654700D02*
X17389000Y-9674700D01*
X17446150Y-10207150D02*
X17466150Y-10227150D01*
X17466150Y-10207150D02*
X17446150Y-10227150D01*
X17516000Y-10543700D02*
X17536000Y-10563700D01*
X17536000Y-10543700D02*
X17516000Y-10563700D01*
X17516000Y-10696100D02*
X17536000Y-10716100D01*
X17536000Y-10696100D02*
X17516000Y-10716100D01*
X17516000Y-10848500D02*
X17536000Y-10868500D01*
X17536000Y-10848500D02*
X17516000Y-10868500D01*
X17516000Y-11159252D02*
X17536000Y-11179252D01*
X17536000Y-11159252D02*
X17516000Y-11179252D01*
X17598550Y-10207150D02*
X17618550Y-10227150D01*
X17618550Y-10207150D02*
X17598550Y-10227150D01*
X17757300Y-10797699D02*
X17777300Y-10817699D01*
X17777300Y-10797699D02*
X17757300Y-10817699D01*
X17782700Y-11458100D02*
X17802700Y-11478100D01*
X17802700Y-11458100D02*
X17782700Y-11478100D01*
X17789050Y-9229250D02*
X17809050Y-9249250D01*
X17809050Y-9229250D02*
X17789050Y-9249250D01*
X17846200Y-11115200D02*
X17866200Y-11135200D01*
X17866200Y-11115200D02*
X17846200Y-11135200D01*
X17871600Y-11216800D02*
X17891600Y-11236800D01*
X17891600Y-11216800D02*
X17871600Y-11236800D01*
X17871600Y-11572400D02*
X17891600Y-11592400D01*
X17891600Y-11572400D02*
X17871600Y-11592400D01*
X17884300Y-7495700D02*
X17904300Y-7515700D01*
X17904300Y-7495700D02*
X17884300Y-7515700D01*
X17998600Y-11166000D02*
X18018600Y-11186000D01*
X18018600Y-11166000D02*
X17998600Y-11186000D01*
X18036700Y-8206900D02*
X18056700Y-8226900D01*
X18056700Y-8206900D02*
X18036700Y-8226900D01*
X18036700Y-10150000D02*
X18056700Y-10170000D01*
X18056700Y-10150000D02*
X18036700Y-10170000D01*
X18036700Y-10353200D02*
X18056700Y-10373200D01*
X18056700Y-10353200D02*
X18036700Y-10373200D01*
X18049400Y-11089800D02*
X18069400Y-11109800D01*
X18069400Y-11089800D02*
X18049400Y-11109800D01*
X18087500Y-11140600D02*
X18107500Y-11160600D01*
X18107500Y-11140600D02*
X18087500Y-11160600D01*
X18138300Y-10442100D02*
X18158300Y-10462100D01*
X18158300Y-10442100D02*
X18138300Y-10462100D01*
X18150200Y-11102500D02*
X18170200Y-11122500D01*
X18170200Y-11102500D02*
X18150200Y-11122500D01*
X18176400Y-11280300D02*
X18196400Y-11300300D01*
X18196400Y-11280300D02*
X18176400Y-11300300D01*
X18201800Y-10658000D02*
X18221800Y-10678000D01*
X18221800Y-10658000D02*
X18201800Y-10678000D01*
X18239900Y-8880000D02*
X18259900Y-8900000D01*
X18259900Y-8880000D02*
X18239900Y-8900000D01*
X18239900Y-9007000D02*
X18259900Y-9027000D01*
X18259900Y-9007000D02*
X18239900Y-9027000D01*
X18252600Y-9769000D02*
X18272600Y-9789000D01*
X18272600Y-9769000D02*
X18252600Y-9789000D01*
X18278000Y-8143400D02*
X18298000Y-8163400D01*
X18298000Y-8143400D02*
X18278000Y-8163400D01*
X18290700Y-10150000D02*
X18310700Y-10170000D01*
X18310700Y-10150000D02*
X18290700Y-10170000D01*
X18316100Y-10594500D02*
X18336100Y-10614500D01*
X18336100Y-10594500D02*
X18316100Y-10614500D01*
X18316100Y-11000900D02*
X18336100Y-11020900D01*
X18336100Y-11000900D02*
X18316100Y-11020900D01*
X18341500Y-11280300D02*
X18361500Y-11300300D01*
X18361500Y-11280300D02*
X18341500Y-11300300D01*
X18365783Y-10669583D02*
X18385783Y-10689583D01*
X18385783Y-10669583D02*
X18365783Y-10689583D01*
X18392300Y-7559200D02*
X18412300Y-7579200D01*
X18412300Y-7559200D02*
X18392300Y-7579200D01*
X18418817Y-10722617D02*
X18438817Y-10742617D01*
X18438817Y-10722617D02*
X18418817Y-10742617D01*
X18760600Y-10619900D02*
X18780600Y-10639900D01*
X18780600Y-10619900D02*
X18760600Y-10639900D01*
X18760600Y-11000900D02*
X18780600Y-11020900D01*
X18780600Y-11000900D02*
X18760600Y-11020900D01*
X18760600Y-11254900D02*
X18780600Y-11274900D01*
X18780600Y-11254900D02*
X18760600Y-11274900D01*
X18760601Y-10365900D02*
X18780601Y-10385900D01*
X18780601Y-10365900D02*
X18760601Y-10385900D01*
X18874900Y-9007000D02*
X18894900Y-9027000D01*
X18894900Y-9007000D02*
X18874900Y-9027000D01*
X18887600Y-8880000D02*
X18907600Y-8900000D01*
X18907600Y-8880000D02*
X18887600Y-8900000D01*
X18913000Y-9642000D02*
X18933000Y-9662000D01*
X18933000Y-9642000D02*
X18913000Y-9662000D01*
X18913000Y-9769000D02*
X18933000Y-9789000D01*
X18933000Y-9769000D02*
X18913000Y-9789000D01*
X18976500Y-10492900D02*
X18996500Y-10512900D01*
X18996500Y-10492900D02*
X18976500Y-10512900D01*
X18976500Y-11127900D02*
X18996500Y-11147900D01*
X18996500Y-11127900D02*
X18976500Y-11147900D01*
X19484500Y-9057800D02*
X19504500Y-9077800D01*
X19504500Y-9057800D02*
X19484500Y-9077800D01*
X19522600Y-9680100D02*
X19542600Y-9700100D01*
X19542600Y-9680100D02*
X19522600Y-9700100D01*
X19636900Y-10492899D02*
X19656900Y-10512899D01*
X19656900Y-10492899D02*
X19636900Y-10512899D01*
X19636900Y-11127900D02*
X19656900Y-11147900D01*
X19656900Y-11127900D02*
X19636900Y-11147900D01*
X19878200Y-8994300D02*
X19898200Y-9014300D01*
X19898200Y-8994300D02*
X19878200Y-9014300D01*
X19878200Y-9184800D02*
X19898200Y-9204800D01*
X19898200Y-9184800D02*
X19878200Y-9204800D01*
X19878200Y-9375300D02*
X19898200Y-9395300D01*
X19898200Y-9375300D02*
X19878200Y-9395300D01*
X20246500Y-9743600D02*
X20266500Y-9763600D01*
X20266500Y-9743600D02*
X20246500Y-9763600D01*
X20475100Y-9134000D02*
X20495100Y-9154000D01*
X20495100Y-9134000D02*
X20475100Y-9154000D01*
X20551300Y-8486300D02*
X20571300Y-8506300D01*
X20571300Y-8486300D02*
X20551300Y-8506300D01*
X20557650Y-8092600D02*
X20577650Y-8112600D01*
X20577650Y-8092600D02*
X20557650Y-8112600D01*
X20557650Y-8156100D02*
X20577650Y-8176100D01*
X20577650Y-8156100D02*
X20557650Y-8176100D01*
X20557650Y-8225950D02*
X20577650Y-8245950D01*
X20577650Y-8225950D02*
X20557650Y-8245950D01*
X20557650Y-8295800D02*
X20577650Y-8315800D01*
X20577650Y-8295800D02*
X20557650Y-8315800D01*
X20557650Y-8359300D02*
X20577650Y-8379300D01*
X20577650Y-8359300D02*
X20557650Y-8379300D01*
X20602100Y-9134000D02*
X20622100Y-9154000D01*
X20622100Y-9134000D02*
X20602100Y-9154000D01*
X20932300Y-8486300D02*
X20952300Y-8506300D01*
X20952300Y-8486300D02*
X20932300Y-8506300D01*
X21072000Y-8981600D02*
X21092000Y-9001600D01*
X21092000Y-8981600D02*
X21072000Y-9001600D01*
X21186300Y-14112400D02*
X21206300Y-14132400D01*
X21206300Y-14112400D02*
X21186300Y-14132400D01*
X21186300Y-14239400D02*
X21206300Y-14259400D01*
X21206300Y-14239400D02*
X21186300Y-14259400D01*
X21186300Y-14366400D02*
X21206300Y-14386400D01*
X21206300Y-14366400D02*
X21186300Y-14386400D01*
X21186300Y-14493400D02*
X21206300Y-14513400D01*
X21206300Y-14493400D02*
X21186300Y-14513400D01*
X21186300Y-14620400D02*
X21206300Y-14640400D01*
X21206300Y-14620400D02*
X21186300Y-14640400D01*
X21605400Y-14112400D02*
X21625400Y-14132400D01*
X21625400Y-14112400D02*
X21605400Y-14132400D01*
X21605400Y-14239400D02*
X21625400Y-14259400D01*
X21625400Y-14239400D02*
X21605400Y-14259400D01*
X21605400Y-14366400D02*
X21625400Y-14386400D01*
X21625400Y-14366400D02*
X21605400Y-14386400D01*
X21605400Y-14493400D02*
X21625400Y-14513400D01*
X21625400Y-14493400D02*
X21605400Y-14513400D01*
X21605400Y-14620400D02*
X21625400Y-14640400D01*
X21625400Y-14620400D02*
X21605400Y-14640400D01*
X17919000Y-10718100D02*
X17939000Y-10738100D01*
X17939000Y-10718100D02*
X17919000Y-10738100D01*
X17919000Y-10823100D02*
X17939000Y-10843100D01*
X17939000Y-10823100D02*
X17919000Y-10843100D01*
X17919000Y-10928100D02*
X17939000Y-10948100D01*
X17939000Y-10928100D02*
X17919000Y-10948100D01*
X18024000Y-10718100D02*
X18044000Y-10738100D01*
X18044000Y-10718100D02*
X18024000Y-10738100D01*
X18024000Y-10823100D02*
X18044000Y-10843100D01*
X18044000Y-10823100D02*
X18024000Y-10843100D01*
X18024000Y-10928100D02*
X18044000Y-10948100D01*
X18044000Y-10928100D02*
X18024000Y-10948100D01*
X18129000Y-10718100D02*
X18149000Y-10738100D01*
X18149000Y-10718100D02*
X18129000Y-10738100D01*
X18129000Y-10823100D02*
X18149000Y-10843100D01*
X18149000Y-10823100D02*
X18129000Y-10843100D01*
X18129000Y-10928100D02*
X18149000Y-10948100D01*
X18149000Y-10928100D02*
X18129000Y-10948100D01*
X7720100Y-8916600D02*
X7740100Y-8936600D01*
X7740100Y-8916600D02*
X7720100Y-8936600D01*
X7720100Y-9046600D02*
X7740100Y-9066600D01*
X7740100Y-9046600D02*
X7720100Y-9066600D01*
X7830100Y-8916600D02*
X7850100Y-8936600D01*
X7850100Y-8916600D02*
X7830100Y-8936600D01*
X7830100Y-9046600D02*
X7850100Y-9066600D01*
X7850100Y-9046600D02*
X7830100Y-9066600D01*
X7720100Y-8548300D02*
X7740100Y-8568300D01*
X7740100Y-8548300D02*
X7720100Y-8568300D01*
X7720100Y-8678300D02*
X7740100Y-8698300D01*
X7740100Y-8678300D02*
X7720100Y-8698300D01*
X7830100Y-8548300D02*
X7850100Y-8568300D01*
X7850100Y-8548300D02*
X7830100Y-8568300D01*
X7830100Y-8678300D02*
X7850100Y-8698300D01*
X7850100Y-8678300D02*
X7830100Y-8698300D01*
X7720100Y-9284900D02*
X7740100Y-9304900D01*
X7740100Y-9284900D02*
X7720100Y-9304900D01*
X7720100Y-9414900D02*
X7740100Y-9434900D01*
X7740100Y-9414900D02*
X7720100Y-9434900D01*
X7830100Y-9284900D02*
X7850100Y-9304900D01*
X7850100Y-9284900D02*
X7830100Y-9304900D01*
X7830100Y-9414900D02*
X7850100Y-9434900D01*
X7850100Y-9414900D02*
X7830100Y-9434900D01*
X7779700Y-14325600D02*
G75*
G03X7779700Y-14325600I-20000J0D01*
G01*
X7817800Y-11353800D02*
G75*
G03X7817800Y-11353800I-20000J0D01*
G01*
X7817800Y-11607800D02*
G75*
G03X7817800Y-11607800I-20000J0D01*
G01*
X7817800Y-11861800D02*
G75*
G03X7817800Y-11861800I-20000J0D01*
G01*
X7817800Y-12115800D02*
G75*
G03X7817800Y-12115800I-20000J0D01*
G01*
X7894000Y-13284200D02*
G75*
G03X7894000Y-13284200I-20000J0D01*
G01*
X7894000Y-13411200D02*
G75*
G03X7894000Y-13411200I-20000J0D01*
G01*
X8021000Y-13284200D02*
G75*
G03X8021000Y-13284200I-20000J0D01*
G01*
X8021000Y-13411200D02*
G75*
G03X8021000Y-13411200I-20000J0D01*
G01*
X8071800Y-11353800D02*
G75*
G03X8071800Y-11353800I-20000J0D01*
G01*
X8071800Y-11607800D02*
G75*
G03X8071800Y-11607800I-20000J0D01*
G01*
X8071800Y-11861800D02*
G75*
G03X8071800Y-11861800I-20000J0D01*
G01*
X8071800Y-12115800D02*
G75*
G03X8071800Y-12115800I-20000J0D01*
G01*
X8160700Y-14681200D02*
G75*
G03X8160700Y-14681200I-20000J0D01*
G01*
X8300400Y-14325600D02*
G75*
G03X8300400Y-14325600I-20000J0D01*
G01*
X8300400Y-14681200D02*
G75*
G03X8300400Y-14681200I-20000J0D01*
G01*
X8325800Y-11353800D02*
G75*
G03X8325800Y-11353800I-20000J0D01*
G01*
X8325800Y-11607800D02*
G75*
G03X8325800Y-11607800I-20000J0D01*
G01*
X8325800Y-11861800D02*
G75*
G03X8325800Y-11861800I-20000J0D01*
G01*
X8325800Y-12115800D02*
G75*
G03X8325800Y-12115800I-20000J0D01*
G01*
X8427400Y-14325600D02*
G75*
G03X8427400Y-14325600I-20000J0D01*
G01*
X8427400Y-14681200D02*
G75*
G03X8427400Y-14681200I-20000J0D01*
G01*
X8592500Y-13284200D02*
G75*
G03X8592500Y-13284200I-20000J0D01*
G01*
X8592500Y-13411200D02*
G75*
G03X8592500Y-13411200I-20000J0D01*
G01*
X8732200Y-12585700D02*
G75*
G03X8732200Y-12585700I-20000J0D01*
G01*
X8732200Y-12712700D02*
G75*
G03X8732200Y-12712700I-20000J0D01*
G01*
X8732200Y-12839700D02*
G75*
G03X8732200Y-12839700I-20000J0D01*
G01*
X8732200Y-12966700D02*
G75*
G03X8732200Y-12966700I-20000J0D01*
G01*
X8732200Y-13093700D02*
G75*
G03X8732200Y-13093700I-20000J0D01*
G01*
X8732200Y-13284200D02*
G75*
G03X8732200Y-13284200I-20000J0D01*
G01*
X8732200Y-13411200D02*
G75*
G03X8732200Y-13411200I-20000J0D01*
G01*
X8859200Y-12585700D02*
G75*
G03X8859200Y-12585700I-20000J0D01*
G01*
X8859200Y-12712700D02*
G75*
G03X8859200Y-12712700I-20000J0D01*
G01*
X8859200Y-12839700D02*
G75*
G03X8859200Y-12839700I-20000J0D01*
G01*
X8859200Y-12966700D02*
G75*
G03X8859200Y-12966700I-20000J0D01*
G01*
X8859200Y-13093700D02*
G75*
G03X8859200Y-13093700I-20000J0D01*
G01*
X8859200Y-13284200D02*
G75*
G03X8859200Y-13284200I-20000J0D01*
G01*
X8859200Y-13411200D02*
G75*
G03X8859200Y-13411200I-20000J0D01*
G01*
X8859200Y-13627100D02*
G75*
G03X8859200Y-13627100I-20000J0D01*
G01*
X8859200Y-13754100D02*
G75*
G03X8859200Y-13754100I-20000J0D01*
G01*
X8986200Y-12585700D02*
G75*
G03X8986200Y-12585700I-20000J0D01*
G01*
X8986200Y-12712700D02*
G75*
G03X8986200Y-12712700I-20000J0D01*
G01*
X8986200Y-12839700D02*
G75*
G03X8986200Y-12839700I-20000J0D01*
G01*
X8986200Y-12966700D02*
G75*
G03X8986200Y-12966700I-20000J0D01*
G01*
X8986200Y-13093700D02*
G75*
G03X8986200Y-13093700I-20000J0D01*
G01*
X8986200Y-13284200D02*
G75*
G03X8986200Y-13284200I-20000J0D01*
G01*
X8986200Y-13411200D02*
G75*
G03X8986200Y-13411200I-20000J0D01*
G01*
X8986200Y-13627100D02*
G75*
G03X8986200Y-13627100I-20000J0D01*
G01*
X8986200Y-13754100D02*
G75*
G03X8986200Y-13754100I-20000J0D01*
G01*
X9189400Y-13627100D02*
G75*
G03X9189400Y-13627100I-20000J0D01*
G01*
X9189400Y-13754100D02*
G75*
G03X9189400Y-13754100I-20000J0D01*
G01*
X9189400Y-13881100D02*
G75*
G03X9189400Y-13881100I-20000J0D01*
G01*
X9202100Y-12585700D02*
G75*
G03X9202100Y-12585700I-20000J0D01*
G01*
X9202100Y-12712700D02*
G75*
G03X9202100Y-12712700I-20000J0D01*
G01*
X9202100Y-12839700D02*
G75*
G03X9202100Y-12839700I-20000J0D01*
G01*
X9202100Y-12966700D02*
G75*
G03X9202100Y-12966700I-20000J0D01*
G01*
X9202100Y-13093700D02*
G75*
G03X9202100Y-13093700I-20000J0D01*
G01*
X9316400Y-13627100D02*
G75*
G03X9316400Y-13627100I-20000J0D01*
G01*
X9316400Y-13754100D02*
G75*
G03X9316400Y-13754100I-20000J0D01*
G01*
X9316400Y-13881100D02*
G75*
G03X9316400Y-13881100I-20000J0D01*
G01*
X9329100Y-12585700D02*
G75*
G03X9329100Y-12585700I-20000J0D01*
G01*
X9329100Y-12712700D02*
G75*
G03X9329100Y-12712700I-20000J0D01*
G01*
X9329100Y-12839700D02*
G75*
G03X9329100Y-12839700I-20000J0D01*
G01*
X9329100Y-12966700D02*
G75*
G03X9329100Y-12966700I-20000J0D01*
G01*
X9329100Y-13093700D02*
G75*
G03X9329100Y-13093700I-20000J0D01*
G01*
X9456100Y-12585700D02*
G75*
G03X9456100Y-12585700I-20000J0D01*
G01*
X9456100Y-12712700D02*
G75*
G03X9456100Y-12712700I-20000J0D01*
G01*
X9456100Y-12839700D02*
G75*
G03X9456100Y-12839700I-20000J0D01*
G01*
X9456100Y-12966700D02*
G75*
G03X9456100Y-12966700I-20000J0D01*
G01*
X9456100Y-13093700D02*
G75*
G03X9456100Y-13093700I-20000J0D01*
G01*
X9862500Y-11353800D02*
G75*
G03X9862500Y-11353800I-20000J0D01*
G01*
X9862500Y-11607800D02*
G75*
G03X9862500Y-11607800I-20000J0D01*
G01*
X9862500Y-11861800D02*
G75*
G03X9862500Y-11861800I-20000J0D01*
G01*
X9862500Y-12115800D02*
G75*
G03X9862500Y-12115800I-20000J0D01*
G01*
X10116500Y-11353800D02*
G75*
G03X10116500Y-11353800I-20000J0D01*
G01*
X10116500Y-11607800D02*
G75*
G03X10116500Y-11607800I-20000J0D01*
G01*
X10116500Y-11861800D02*
G75*
G03X10116500Y-11861800I-20000J0D01*
G01*
X10116500Y-12115800D02*
G75*
G03X10116500Y-12115800I-20000J0D01*
G01*
X10370500Y-11353800D02*
G75*
G03X10370500Y-11353800I-20000J0D01*
G01*
X10370500Y-11607800D02*
G75*
G03X10370500Y-11607800I-20000J0D01*
G01*
X10370500Y-11861800D02*
G75*
G03X10370500Y-11861800I-20000J0D01*
G01*
X10370500Y-12115800D02*
G75*
G03X10370500Y-12115800I-20000J0D01*
G01*
X10472100Y-14287500D02*
G75*
G03X10472100Y-14287500I-20000J0D01*
G01*
X10764200Y-12585700D02*
G75*
G03X10764200Y-12585700I-20000J0D01*
G01*
X10764200Y-12712700D02*
G75*
G03X10764200Y-12712700I-20000J0D01*
G01*
X10764200Y-12839700D02*
G75*
G03X10764200Y-12839700I-20000J0D01*
G01*
X10764200Y-12966700D02*
G75*
G03X10764200Y-12966700I-20000J0D01*
G01*
X10764200Y-13093700D02*
G75*
G03X10764200Y-13093700I-20000J0D01*
G01*
X10891200Y-12585700D02*
G75*
G03X10891200Y-12585700I-20000J0D01*
G01*
X10891200Y-12712700D02*
G75*
G03X10891200Y-12712700I-20000J0D01*
G01*
X10891200Y-12839700D02*
G75*
G03X10891200Y-12839700I-20000J0D01*
G01*
X10891200Y-12966700D02*
G75*
G03X10891200Y-12966700I-20000J0D01*
G01*
X10891200Y-13093700D02*
G75*
G03X10891200Y-13093700I-20000J0D01*
G01*
X11018200Y-12585700D02*
G75*
G03X11018200Y-12585700I-20000J0D01*
G01*
X11018200Y-12712700D02*
G75*
G03X11018200Y-12712700I-20000J0D01*
G01*
X11018200Y-12839700D02*
G75*
G03X11018200Y-12839700I-20000J0D01*
G01*
X11018200Y-12966700D02*
G75*
G03X11018200Y-12966700I-20000J0D01*
G01*
X11018200Y-13093700D02*
G75*
G03X11018200Y-13093700I-20000J0D01*
G01*
X12186600Y-5473700D02*
G75*
G03X12186600Y-5473700I-20000J0D01*
G01*
X13431200Y-6159500D02*
G75*
G03X13431200Y-6159500I-20000J0D01*
G01*
X13558200Y-6807200D02*
G75*
G03X13558200Y-6807200I-20000J0D01*
G01*
X14078900Y-6807200D02*
G75*
G03X14078900Y-6807200I-20000J0D01*
G01*
X14536100Y-14516100D02*
G75*
G03X14536100Y-14516100I-20000J0D01*
G01*
X14536100Y-14668500D02*
G75*
G03X14536100Y-14668500I-20000J0D01*
G01*
X14586900Y-6743700D02*
G75*
G03X14586900Y-6743700I-20000J0D01*
G01*
X14586900Y-7632700D02*
G75*
G03X14586900Y-7632700I-20000J0D01*
G01*
X14663100Y-14668500D02*
G75*
G03X14663100Y-14668500I-20000J0D01*
G01*
X14790100Y-14668500D02*
G75*
G03X14790100Y-14668500I-20000J0D01*
G01*
X15092360Y-7142480D02*
G75*
G03X15092360Y-7142480I-20000J0D01*
G01*
X15717200Y-7208520D02*
G75*
G03X15717200Y-7208520I-20000J0D01*
G01*
X15793400Y-5676900D02*
G75*
G03X15793400Y-5676900I-20000J0D01*
G01*
X15933100Y-7658100D02*
G75*
G03X15933100Y-7658100I-20000J0D01*
G01*
X16301400Y-5664200D02*
G75*
G03X16301400Y-5664200I-20000J0D01*
G01*
X16555400Y-5975350D02*
G75*
G03X16555400Y-5975350I-20000J0D01*
G01*
X16555400Y-6184899D02*
G75*
G03X16555400Y-6184899I-20000J0D01*
G01*
X16720500Y-14655800D02*
G75*
G03X16720500Y-14655800I-20000J0D01*
G01*
X16745900Y-7620000D02*
G75*
G03X16745900Y-7620000I-20000J0D01*
G01*
X16847500Y-14655800D02*
G75*
G03X16847500Y-14655800I-20000J0D01*
G01*
X16974500Y-14655800D02*
G75*
G03X16974500Y-14655800I-20000J0D01*
G01*
X17253900Y-7550150D02*
G75*
G03X17253900Y-7550150I-20000J0D01*
G01*
X17304700Y-6172200D02*
G75*
G03X17304700Y-6172200I-20000J0D01*
G01*
X17507900Y-7124700D02*
G75*
G03X17507900Y-7124700I-20000J0D01*
G01*
X17507900Y-7658100D02*
G75*
G03X17507900Y-7658100I-20000J0D01*
G01*
X17609500Y-8153400D02*
G75*
G03X17609500Y-8153400I-20000J0D01*
G01*
X17888900Y-8255000D02*
G75*
G03X17888900Y-8255000I-20000J0D01*
G01*
X17901600Y-5359400D02*
G75*
G03X17901600Y-5359400I-20000J0D01*
G01*
X17901600Y-6083300D02*
G75*
G03X17901600Y-6083300I-20000J0D01*
G01*
X18168299Y-6959600D02*
G75*
G03X18168299Y-6959600I-20000J0D01*
G01*
X18193700Y-7505700D02*
G75*
G03X18193700Y-7505700I-20000J0D01*
G01*
X18625500Y-11480800D02*
G75*
G03X18625500Y-11480800I-20000J0D01*
G01*
X18638200Y-6076950D02*
G75*
G03X18638200Y-6076950I-20000J0D01*
G01*
X18943000Y-6629400D02*
G75*
G03X18943000Y-6629400I-20000J0D01*
G01*
X19057300Y-7505700D02*
G75*
G03X19057300Y-7505700I-20000J0D01*
G01*
X19349400Y-7518400D02*
G75*
G03X19349400Y-7518400I-20000J0D01*
G01*
X20721000Y-11899900D02*
G75*
G03X20721000Y-11899900I-20000J0D01*
G01*
X20721000Y-12026900D02*
G75*
G03X20721000Y-12026900I-20000J0D01*
G01*
X20721000Y-12153900D02*
G75*
G03X20721000Y-12153900I-20000J0D01*
G01*
X21356000Y-11988800D02*
G75*
G03X21356000Y-11988800I-20000J0D01*
G01*
X21787800Y-14376400D02*
G75*
G03X21787800Y-14376400I-20000J0D01*
G01*
X13106400Y-14130500D02*
X13106400Y-14190500D01*
X13076400Y-14160500D02*
X13136400Y-14160500D01*
X13360400Y-14130500D02*
X13360400Y-14190500D01*
X13330400Y-14160500D02*
X13390400Y-14160500D01*
X13614400Y-14130500D02*
X13614400Y-14190500D01*
X13584400Y-14160500D02*
X13644400Y-14160500D01*
X10858500Y-6574000D02*
X10858500Y-6634000D01*
X10828500Y-6604000D02*
X10888500Y-6604000D01*
X10896600Y-6662900D02*
X10896600Y-6722900D01*
X10866600Y-6692900D02*
X10926600Y-6692900D01*
X10985500Y-6447000D02*
X10985500Y-6507000D01*
X10955500Y-6477000D02*
X11015500Y-6477000D01*
X10985500Y-6701000D02*
X10985500Y-6761000D01*
X10955500Y-6731000D02*
X11015500Y-6731000D01*
X11074400Y-6485100D02*
X11074400Y-6545100D01*
X11044400Y-6515100D02*
X11104400Y-6515100D01*
X11112500Y-6574000D02*
X11112500Y-6634000D01*
X11082500Y-6604000D02*
X11142500Y-6604000D01*
X15214600Y-14130500D02*
X15214600Y-14190500D01*
X15184600Y-14160500D02*
X15244600Y-14160500D01*
X15468600Y-14130500D02*
X15468600Y-14190500D01*
X15438600Y-14160500D02*
X15498600Y-14160500D01*
X15722600Y-14130500D02*
X15722600Y-14190500D01*
X15692600Y-14160500D02*
X15752600Y-14160500D01*
X14259681Y-13599281D02*
X14259681Y-13553319D01*
X14213719Y-13553319D01*
X14213719Y-13599281D01*
X14259681Y-13599281D01*
X14259681Y-13726281D02*
X14259681Y-13680319D01*
X14213719Y-13680319D01*
X14213719Y-13726281D01*
X14259681Y-13726281D01*
X14386681Y-13599281D02*
X14386681Y-13553319D01*
X14340719Y-13553319D01*
X14340719Y-13599281D01*
X14386681Y-13599281D01*
X14386681Y-13726281D02*
X14386681Y-13680319D01*
X14340719Y-13680319D01*
X14340719Y-13726281D01*
X14386681Y-13726281D01*
X14513681Y-13599281D02*
X14513681Y-13553319D01*
X14467719Y-13553319D01*
X14467719Y-13599281D01*
X14513681Y-13599281D01*
X14513681Y-13726281D02*
X14513681Y-13680319D01*
X14467719Y-13680319D01*
X14467719Y-13726281D01*
X14513681Y-13726281D01*
X14640681Y-13599281D02*
X14640681Y-13553319D01*
X14594719Y-13553319D01*
X14594719Y-13599281D01*
X14640681Y-13599281D01*
X14640681Y-13726281D02*
X14640681Y-13680319D01*
X14594719Y-13680319D01*
X14594719Y-13726281D01*
X14640681Y-13726281D01*
X14767681Y-13599281D02*
X14767681Y-13553319D01*
X14721719Y-13553319D01*
X14721719Y-13599281D01*
X14767681Y-13599281D01*
X14767681Y-13726281D02*
X14767681Y-13680319D01*
X14721719Y-13680319D01*
X14721719Y-13726281D01*
X14767681Y-13726281D01*
X8915400Y-10474400D02*
X8950400Y-10439400D01*
X8915400Y-10404400D01*
X8880400Y-10439400D01*
X8915400Y-10474400D01*
X9042400Y-10347400D02*
X9077400Y-10312400D01*
X9042400Y-10277400D01*
X9007400Y-10312400D01*
X9042400Y-10347400D01*
X9042400Y-10601400D02*
X9077400Y-10566400D01*
X9042400Y-10531400D01*
X9007400Y-10566400D01*
X9042400Y-10601400D01*
X9169400Y-10474400D02*
X9204400Y-10439400D01*
X9169400Y-10404400D01*
X9134400Y-10439400D01*
X9169400Y-10474400D01*
X7473950Y-6143700D02*
X7508950Y-6108700D01*
X7473950Y-6073700D01*
X7438950Y-6108700D01*
X7473950Y-6143700D01*
X7727950Y-6143700D02*
X7762950Y-6108700D01*
X7727950Y-6073700D01*
X7692950Y-6108700D01*
X7727950Y-6143700D01*
X7981950Y-6143700D02*
X8016950Y-6108700D01*
X7981950Y-6073700D01*
X7946950Y-6108700D01*
X7981950Y-6143700D01*
X8235950Y-6143700D02*
X8270950Y-6108700D01*
X8235950Y-6073700D01*
X8200950Y-6108700D01*
X8235950Y-6143700D01*
X21905995Y-6022995D02*
X21986005Y-6103005D01*
X21986005Y-6022995D02*
X21905995Y-6103005D01*
X21986005Y-6063000D02*
G75*
G03X21986005Y-6063000I-40005J0D01*
G01*
X21905995Y-6276995D02*
X21986005Y-6357005D01*
X21986005Y-6276995D02*
X21905995Y-6357005D01*
X21986005Y-6317000D02*
G75*
G03X21986005Y-6317000I-40005J0D01*
G01*
X21905995Y-6530995D02*
X21986005Y-6611005D01*
X21986005Y-6530995D02*
X21905995Y-6611005D01*
X21986005Y-6571000D02*
G75*
G03X21986005Y-6571000I-40005J0D01*
G01*
X21905995Y-6784995D02*
X21986005Y-6865005D01*
X21986005Y-6784995D02*
X21905995Y-6865005D01*
X21986005Y-6825000D02*
G75*
G03X21986005Y-6825000I-40005J0D01*
G01*
X21905995Y-7038995D02*
X21986005Y-7119005D01*
X21986005Y-7038995D02*
X21905995Y-7119005D01*
X21986005Y-7079000D02*
G75*
G03X21986005Y-7079000I-40005J0D01*
G01*
X21905995Y-7292995D02*
X21986005Y-7373005D01*
X21986005Y-7292995D02*
X21905995Y-7373005D01*
X21986005Y-7333000D02*
G75*
G03X21986005Y-7333000I-40005J0D01*
G01*
X21905995Y-7546995D02*
X21986005Y-7627005D01*
X21986005Y-7546995D02*
X21905995Y-7627005D01*
X21986005Y-7587000D02*
G75*
G03X21986005Y-7587000I-40005J0D01*
G01*
X21905995Y-7800995D02*
X21986005Y-7881005D01*
X21986005Y-7800995D02*
X21905995Y-7881005D01*
X21986005Y-7841000D02*
G75*
G03X21986005Y-7841000I-40005J0D01*
G01*
X21905995Y-8054995D02*
X21986005Y-8135005D01*
X21986005Y-8054995D02*
X21905995Y-8135005D01*
X21986005Y-8095000D02*
G75*
G03X21986005Y-8095000I-40005J0D01*
G01*
X21905995Y-8308995D02*
X21986005Y-8389005D01*
X21986005Y-8308995D02*
X21905995Y-8389005D01*
X21986005Y-8349000D02*
G75*
G03X21986005Y-8349000I-40005J0D01*
G01*
X21905995Y-8562995D02*
X21986005Y-8643005D01*
X21986005Y-8562995D02*
X21905995Y-8643005D01*
X21986005Y-8603000D02*
G75*
G03X21986005Y-8603000I-40005J0D01*
G01*
X21905995Y-8816995D02*
X21986005Y-8897005D01*
X21986005Y-8816995D02*
X21905995Y-8897005D01*
X21986005Y-8857000D02*
G75*
G03X21986005Y-8857000I-40005J0D01*
G01*
X21905995Y-9070995D02*
X21986005Y-9151005D01*
X21986005Y-9070995D02*
X21905995Y-9151005D01*
X21986005Y-9111000D02*
G75*
G03X21986005Y-9111000I-40005J0D01*
G01*
X21905995Y-9324995D02*
X21986005Y-9405005D01*
X21986005Y-9324995D02*
X21905995Y-9405005D01*
X21986005Y-9365000D02*
G75*
G03X21986005Y-9365000I-40005J0D01*
G01*
X21905995Y-9578995D02*
X21986005Y-9659005D01*
X21986005Y-9578995D02*
X21905995Y-9659005D01*
X21986005Y-9619000D02*
G75*
G03X21986005Y-9619000I-40005J0D01*
G01*
X21905995Y-9832995D02*
X21986005Y-9913005D01*
X21986005Y-9832995D02*
X21905995Y-9913005D01*
X21986005Y-9873000D02*
G75*
G03X21986005Y-9873000I-40005J0D01*
G01*
X21905995Y-10086995D02*
X21986005Y-10167005D01*
X21986005Y-10086995D02*
X21905995Y-10167005D01*
X21986005Y-10127000D02*
G75*
G03X21986005Y-10127000I-40005J0D01*
G01*
X21905995Y-10340995D02*
X21986005Y-10421005D01*
X21986005Y-10340995D02*
X21905995Y-10421005D01*
X21986005Y-10381000D02*
G75*
G03X21986005Y-10381000I-40005J0D01*
G01*
X21905995Y-10594995D02*
X21986005Y-10675005D01*
X21986005Y-10594995D02*
X21905995Y-10675005D01*
X21986005Y-10635000D02*
G75*
G03X21986005Y-10635000I-40005J0D01*
G01*
X21905995Y-10848995D02*
X21986005Y-10929005D01*
X21986005Y-10848995D02*
X21905995Y-10929005D01*
X21986005Y-10889000D02*
G75*
G03X21986005Y-10889000I-40005J0D01*
G01*
X21905995Y-11102995D02*
X21986005Y-11183005D01*
X21986005Y-11102995D02*
X21905995Y-11183005D01*
X21986005Y-11143000D02*
G75*
G03X21986005Y-11143000I-40005J0D01*
G01*
X21905995Y-11356995D02*
X21986005Y-11437005D01*
X21986005Y-11356995D02*
X21905995Y-11437005D01*
X21986005Y-11397000D02*
G75*
G03X21986005Y-11397000I-40005J0D01*
G01*
X21905995Y-11610995D02*
X21986005Y-11691005D01*
X21986005Y-11610995D02*
X21905995Y-11691005D01*
X21986005Y-11651000D02*
G75*
G03X21986005Y-11651000I-40005J0D01*
G01*
X21905995Y-11864995D02*
X21986005Y-11945005D01*
X21986005Y-11864995D02*
X21905995Y-11945005D01*
X21986005Y-11905000D02*
G75*
G03X21986005Y-11905000I-40005J0D01*
G01*
X21905995Y-12118995D02*
X21986005Y-12199005D01*
X21986005Y-12118995D02*
X21905995Y-12199005D01*
X21986005Y-12159000D02*
G75*
G03X21986005Y-12159000I-40005J0D01*
G01*
X21905995Y-12372995D02*
X21986005Y-12453005D01*
X21986005Y-12372995D02*
X21905995Y-12453005D01*
X21986005Y-12413000D02*
G75*
G03X21986005Y-12413000I-40005J0D01*
G01*
X21905995Y-12626995D02*
X21986005Y-12707005D01*
X21986005Y-12626995D02*
X21905995Y-12707005D01*
X21986005Y-12667000D02*
G75*
G03X21986005Y-12667000I-40005J0D01*
G01*
X21905995Y-12880995D02*
X21986005Y-12961005D01*
X21986005Y-12880995D02*
X21905995Y-12961005D01*
X21986005Y-12921000D02*
G75*
G03X21986005Y-12921000I-40005J0D01*
G01*
X21905995Y-13134995D02*
X21986005Y-13215005D01*
X21986005Y-13134995D02*
X21905995Y-13215005D01*
X21986005Y-13175000D02*
G75*
G03X21986005Y-13175000I-40005J0D01*
G01*
X21905995Y-13388995D02*
X21986005Y-13469005D01*
X21986005Y-13388995D02*
X21905995Y-13469005D01*
X21986005Y-13429000D02*
G75*
G03X21986005Y-13429000I-40005J0D01*
G01*
X21905995Y-13642995D02*
X21986005Y-13723005D01*
X21986005Y-13642995D02*
X21905995Y-13723005D01*
X21986005Y-13683000D02*
G75*
G03X21986005Y-13683000I-40005J0D01*
G01*
X21905995Y-13896995D02*
X21986005Y-13977005D01*
X21986005Y-13896995D02*
X21905995Y-13977005D01*
X21986005Y-13937000D02*
G75*
G03X21986005Y-13937000I-40005J0D01*
G01*
X22413995Y-6022995D02*
X22494005Y-6103005D01*
X22494005Y-6022995D02*
X22413995Y-6103005D01*
X22494005Y-6063000D02*
G75*
G03X22494005Y-6063000I-40005J0D01*
G01*
X22413995Y-6276995D02*
X22494005Y-6357005D01*
X22494005Y-6276995D02*
X22413995Y-6357005D01*
X22494005Y-6317000D02*
G75*
G03X22494005Y-6317000I-40005J0D01*
G01*
X22413995Y-6530995D02*
X22494005Y-6611005D01*
X22494005Y-6530995D02*
X22413995Y-6611005D01*
X22494005Y-6571000D02*
G75*
G03X22494005Y-6571000I-40005J0D01*
G01*
X22413995Y-6784995D02*
X22494005Y-6865005D01*
X22494005Y-6784995D02*
X22413995Y-6865005D01*
X22494005Y-6825000D02*
G75*
G03X22494005Y-6825000I-40005J0D01*
G01*
X22413995Y-7038995D02*
X22494005Y-7119005D01*
X22494005Y-7038995D02*
X22413995Y-7119005D01*
X22494005Y-7079000D02*
G75*
G03X22494005Y-7079000I-40005J0D01*
G01*
X22413995Y-7292995D02*
X22494005Y-7373005D01*
X22494005Y-7292995D02*
X22413995Y-7373005D01*
X22494005Y-7333000D02*
G75*
G03X22494005Y-7333000I-40005J0D01*
G01*
X22413995Y-7546995D02*
X22494005Y-7627005D01*
X22494005Y-7546995D02*
X22413995Y-7627005D01*
X22494005Y-7587000D02*
G75*
G03X22494005Y-7587000I-40005J0D01*
G01*
X22413995Y-7800995D02*
X22494005Y-7881005D01*
X22494005Y-7800995D02*
X22413995Y-7881005D01*
X22494005Y-7841000D02*
G75*
G03X22494005Y-7841000I-40005J0D01*
G01*
X22413995Y-8054995D02*
X22494005Y-8135005D01*
X22494005Y-8054995D02*
X22413995Y-8135005D01*
X22494005Y-8095000D02*
G75*
G03X22494005Y-8095000I-40005J0D01*
G01*
X22413995Y-8308995D02*
X22494005Y-8389005D01*
X22494005Y-8308995D02*
X22413995Y-8389005D01*
X22494005Y-8349000D02*
G75*
G03X22494005Y-8349000I-40005J0D01*
G01*
X22413995Y-8562995D02*
X22494005Y-8643005D01*
X22494005Y-8562995D02*
X22413995Y-8643005D01*
X22494005Y-8603000D02*
G75*
G03X22494005Y-8603000I-40005J0D01*
G01*
X22413995Y-8816995D02*
X22494005Y-8897005D01*
X22494005Y-8816995D02*
X22413995Y-8897005D01*
X22494005Y-8857000D02*
G75*
G03X22494005Y-8857000I-40005J0D01*
G01*
X22413995Y-9070995D02*
X22494005Y-9151005D01*
X22494005Y-9070995D02*
X22413995Y-9151005D01*
X22494005Y-9111000D02*
G75*
G03X22494005Y-9111000I-40005J0D01*
G01*
X22413995Y-9324995D02*
X22494005Y-9405005D01*
X22494005Y-9324995D02*
X22413995Y-9405005D01*
X22494005Y-9365000D02*
G75*
G03X22494005Y-9365000I-40005J0D01*
G01*
X22413995Y-9578995D02*
X22494005Y-9659005D01*
X22494005Y-9578995D02*
X22413995Y-9659005D01*
X22494005Y-9619000D02*
G75*
G03X22494005Y-9619000I-40005J0D01*
G01*
X22413995Y-9832995D02*
X22494005Y-9913005D01*
X22494005Y-9832995D02*
X22413995Y-9913005D01*
X22494005Y-9873000D02*
G75*
G03X22494005Y-9873000I-40005J0D01*
G01*
X22413995Y-10086995D02*
X22494005Y-10167005D01*
X22494005Y-10086995D02*
X22413995Y-10167005D01*
X22494005Y-10127000D02*
G75*
G03X22494005Y-10127000I-40005J0D01*
G01*
X22413995Y-10340995D02*
X22494005Y-10421005D01*
X22494005Y-10340995D02*
X22413995Y-10421005D01*
X22494005Y-10381000D02*
G75*
G03X22494005Y-10381000I-40005J0D01*
G01*
X22413995Y-10594995D02*
X22494005Y-10675005D01*
X22494005Y-10594995D02*
X22413995Y-10675005D01*
X22494005Y-10635000D02*
G75*
G03X22494005Y-10635000I-40005J0D01*
G01*
X22413995Y-10848995D02*
X22494005Y-10929005D01*
X22494005Y-10848995D02*
X22413995Y-10929005D01*
X22494005Y-10889000D02*
G75*
G03X22494005Y-10889000I-40005J0D01*
G01*
X22413995Y-11102995D02*
X22494005Y-11183005D01*
X22494005Y-11102995D02*
X22413995Y-11183005D01*
X22494005Y-11143000D02*
G75*
G03X22494005Y-11143000I-40005J0D01*
G01*
X22413995Y-11356995D02*
X22494005Y-11437005D01*
X22494005Y-11356995D02*
X22413995Y-11437005D01*
X22494005Y-11397000D02*
G75*
G03X22494005Y-11397000I-40005J0D01*
G01*
X22413995Y-11610995D02*
X22494005Y-11691005D01*
X22494005Y-11610995D02*
X22413995Y-11691005D01*
X22494005Y-11651000D02*
G75*
G03X22494005Y-11651000I-40005J0D01*
G01*
X22413995Y-11864995D02*
X22494005Y-11945005D01*
X22494005Y-11864995D02*
X22413995Y-11945005D01*
X22494005Y-11905000D02*
G75*
G03X22494005Y-11905000I-40005J0D01*
G01*
X22413995Y-12118995D02*
X22494005Y-12199005D01*
X22494005Y-12118995D02*
X22413995Y-12199005D01*
X22494005Y-12159000D02*
G75*
G03X22494005Y-12159000I-40005J0D01*
G01*
X22413995Y-12372995D02*
X22494005Y-12453005D01*
X22494005Y-12372995D02*
X22413995Y-12453005D01*
X22494005Y-12413000D02*
G75*
G03X22494005Y-12413000I-40005J0D01*
G01*
X22413995Y-12626995D02*
X22494005Y-12707005D01*
X22494005Y-12626995D02*
X22413995Y-12707005D01*
X22494005Y-12667000D02*
G75*
G03X22494005Y-12667000I-40005J0D01*
G01*
X22413995Y-12880995D02*
X22494005Y-12961005D01*
X22494005Y-12880995D02*
X22413995Y-12961005D01*
X22494005Y-12921000D02*
G75*
G03X22494005Y-12921000I-40005J0D01*
G01*
X22413995Y-13134995D02*
X22494005Y-13215005D01*
X22494005Y-13134995D02*
X22413995Y-13215005D01*
X22494005Y-13175000D02*
G75*
G03X22494005Y-13175000I-40005J0D01*
G01*
X22413995Y-13388995D02*
X22494005Y-13469005D01*
X22494005Y-13388995D02*
X22413995Y-13469005D01*
X22494005Y-13429000D02*
G75*
G03X22494005Y-13429000I-40005J0D01*
G01*
X22413995Y-13642995D02*
X22494005Y-13723005D01*
X22494005Y-13642995D02*
X22413995Y-13723005D01*
X22494005Y-13683000D02*
G75*
G03X22494005Y-13683000I-40005J0D01*
G01*
X22413995Y-13896995D02*
X22494005Y-13977005D01*
X22494005Y-13896995D02*
X22413995Y-13977005D01*
X22494005Y-13937000D02*
G75*
G03X22494005Y-13937000I-40005J0D01*
G01*
X18141400Y-5873200D02*
X18231400Y-5963200D01*
X18231400Y-5873200D02*
X18141400Y-5963200D01*
X18186400Y-5873200D02*
X18186400Y-5963200D01*
X18141400Y-5918200D02*
X18231400Y-5918200D01*
X19589200Y-5873200D02*
X19679200Y-5963200D01*
X19679200Y-5873200D02*
X19589200Y-5963200D01*
X19634200Y-5873200D02*
X19634200Y-5963200D01*
X19589200Y-5918200D02*
X19679200Y-5918200D01*
X16498100Y-13373900D02*
X16598100Y-13473900D01*
X16598100Y-13373900D02*
X16498100Y-13473900D01*
X16583456Y-13459256D02*
X16583456Y-13388544D01*
X16512744Y-13388544D01*
X16512744Y-13459256D01*
X16583456Y-13459256D01*
X16498100Y-13627900D02*
X16598100Y-13727900D01*
X16598100Y-13627900D02*
X16498100Y-13727900D01*
X16583456Y-13713256D02*
X16583456Y-13642544D01*
X16512744Y-13642544D01*
X16512744Y-13713256D01*
X16583456Y-13713256D01*
X11418100Y-11773700D02*
X11518100Y-11873700D01*
X11518100Y-11773700D02*
X11418100Y-11873700D01*
X11503456Y-11859056D02*
X11503456Y-11788344D01*
X11432744Y-11788344D01*
X11432744Y-11859056D01*
X11503456Y-11859056D01*
X11418100Y-12027700D02*
X11518100Y-12127700D01*
X11518100Y-12027700D02*
X11418100Y-12127700D01*
X11503456Y-12113056D02*
X11503456Y-12042344D01*
X11432744Y-12042344D01*
X11432744Y-12113056D01*
X11503456Y-12113056D01*
X11418100Y-12281700D02*
X11518100Y-12381700D01*
X11518100Y-12281700D02*
X11418100Y-12381700D01*
X11503456Y-12367056D02*
X11503456Y-12296344D01*
X11432744Y-12296344D01*
X11432744Y-12367056D01*
X11503456Y-12367056D01*
X11418100Y-12535700D02*
X11518100Y-12635700D01*
X11518100Y-12535700D02*
X11418100Y-12635700D01*
X11503456Y-12621056D02*
X11503456Y-12550344D01*
X11432744Y-12550344D01*
X11432744Y-12621056D01*
X11503456Y-12621056D01*
X11418100Y-12789700D02*
X11518100Y-12889700D01*
X11518100Y-12789700D02*
X11418100Y-12889700D01*
X11503456Y-12875056D02*
X11503456Y-12804344D01*
X11432744Y-12804344D01*
X11432744Y-12875056D01*
X11503456Y-12875056D01*
X11672100Y-11773700D02*
X11772100Y-11873700D01*
X11772100Y-11773700D02*
X11672100Y-11873700D01*
X11757456Y-11859056D02*
X11757456Y-11788344D01*
X11686744Y-11788344D01*
X11686744Y-11859056D01*
X11757456Y-11859056D01*
X11672100Y-12027700D02*
X11772100Y-12127700D01*
X11772100Y-12027700D02*
X11672100Y-12127700D01*
X11757456Y-12113056D02*
X11757456Y-12042344D01*
X11686744Y-12042344D01*
X11686744Y-12113056D01*
X11757456Y-12113056D01*
X11672100Y-12281700D02*
X11772100Y-12381700D01*
X11772100Y-12281700D02*
X11672100Y-12381700D01*
X11757456Y-12367056D02*
X11757456Y-12296344D01*
X11686744Y-12296344D01*
X11686744Y-12367056D01*
X11757456Y-12367056D01*
X11672100Y-12535700D02*
X11772100Y-12635700D01*
X11772100Y-12535700D02*
X11672100Y-12635700D01*
X11757456Y-12621056D02*
X11757456Y-12550344D01*
X11686744Y-12550344D01*
X11686744Y-12621056D01*
X11757456Y-12621056D01*
X11672100Y-12789700D02*
X11772100Y-12889700D01*
X11772100Y-12789700D02*
X11672100Y-12889700D01*
X11757456Y-12875056D02*
X11757456Y-12804344D01*
X11686744Y-12804344D01*
X11686744Y-12875056D01*
X11757456Y-12875056D01*
X17554900Y-12081200D02*
X17674900Y-12201200D01*
X17674900Y-12081200D02*
X17554900Y-12201200D01*
X17614900Y-12201200D02*
X17674900Y-12141200D01*
X17614900Y-12081200D01*
X17554900Y-12141200D01*
X17614900Y-12201200D01*
X17554900Y-13097200D02*
X17674900Y-13217200D01*
X17674900Y-13097200D02*
X17554900Y-13217200D01*
X17614900Y-13217200D02*
X17674900Y-13157200D01*
X17614900Y-13097200D01*
X17554900Y-13157200D01*
X17614900Y-13217200D01*
X17554900Y-14113200D02*
X17674900Y-14233200D01*
X17674900Y-14113200D02*
X17554900Y-14233200D01*
X17614900Y-14233200D02*
X17674900Y-14173200D01*
X17614900Y-14113200D01*
X17554900Y-14173200D01*
X17614900Y-14233200D01*
X19586900Y-12843200D02*
X19706900Y-12963200D01*
X19706900Y-12843200D02*
X19586900Y-12963200D01*
X19646900Y-12963200D02*
X19706900Y-12903200D01*
X19646900Y-12843200D01*
X19586900Y-12903200D01*
X19646900Y-12963200D01*
X19586900Y-13351200D02*
X19706900Y-13471200D01*
X19706900Y-13351200D02*
X19586900Y-13471200D01*
X19646900Y-13471200D02*
X19706900Y-13411200D01*
X19646900Y-13351200D01*
X19586900Y-13411200D01*
X19646900Y-13471200D01*
X19586900Y-14113200D02*
X19706900Y-14233200D01*
X19706900Y-14113200D02*
X19586900Y-14233200D01*
X19646900Y-14233200D02*
X19706900Y-14173200D01*
X19646900Y-14113200D01*
X19586900Y-14173200D01*
X19646900Y-14233200D01*
X20501400Y-13405000D02*
X20501400Y-13535000D01*
X20436400Y-13470000D02*
X20566400Y-13470000D01*
X20566400Y-13470000D02*
G75*
G03X20566400Y-13470000I-65000J0D01*
G01*
X20501400Y-14405000D02*
X20501400Y-14535000D01*
X20436400Y-14470000D02*
X20566400Y-14470000D01*
X20566400Y-14470000D02*
G75*
G03X20566400Y-14470000I-65000J0D01*
G01*
X20951400Y-13405000D02*
X20951400Y-13535000D01*
X20886400Y-13470000D02*
X21016400Y-13470000D01*
X21016400Y-13470000D02*
G75*
G03X21016400Y-13470000I-65000J0D01*
G01*
X20951400Y-14405000D02*
X20951400Y-14535000D01*
X20886400Y-14470000D02*
X21016400Y-14470000D01*
X21016400Y-14470000D02*
G75*
G03X21016400Y-14470000I-65000J0D01*
G01*
X20039298Y-6691598D02*
X20039298Y-6592602D01*
X19940302Y-6592602D01*
X19940302Y-6691598D01*
X20039298Y-6691598D01*
X20059800Y-6642100D02*
G75*
G03X20059800Y-6642100I-70000J0D01*
G01*
X20547298Y-6691598D02*
X20547298Y-6592602D01*
X20448302Y-6592602D01*
X20448302Y-6691598D01*
X20547298Y-6691598D01*
X20567800Y-6642100D02*
G75*
G03X20567800Y-6642100I-70000J0D01*
G01*
X21055298Y-6691598D02*
X21055298Y-6592602D01*
X20956302Y-6592602D01*
X20956302Y-6691598D01*
X21055298Y-6691598D01*
X21075800Y-6642100D02*
G75*
G03X21075800Y-6642100I-70000J0D01*
G01*
X21563298Y-6691598D02*
X21563298Y-6592602D01*
X21464302Y-6592602D01*
X21464302Y-6691598D01*
X21563298Y-6691598D01*
X21583800Y-6642100D02*
G75*
G03X21583800Y-6642100I-70000J0D01*
G01*
X20039298Y-7212298D02*
X20039298Y-7113302D01*
X19940302Y-7113302D01*
X19940302Y-7212298D01*
X20039298Y-7212298D01*
X20059800Y-7162800D02*
G75*
G03X20059800Y-7162800I-70000J0D01*
G01*
X20547298Y-7212298D02*
X20547298Y-7113302D01*
X20448302Y-7113302D01*
X20448302Y-7212298D01*
X20547298Y-7212298D01*
X20567800Y-7162800D02*
G75*
G03X20567800Y-7162800I-70000J0D01*
G01*
X21055298Y-7212298D02*
X21055298Y-7113302D01*
X20956302Y-7113302D01*
X20956302Y-7212298D01*
X21055298Y-7212298D01*
X21075800Y-7162800D02*
G75*
G03X21075800Y-7162800I-70000J0D01*
G01*
X21563298Y-7212298D02*
X21563298Y-7113302D01*
X21464302Y-7113302D01*
X21464302Y-7212298D01*
X21563298Y-7212298D01*
X21583800Y-7162800D02*
G75*
G03X21583800Y-7162800I-70000J0D01*
G01*
X20039298Y-7732998D02*
X20039298Y-7634002D01*
X19940302Y-7634002D01*
X19940302Y-7732998D01*
X20039298Y-7732998D01*
X20059800Y-7683500D02*
G75*
G03X20059800Y-7683500I-70000J0D01*
G01*
X20547298Y-7732998D02*
X20547298Y-7634002D01*
X20448302Y-7634002D01*
X20448302Y-7732998D01*
X20547298Y-7732998D01*
X20567800Y-7683500D02*
G75*
G03X20567800Y-7683500I-70000J0D01*
G01*
X21055298Y-7732998D02*
X21055298Y-7634002D01*
X20956302Y-7634002D01*
X20956302Y-7732998D01*
X21055298Y-7732998D01*
X21075800Y-7683500D02*
G75*
G03X21075800Y-7683500I-70000J0D01*
G01*
X21563298Y-7732998D02*
X21563298Y-7634002D01*
X21464302Y-7634002D01*
X21464302Y-7732998D01*
X21563298Y-7732998D01*
X21583800Y-7683500D02*
G75*
G03X21583800Y-7683500I-70000J0D01*
G01*
X20039298Y-6170898D02*
X20039298Y-6071902D01*
X19940302Y-6071902D01*
X19940302Y-6170898D01*
X20039298Y-6170898D01*
X20059800Y-6121400D02*
G75*
G03X20059800Y-6121400I-70000J0D01*
G01*
X20547298Y-6170898D02*
X20547298Y-6071902D01*
X20448302Y-6071902D01*
X20448302Y-6170898D01*
X20547298Y-6170898D01*
X20567800Y-6121400D02*
G75*
G03X20567800Y-6121400I-70000J0D01*
G01*
X21055298Y-6170898D02*
X21055298Y-6071902D01*
X20956302Y-6071902D01*
X20956302Y-6170898D01*
X21055298Y-6170898D01*
X21075800Y-6121400D02*
G75*
G03X21075800Y-6121400I-70000J0D01*
G01*
X21563298Y-6170898D02*
X21563298Y-6071902D01*
X21464302Y-6071902D01*
X21464302Y-6170898D01*
X21563298Y-6170898D01*
X21583800Y-6121400D02*
G75*
G03X21583800Y-6121400I-70000J0D01*
G01*
X20039298Y-5650198D02*
X20039298Y-5551202D01*
X19940302Y-5551202D01*
X19940302Y-5650198D01*
X20039298Y-5650198D01*
X20059800Y-5600700D02*
G75*
G03X20059800Y-5600700I-70000J0D01*
G01*
X20547298Y-5650198D02*
X20547298Y-5551202D01*
X20448302Y-5551202D01*
X20448302Y-5650198D01*
X20547298Y-5650198D01*
X20567800Y-5600700D02*
G75*
G03X20567800Y-5600700I-70000J0D01*
G01*
X21055298Y-5650198D02*
X21055298Y-5551202D01*
X20956302Y-5551202D01*
X20956302Y-5650198D01*
X21055298Y-5650198D01*
X21075800Y-5600700D02*
G75*
G03X21075800Y-5600700I-70000J0D01*
G01*
X21563298Y-5650198D02*
X21563298Y-5551202D01*
X21464302Y-5551202D01*
X21464302Y-5650198D01*
X21563298Y-5650198D01*
X21583800Y-5600700D02*
G75*
G03X21583800Y-5600700I-70000J0D01*
G01*
X22708000Y-5710000D02*
X22863000Y-5555000D01*
X22708000Y-5400000D01*
X22553000Y-5555000D01*
X22708000Y-5710000D01*
X22863000Y-5555000D02*
G75*
G03X22863000Y-5555000I-155000J0D01*
G01*
X22708000Y-14600000D02*
X22863000Y-14445000D01*
X22708000Y-14290000D01*
X22553000Y-14445000D01*
X22708000Y-14600000D01*
X22863000Y-14445000D02*
G75*
G03X22863000Y-14445000I-155000J0D01*
G01*
D12*
X7283928Y-15468214D02*
X7283928Y-15168214D01*
X7355357Y-15168214D01*
X7398214Y-15182500D01*
X7426786Y-15211071D01*
X7441071Y-15239643D01*
X7455357Y-15296786D01*
X7455357Y-15339643D01*
X7441071Y-15396786D01*
X7426786Y-15425357D01*
X7398214Y-15453929D01*
X7355357Y-15468214D01*
X7283928Y-15468214D01*
X7583928Y-15468214D02*
X7583928Y-15268214D01*
X7583928Y-15325357D02*
X7598214Y-15296786D01*
X7612500Y-15282500D01*
X7641071Y-15268214D01*
X7669643Y-15268214D01*
X7769643Y-15468214D02*
X7769643Y-15268214D01*
X7769643Y-15168214D02*
X7755357Y-15182500D01*
X7769643Y-15196786D01*
X7783928Y-15182500D01*
X7769643Y-15168214D01*
X7769643Y-15196786D01*
X7955357Y-15468214D02*
X7926786Y-15453929D01*
X7912500Y-15425357D01*
X7912500Y-15168214D01*
X8112500Y-15468214D02*
X8083928Y-15453929D01*
X8069643Y-15425357D01*
X8069643Y-15168214D01*
X8455357Y-15468214D02*
X8455357Y-15168214D01*
X8555357Y-15382500D01*
X8655357Y-15168214D01*
X8655357Y-15468214D01*
X8926786Y-15468214D02*
X8926786Y-15311071D01*
X8912500Y-15282500D01*
X8883928Y-15268214D01*
X8826786Y-15268214D01*
X8798214Y-15282500D01*
X8926786Y-15453929D02*
X8898214Y-15468214D01*
X8826786Y-15468214D01*
X8798214Y-15453929D01*
X8783928Y-15425357D01*
X8783928Y-15396786D01*
X8798214Y-15368214D01*
X8826786Y-15353929D01*
X8898214Y-15353929D01*
X8926786Y-15339643D01*
X9069643Y-15268214D02*
X9069643Y-15568214D01*
X9069643Y-15282500D02*
X9098214Y-15268214D01*
X9155357Y-15268214D01*
X9183928Y-15282500D01*
X9198214Y-15296786D01*
X9212500Y-15325357D01*
X9212500Y-15411071D01*
X9198214Y-15439643D01*
X9183928Y-15453929D01*
X9155357Y-15468214D01*
X9098214Y-15468214D01*
X9069643Y-15453929D01*
X9341071Y-15439643D02*
X9355357Y-15453929D01*
X9341071Y-15468214D01*
X9326786Y-15453929D01*
X9341071Y-15439643D01*
X9341071Y-15468214D01*
X9341071Y-15282500D02*
X9355357Y-15296786D01*
X9341071Y-15311071D01*
X9326786Y-15296786D01*
X9341071Y-15282500D01*
X9341071Y-15311071D01*
X6977500Y-15952500D02*
X6997500Y-15972500D01*
X6997500Y-15952500D02*
X6977500Y-15972500D01*
X7341071Y-15798214D02*
X7369643Y-15798214D01*
X7398214Y-15812500D01*
X7412500Y-15826786D01*
X7426786Y-15855357D01*
X7441071Y-15912500D01*
X7441071Y-15983929D01*
X7426786Y-16041071D01*
X7412500Y-16069643D01*
X7398214Y-16083929D01*
X7369643Y-16098214D01*
X7341071Y-16098214D01*
X7312500Y-16083929D01*
X7298214Y-16069643D01*
X7283928Y-16041071D01*
X7269643Y-15983929D01*
X7269643Y-15912500D01*
X7283928Y-15855357D01*
X7298214Y-15826786D01*
X7312500Y-15812500D01*
X7341071Y-15798214D01*
X7569643Y-16069643D02*
X7583928Y-16083929D01*
X7569643Y-16098214D01*
X7555357Y-16083929D01*
X7569643Y-16069643D01*
X7569643Y-16098214D01*
X7698214Y-15826786D02*
X7712500Y-15812500D01*
X7741071Y-15798214D01*
X7812500Y-15798214D01*
X7841071Y-15812500D01*
X7855357Y-15826786D01*
X7869643Y-15855357D01*
X7869643Y-15883929D01*
X7855357Y-15926786D01*
X7683928Y-16098214D01*
X7869643Y-16098214D01*
X8055357Y-15798214D02*
X8083928Y-15798214D01*
X8112500Y-15812500D01*
X8126786Y-15826786D01*
X8141071Y-15855357D01*
X8155357Y-15912500D01*
X8155357Y-15983929D01*
X8141071Y-16041071D01*
X8126786Y-16069643D01*
X8112500Y-16083929D01*
X8083928Y-16098214D01*
X8055357Y-16098214D01*
X8026786Y-16083929D01*
X8012500Y-16069643D01*
X7998214Y-16041071D01*
X7983928Y-15983929D01*
X7983928Y-15912500D01*
X7998214Y-15855357D01*
X8012500Y-15826786D01*
X8026786Y-15812500D01*
X8055357Y-15798214D01*
X8283928Y-16098214D02*
X8283928Y-15898214D01*
X8283928Y-15926786D02*
X8298214Y-15912500D01*
X8326786Y-15898214D01*
X8369643Y-15898214D01*
X8398214Y-15912500D01*
X8412500Y-15941071D01*
X8412500Y-16098214D01*
X8412500Y-15941071D02*
X8426786Y-15912500D01*
X8455357Y-15898214D01*
X8498214Y-15898214D01*
X8526786Y-15912500D01*
X8541071Y-15941071D01*
X8541071Y-16098214D01*
X8683928Y-16098214D02*
X8683928Y-15898214D01*
X8683928Y-15926786D02*
X8698214Y-15912500D01*
X8726786Y-15898214D01*
X8769643Y-15898214D01*
X8798214Y-15912500D01*
X8812500Y-15941071D01*
X8812500Y-16098214D01*
X8812500Y-15941071D02*
X8826786Y-15912500D01*
X8855357Y-15898214D01*
X8898214Y-15898214D01*
X8926786Y-15912500D01*
X8941071Y-15941071D01*
X8941071Y-16098214D01*
X9526786Y-15783929D02*
X9269643Y-16169643D01*
X9912500Y-15798214D02*
X9941071Y-15798214D01*
X9969643Y-15812500D01*
X9983928Y-15826786D01*
X9998214Y-15855357D01*
X10012500Y-15912500D01*
X10012500Y-15983929D01*
X9998214Y-16041071D01*
X9983928Y-16069643D01*
X9969643Y-16083929D01*
X9941071Y-16098214D01*
X9912500Y-16098214D01*
X9883928Y-16083929D01*
X9869643Y-16069643D01*
X9855357Y-16041071D01*
X9841071Y-15983929D01*
X9841071Y-15912500D01*
X9855357Y-15855357D01*
X9869643Y-15826786D01*
X9883928Y-15812500D01*
X9912500Y-15798214D01*
X10141071Y-16069643D02*
X10155357Y-16083929D01*
X10141071Y-16098214D01*
X10126786Y-16083929D01*
X10141071Y-16069643D01*
X10141071Y-16098214D01*
X10341071Y-15798214D02*
X10369643Y-15798214D01*
X10398214Y-15812500D01*
X10412500Y-15826786D01*
X10426786Y-15855357D01*
X10441071Y-15912500D01*
X10441071Y-15983929D01*
X10426786Y-16041071D01*
X10412500Y-16069643D01*
X10398214Y-16083929D01*
X10369643Y-16098214D01*
X10341071Y-16098214D01*
X10312500Y-16083929D01*
X10298214Y-16069643D01*
X10283928Y-16041071D01*
X10269643Y-15983929D01*
X10269643Y-15912500D01*
X10283928Y-15855357D01*
X10298214Y-15826786D01*
X10312500Y-15812500D01*
X10341071Y-15798214D01*
X10626786Y-15798214D02*
X10655357Y-15798214D01*
X10683928Y-15812500D01*
X10698214Y-15826786D01*
X10712500Y-15855357D01*
X10726786Y-15912500D01*
X10726786Y-15983929D01*
X10712500Y-16041071D01*
X10698214Y-16069643D01*
X10683928Y-16083929D01*
X10655357Y-16098214D01*
X10626786Y-16098214D01*
X10598214Y-16083929D01*
X10583928Y-16069643D01*
X10569643Y-16041071D01*
X10555357Y-15983929D01*
X10555357Y-15912500D01*
X10569643Y-15855357D01*
X10583928Y-15826786D01*
X10598214Y-15812500D01*
X10626786Y-15798214D01*
X10898214Y-15926786D02*
X10869643Y-15912500D01*
X10855357Y-15898214D01*
X10841071Y-15869643D01*
X10841071Y-15855357D01*
X10855357Y-15826786D01*
X10869643Y-15812500D01*
X10898214Y-15798214D01*
X10955357Y-15798214D01*
X10983928Y-15812500D01*
X10998214Y-15826786D01*
X11012500Y-15855357D01*
X11012500Y-15869643D01*
X10998214Y-15898214D01*
X10983928Y-15912500D01*
X10955357Y-15926786D01*
X10898214Y-15926786D01*
X10869643Y-15941071D01*
X10855357Y-15955357D01*
X10841071Y-15983929D01*
X10841071Y-16041071D01*
X10855357Y-16069643D01*
X10869643Y-16083929D01*
X10898214Y-16098214D01*
X10955357Y-16098214D01*
X10983928Y-16083929D01*
X10998214Y-16069643D01*
X11012500Y-16041071D01*
X11012500Y-15983929D01*
X10998214Y-15955357D01*
X10983928Y-15941071D01*
X10955357Y-15926786D01*
X11126786Y-15798214D02*
X11126786Y-15855357D01*
X11241071Y-15798214D02*
X11241071Y-15855357D01*
X11683928Y-16212500D02*
X11669643Y-16198214D01*
X11641071Y-16155357D01*
X11626786Y-16126786D01*
X11612500Y-16083929D01*
X11598214Y-16012500D01*
X11598214Y-15955357D01*
X11612500Y-15883929D01*
X11626786Y-15841071D01*
X11641071Y-15812500D01*
X11669643Y-15769643D01*
X11683928Y-15755357D01*
X11926786Y-15798214D02*
X11869643Y-15798214D01*
X11841071Y-15812500D01*
X11826786Y-15826786D01*
X11798214Y-15869643D01*
X11783928Y-15926786D01*
X11783928Y-16041071D01*
X11798214Y-16069643D01*
X11812500Y-16083929D01*
X11841071Y-16098214D01*
X11898214Y-16098214D01*
X11926786Y-16083929D01*
X11941071Y-16069643D01*
X11955357Y-16041071D01*
X11955357Y-15969643D01*
X11941071Y-15941071D01*
X11926786Y-15926786D01*
X11898214Y-15912500D01*
X11841071Y-15912500D01*
X11812500Y-15926786D01*
X11798214Y-15941071D01*
X11783928Y-15969643D01*
X12126786Y-15926786D02*
X12098214Y-15912500D01*
X12083928Y-15898214D01*
X12069643Y-15869643D01*
X12069643Y-15855357D01*
X12083928Y-15826786D01*
X12098214Y-15812500D01*
X12126786Y-15798214D01*
X12183928Y-15798214D01*
X12212500Y-15812500D01*
X12226786Y-15826786D01*
X12241071Y-15855357D01*
X12241071Y-15869643D01*
X12226786Y-15898214D01*
X12212500Y-15912500D01*
X12183928Y-15926786D01*
X12126786Y-15926786D01*
X12098214Y-15941071D01*
X12083928Y-15955357D01*
X12069643Y-15983929D01*
X12069643Y-16041071D01*
X12083928Y-16069643D01*
X12098214Y-16083929D01*
X12126786Y-16098214D01*
X12183928Y-16098214D01*
X12212500Y-16083929D01*
X12226786Y-16069643D01*
X12241071Y-16041071D01*
X12241071Y-15983929D01*
X12226786Y-15955357D01*
X12212500Y-15941071D01*
X12183928Y-15926786D01*
X12412500Y-15926786D02*
X12383928Y-15912500D01*
X12369643Y-15898214D01*
X12355357Y-15869643D01*
X12355357Y-15855357D01*
X12369643Y-15826786D01*
X12383928Y-15812500D01*
X12412500Y-15798214D01*
X12469643Y-15798214D01*
X12498214Y-15812500D01*
X12512500Y-15826786D01*
X12526786Y-15855357D01*
X12526786Y-15869643D01*
X12512500Y-15898214D01*
X12498214Y-15912500D01*
X12469643Y-15926786D01*
X12412500Y-15926786D01*
X12383928Y-15941071D01*
X12369643Y-15955357D01*
X12355357Y-15983929D01*
X12355357Y-16041071D01*
X12369643Y-16069643D01*
X12383928Y-16083929D01*
X12412500Y-16098214D01*
X12469643Y-16098214D01*
X12498214Y-16083929D01*
X12512500Y-16069643D01*
X12526786Y-16041071D01*
X12526786Y-15983929D01*
X12512500Y-15955357D01*
X12498214Y-15941071D01*
X12469643Y-15926786D01*
X12883928Y-16098214D02*
X12883928Y-15798214D01*
X13012500Y-16098214D02*
X13012500Y-15941071D01*
X12998214Y-15912500D01*
X12969643Y-15898214D01*
X12926786Y-15898214D01*
X12898214Y-15912500D01*
X12883928Y-15926786D01*
X13198214Y-16098214D02*
X13169643Y-16083929D01*
X13155357Y-16069643D01*
X13141071Y-16041071D01*
X13141071Y-15955357D01*
X13155357Y-15926786D01*
X13169643Y-15912500D01*
X13198214Y-15898214D01*
X13241071Y-15898214D01*
X13269643Y-15912500D01*
X13283928Y-15926786D01*
X13298214Y-15955357D01*
X13298214Y-16041071D01*
X13283928Y-16069643D01*
X13269643Y-16083929D01*
X13241071Y-16098214D01*
X13198214Y-16098214D01*
X13469643Y-16098214D02*
X13441071Y-16083929D01*
X13426786Y-16055357D01*
X13426786Y-15798214D01*
X13698214Y-16083929D02*
X13669643Y-16098214D01*
X13612500Y-16098214D01*
X13583928Y-16083929D01*
X13569643Y-16055357D01*
X13569643Y-15941071D01*
X13583928Y-15912500D01*
X13612500Y-15898214D01*
X13669643Y-15898214D01*
X13698214Y-15912500D01*
X13712500Y-15941071D01*
X13712500Y-15969643D01*
X13569643Y-15998214D01*
X13826786Y-16083929D02*
X13855357Y-16098214D01*
X13912500Y-16098214D01*
X13941071Y-16083929D01*
X13955357Y-16055357D01*
X13955357Y-16041071D01*
X13941071Y-16012500D01*
X13912500Y-15998214D01*
X13869643Y-15998214D01*
X13841071Y-15983929D01*
X13826786Y-15955357D01*
X13826786Y-15941071D01*
X13841071Y-15912500D01*
X13869643Y-15898214D01*
X13912500Y-15898214D01*
X13941071Y-15912500D01*
X14055357Y-16212500D02*
X14069643Y-16198214D01*
X14098214Y-16155357D01*
X14112500Y-16126786D01*
X14126786Y-16083929D01*
X14141071Y-16012500D01*
X14141071Y-15955357D01*
X14126786Y-15883929D01*
X14112500Y-15841071D01*
X14098214Y-15812500D01*
X14069643Y-15769643D01*
X14055357Y-15755357D01*
X6997500Y-16358500D02*
G75*
G03X6997500Y-16358500I-20000J0D01*
G01*
X7341071Y-16194214D02*
X7369643Y-16194214D01*
X7398214Y-16208500D01*
X7412500Y-16222786D01*
X7426786Y-16251357D01*
X7441071Y-16308500D01*
X7441071Y-16379929D01*
X7426786Y-16437071D01*
X7412500Y-16465643D01*
X7398214Y-16479929D01*
X7369643Y-16494214D01*
X7341071Y-16494214D01*
X7312500Y-16479929D01*
X7298214Y-16465643D01*
X7283928Y-16437071D01*
X7269643Y-16379929D01*
X7269643Y-16308500D01*
X7283928Y-16251357D01*
X7298214Y-16222786D01*
X7312500Y-16208500D01*
X7341071Y-16194214D01*
X7569643Y-16465643D02*
X7583928Y-16479929D01*
X7569643Y-16494214D01*
X7555357Y-16479929D01*
X7569643Y-16465643D01*
X7569643Y-16494214D01*
X7841071Y-16294214D02*
X7841071Y-16494214D01*
X7769643Y-16179929D02*
X7698214Y-16394214D01*
X7883928Y-16394214D01*
X8055357Y-16194214D02*
X8083928Y-16194214D01*
X8112500Y-16208500D01*
X8126786Y-16222786D01*
X8141071Y-16251357D01*
X8155357Y-16308500D01*
X8155357Y-16379929D01*
X8141071Y-16437071D01*
X8126786Y-16465643D01*
X8112500Y-16479929D01*
X8083928Y-16494214D01*
X8055357Y-16494214D01*
X8026786Y-16479929D01*
X8012500Y-16465643D01*
X7998214Y-16437071D01*
X7983928Y-16379929D01*
X7983928Y-16308500D01*
X7998214Y-16251357D01*
X8012500Y-16222786D01*
X8026786Y-16208500D01*
X8055357Y-16194214D01*
X8283928Y-16494214D02*
X8283928Y-16294214D01*
X8283928Y-16322786D02*
X8298214Y-16308500D01*
X8326786Y-16294214D01*
X8369643Y-16294214D01*
X8398214Y-16308500D01*
X8412500Y-16337071D01*
X8412500Y-16494214D01*
X8412500Y-16337071D02*
X8426786Y-16308500D01*
X8455357Y-16294214D01*
X8498214Y-16294214D01*
X8526786Y-16308500D01*
X8541071Y-16337071D01*
X8541071Y-16494214D01*
X8683928Y-16494214D02*
X8683928Y-16294214D01*
X8683928Y-16322786D02*
X8698214Y-16308500D01*
X8726786Y-16294214D01*
X8769643Y-16294214D01*
X8798214Y-16308500D01*
X8812500Y-16337071D01*
X8812500Y-16494214D01*
X8812500Y-16337071D02*
X8826786Y-16308500D01*
X8855357Y-16294214D01*
X8898214Y-16294214D01*
X8926786Y-16308500D01*
X8941071Y-16337071D01*
X8941071Y-16494214D01*
X9526786Y-16179929D02*
X9269643Y-16565643D01*
X9912500Y-16194214D02*
X9941071Y-16194214D01*
X9969643Y-16208500D01*
X9983928Y-16222786D01*
X9998214Y-16251357D01*
X10012500Y-16308500D01*
X10012500Y-16379929D01*
X9998214Y-16437071D01*
X9983928Y-16465643D01*
X9969643Y-16479929D01*
X9941071Y-16494214D01*
X9912500Y-16494214D01*
X9883928Y-16479929D01*
X9869643Y-16465643D01*
X9855357Y-16437071D01*
X9841071Y-16379929D01*
X9841071Y-16308500D01*
X9855357Y-16251357D01*
X9869643Y-16222786D01*
X9883928Y-16208500D01*
X9912500Y-16194214D01*
X10141071Y-16465643D02*
X10155357Y-16479929D01*
X10141071Y-16494214D01*
X10126786Y-16479929D01*
X10141071Y-16465643D01*
X10141071Y-16494214D01*
X10341071Y-16194214D02*
X10369643Y-16194214D01*
X10398214Y-16208500D01*
X10412500Y-16222786D01*
X10426786Y-16251357D01*
X10441071Y-16308500D01*
X10441071Y-16379929D01*
X10426786Y-16437071D01*
X10412500Y-16465643D01*
X10398214Y-16479929D01*
X10369643Y-16494214D01*
X10341071Y-16494214D01*
X10312500Y-16479929D01*
X10298214Y-16465643D01*
X10283928Y-16437071D01*
X10269643Y-16379929D01*
X10269643Y-16308500D01*
X10283928Y-16251357D01*
X10298214Y-16222786D01*
X10312500Y-16208500D01*
X10341071Y-16194214D01*
X10726786Y-16494214D02*
X10555357Y-16494214D01*
X10641071Y-16494214D02*
X10641071Y-16194214D01*
X10612500Y-16237071D01*
X10583928Y-16265643D01*
X10555357Y-16279929D01*
X10983928Y-16194214D02*
X10926786Y-16194214D01*
X10898214Y-16208500D01*
X10883928Y-16222786D01*
X10855357Y-16265643D01*
X10841071Y-16322786D01*
X10841071Y-16437071D01*
X10855357Y-16465643D01*
X10869643Y-16479929D01*
X10898214Y-16494214D01*
X10955357Y-16494214D01*
X10983928Y-16479929D01*
X10998214Y-16465643D01*
X11012500Y-16437071D01*
X11012500Y-16365643D01*
X10998214Y-16337071D01*
X10983928Y-16322786D01*
X10955357Y-16308500D01*
X10898214Y-16308500D01*
X10869643Y-16322786D01*
X10855357Y-16337071D01*
X10841071Y-16365643D01*
X11126786Y-16194214D02*
X11126786Y-16251357D01*
X11241071Y-16194214D02*
X11241071Y-16251357D01*
X11683928Y-16608500D02*
X11669643Y-16594214D01*
X11641071Y-16551357D01*
X11626786Y-16522786D01*
X11612500Y-16479929D01*
X11598214Y-16408500D01*
X11598214Y-16351357D01*
X11612500Y-16279929D01*
X11626786Y-16237071D01*
X11641071Y-16208500D01*
X11669643Y-16165643D01*
X11683928Y-16151357D01*
X11955357Y-16494214D02*
X11783928Y-16494214D01*
X11869643Y-16494214D02*
X11869643Y-16194214D01*
X11841071Y-16237071D01*
X11812500Y-16265643D01*
X11783928Y-16279929D01*
X12055357Y-16194214D02*
X12241071Y-16194214D01*
X12141071Y-16308500D01*
X12183928Y-16308500D01*
X12212500Y-16322786D01*
X12226786Y-16337071D01*
X12241071Y-16365643D01*
X12241071Y-16437071D01*
X12226786Y-16465643D01*
X12212500Y-16479929D01*
X12183928Y-16494214D01*
X12098214Y-16494214D01*
X12069643Y-16479929D01*
X12055357Y-16465643D01*
X12383928Y-16494214D02*
X12441071Y-16494214D01*
X12469643Y-16479929D01*
X12483928Y-16465643D01*
X12512500Y-16422786D01*
X12526786Y-16365643D01*
X12526786Y-16251357D01*
X12512500Y-16222786D01*
X12498214Y-16208500D01*
X12469643Y-16194214D01*
X12412500Y-16194214D01*
X12383928Y-16208500D01*
X12369643Y-16222786D01*
X12355357Y-16251357D01*
X12355357Y-16322786D01*
X12369643Y-16351357D01*
X12383928Y-16365643D01*
X12412500Y-16379929D01*
X12469643Y-16379929D01*
X12498214Y-16365643D01*
X12512500Y-16351357D01*
X12526786Y-16322786D01*
X12883928Y-16494214D02*
X12883928Y-16194214D01*
X13012500Y-16494214D02*
X13012500Y-16337071D01*
X12998214Y-16308500D01*
X12969643Y-16294214D01*
X12926786Y-16294214D01*
X12898214Y-16308500D01*
X12883928Y-16322786D01*
X13198214Y-16494214D02*
X13169643Y-16479929D01*
X13155357Y-16465643D01*
X13141071Y-16437071D01*
X13141071Y-16351357D01*
X13155357Y-16322786D01*
X13169643Y-16308500D01*
X13198214Y-16294214D01*
X13241071Y-16294214D01*
X13269643Y-16308500D01*
X13283928Y-16322786D01*
X13298214Y-16351357D01*
X13298214Y-16437071D01*
X13283928Y-16465643D01*
X13269643Y-16479929D01*
X13241071Y-16494214D01*
X13198214Y-16494214D01*
X13469643Y-16494214D02*
X13441071Y-16479929D01*
X13426786Y-16451357D01*
X13426786Y-16194214D01*
X13698214Y-16479929D02*
X13669643Y-16494214D01*
X13612500Y-16494214D01*
X13583928Y-16479929D01*
X13569643Y-16451357D01*
X13569643Y-16337071D01*
X13583928Y-16308500D01*
X13612500Y-16294214D01*
X13669643Y-16294214D01*
X13698214Y-16308500D01*
X13712500Y-16337071D01*
X13712500Y-16365643D01*
X13569643Y-16394214D01*
X13826786Y-16479929D02*
X13855357Y-16494214D01*
X13912500Y-16494214D01*
X13941071Y-16479929D01*
X13955357Y-16451357D01*
X13955357Y-16437071D01*
X13941071Y-16408500D01*
X13912500Y-16394214D01*
X13869643Y-16394214D01*
X13841071Y-16379929D01*
X13826786Y-16351357D01*
X13826786Y-16337071D01*
X13841071Y-16308500D01*
X13869643Y-16294214D01*
X13912500Y-16294214D01*
X13941071Y-16308500D01*
X14055357Y-16608500D02*
X14069643Y-16594214D01*
X14098214Y-16551357D01*
X14112500Y-16522786D01*
X14126786Y-16479929D01*
X14141071Y-16408500D01*
X14141071Y-16351357D01*
X14126786Y-16279929D01*
X14112500Y-16237071D01*
X14098214Y-16208500D01*
X14069643Y-16165643D01*
X14055357Y-16151357D01*
X6967500Y-16724500D02*
X6967500Y-16784500D01*
X6937500Y-16754500D02*
X6997500Y-16754500D01*
X7341071Y-16590214D02*
X7369643Y-16590214D01*
X7398214Y-16604500D01*
X7412500Y-16618786D01*
X7426786Y-16647357D01*
X7441071Y-16704500D01*
X7441071Y-16775929D01*
X7426786Y-16833072D01*
X7412500Y-16861643D01*
X7398214Y-16875929D01*
X7369643Y-16890214D01*
X7341071Y-16890214D01*
X7312500Y-16875929D01*
X7298214Y-16861643D01*
X7283928Y-16833072D01*
X7269643Y-16775929D01*
X7269643Y-16704500D01*
X7283928Y-16647357D01*
X7298214Y-16618786D01*
X7312500Y-16604500D01*
X7341071Y-16590214D01*
X7569643Y-16861643D02*
X7583928Y-16875929D01*
X7569643Y-16890214D01*
X7555357Y-16875929D01*
X7569643Y-16861643D01*
X7569643Y-16890214D01*
X7841071Y-16590214D02*
X7783928Y-16590214D01*
X7755357Y-16604500D01*
X7741071Y-16618786D01*
X7712500Y-16661643D01*
X7698214Y-16718786D01*
X7698214Y-16833072D01*
X7712500Y-16861643D01*
X7726786Y-16875929D01*
X7755357Y-16890214D01*
X7812500Y-16890214D01*
X7841071Y-16875929D01*
X7855357Y-16861643D01*
X7869643Y-16833072D01*
X7869643Y-16761643D01*
X7855357Y-16733071D01*
X7841071Y-16718786D01*
X7812500Y-16704500D01*
X7755357Y-16704500D01*
X7726786Y-16718786D01*
X7712500Y-16733071D01*
X7698214Y-16761643D01*
X8055357Y-16590214D02*
X8083928Y-16590214D01*
X8112500Y-16604500D01*
X8126786Y-16618786D01*
X8141071Y-16647357D01*
X8155357Y-16704500D01*
X8155357Y-16775929D01*
X8141071Y-16833072D01*
X8126786Y-16861643D01*
X8112500Y-16875929D01*
X8083928Y-16890214D01*
X8055357Y-16890214D01*
X8026786Y-16875929D01*
X8012500Y-16861643D01*
X7998214Y-16833072D01*
X7983928Y-16775929D01*
X7983928Y-16704500D01*
X7998214Y-16647357D01*
X8012500Y-16618786D01*
X8026786Y-16604500D01*
X8055357Y-16590214D01*
X8283928Y-16890214D02*
X8283928Y-16690214D01*
X8283928Y-16718786D02*
X8298214Y-16704500D01*
X8326786Y-16690214D01*
X8369643Y-16690214D01*
X8398214Y-16704500D01*
X8412500Y-16733071D01*
X8412500Y-16890214D01*
X8412500Y-16733071D02*
X8426786Y-16704500D01*
X8455357Y-16690214D01*
X8498214Y-16690214D01*
X8526786Y-16704500D01*
X8541071Y-16733071D01*
X8541071Y-16890214D01*
X8683928Y-16890214D02*
X8683928Y-16690214D01*
X8683928Y-16718786D02*
X8698214Y-16704500D01*
X8726786Y-16690214D01*
X8769643Y-16690214D01*
X8798214Y-16704500D01*
X8812500Y-16733071D01*
X8812500Y-16890214D01*
X8812500Y-16733071D02*
X8826786Y-16704500D01*
X8855357Y-16690214D01*
X8898214Y-16690214D01*
X8926786Y-16704500D01*
X8941071Y-16733071D01*
X8941071Y-16890214D01*
X9526786Y-16575929D02*
X9269643Y-16961643D01*
X9912500Y-16590214D02*
X9941071Y-16590214D01*
X9969643Y-16604500D01*
X9983928Y-16618786D01*
X9998214Y-16647357D01*
X10012500Y-16704500D01*
X10012500Y-16775929D01*
X9998214Y-16833072D01*
X9983928Y-16861643D01*
X9969643Y-16875929D01*
X9941071Y-16890214D01*
X9912500Y-16890214D01*
X9883928Y-16875929D01*
X9869643Y-16861643D01*
X9855357Y-16833072D01*
X9841071Y-16775929D01*
X9841071Y-16704500D01*
X9855357Y-16647357D01*
X9869643Y-16618786D01*
X9883928Y-16604500D01*
X9912500Y-16590214D01*
X10141071Y-16861643D02*
X10155357Y-16875929D01*
X10141071Y-16890214D01*
X10126786Y-16875929D01*
X10141071Y-16861643D01*
X10141071Y-16890214D01*
X10341071Y-16590214D02*
X10369643Y-16590214D01*
X10398214Y-16604500D01*
X10412500Y-16618786D01*
X10426786Y-16647357D01*
X10441071Y-16704500D01*
X10441071Y-16775929D01*
X10426786Y-16833072D01*
X10412500Y-16861643D01*
X10398214Y-16875929D01*
X10369643Y-16890214D01*
X10341071Y-16890214D01*
X10312500Y-16875929D01*
X10298214Y-16861643D01*
X10283928Y-16833072D01*
X10269643Y-16775929D01*
X10269643Y-16704500D01*
X10283928Y-16647357D01*
X10298214Y-16618786D01*
X10312500Y-16604500D01*
X10341071Y-16590214D01*
X10555357Y-16618786D02*
X10569643Y-16604500D01*
X10598214Y-16590214D01*
X10669643Y-16590214D01*
X10698214Y-16604500D01*
X10712500Y-16618786D01*
X10726786Y-16647357D01*
X10726786Y-16675929D01*
X10712500Y-16718786D01*
X10541071Y-16890214D01*
X10726786Y-16890214D01*
X10983928Y-16690214D02*
X10983928Y-16890214D01*
X10912500Y-16575929D02*
X10841071Y-16790214D01*
X11026786Y-16790214D01*
X11126786Y-16590214D02*
X11126786Y-16647357D01*
X11241071Y-16590214D02*
X11241071Y-16647357D01*
X11683928Y-17004500D02*
X11669643Y-16990214D01*
X11641071Y-16947357D01*
X11626786Y-16918786D01*
X11612500Y-16875929D01*
X11598214Y-16804500D01*
X11598214Y-16747357D01*
X11612500Y-16675929D01*
X11626786Y-16633071D01*
X11641071Y-16604500D01*
X11669643Y-16561643D01*
X11683928Y-16547357D01*
X11955357Y-16890214D02*
X11783928Y-16890214D01*
X11869643Y-16890214D02*
X11869643Y-16590214D01*
X11841071Y-16633071D01*
X11812500Y-16661643D01*
X11783928Y-16675929D01*
X12069643Y-16618786D02*
X12083928Y-16604500D01*
X12112500Y-16590214D01*
X12183928Y-16590214D01*
X12212500Y-16604500D01*
X12226786Y-16618786D01*
X12241071Y-16647357D01*
X12241071Y-16675929D01*
X12226786Y-16718786D01*
X12055357Y-16890214D01*
X12241071Y-16890214D01*
X12598214Y-16890214D02*
X12598214Y-16590214D01*
X12726786Y-16890214D02*
X12726786Y-16733071D01*
X12712500Y-16704500D01*
X12683928Y-16690214D01*
X12641071Y-16690214D01*
X12612500Y-16704500D01*
X12598214Y-16718786D01*
X12912500Y-16890214D02*
X12883928Y-16875929D01*
X12869643Y-16861643D01*
X12855357Y-16833072D01*
X12855357Y-16747357D01*
X12869643Y-16718786D01*
X12883928Y-16704500D01*
X12912500Y-16690214D01*
X12955357Y-16690214D01*
X12983928Y-16704500D01*
X12998214Y-16718786D01*
X13012500Y-16747357D01*
X13012500Y-16833072D01*
X12998214Y-16861643D01*
X12983928Y-16875929D01*
X12955357Y-16890214D01*
X12912500Y-16890214D01*
X13183928Y-16890214D02*
X13155357Y-16875929D01*
X13141071Y-16847357D01*
X13141071Y-16590214D01*
X13412500Y-16875929D02*
X13383928Y-16890214D01*
X13326786Y-16890214D01*
X13298214Y-16875929D01*
X13283928Y-16847357D01*
X13283928Y-16733071D01*
X13298214Y-16704500D01*
X13326786Y-16690214D01*
X13383928Y-16690214D01*
X13412500Y-16704500D01*
X13426786Y-16733071D01*
X13426786Y-16761643D01*
X13283928Y-16790214D01*
X13541071Y-16875929D02*
X13569643Y-16890214D01*
X13626786Y-16890214D01*
X13655357Y-16875929D01*
X13669643Y-16847357D01*
X13669643Y-16833072D01*
X13655357Y-16804500D01*
X13626786Y-16790214D01*
X13583928Y-16790214D01*
X13555357Y-16775929D01*
X13541071Y-16747357D01*
X13541071Y-16733071D01*
X13555357Y-16704500D01*
X13583928Y-16690214D01*
X13626786Y-16690214D01*
X13655357Y-16704500D01*
X13769643Y-17004500D02*
X13783928Y-16990214D01*
X13812500Y-16947357D01*
X13826786Y-16918786D01*
X13841071Y-16875929D01*
X13855357Y-16804500D01*
X13855357Y-16747357D01*
X13841071Y-16675929D01*
X13826786Y-16633071D01*
X13812500Y-16604500D01*
X13783928Y-16561643D01*
X13769643Y-16547357D01*
X6987981Y-17173481D02*
X6987981Y-17127519D01*
X6942019Y-17127519D01*
X6942019Y-17173481D01*
X6987981Y-17173481D01*
X7341071Y-16986214D02*
X7369643Y-16986214D01*
X7398214Y-17000500D01*
X7412500Y-17014786D01*
X7426786Y-17043357D01*
X7441071Y-17100500D01*
X7441071Y-17171929D01*
X7426786Y-17229072D01*
X7412500Y-17257643D01*
X7398214Y-17271929D01*
X7369643Y-17286214D01*
X7341071Y-17286214D01*
X7312500Y-17271929D01*
X7298214Y-17257643D01*
X7283928Y-17229072D01*
X7269643Y-17171929D01*
X7269643Y-17100500D01*
X7283928Y-17043357D01*
X7298214Y-17014786D01*
X7312500Y-17000500D01*
X7341071Y-16986214D01*
X7569643Y-17257643D02*
X7583928Y-17271929D01*
X7569643Y-17286214D01*
X7555357Y-17271929D01*
X7569643Y-17257643D01*
X7569643Y-17286214D01*
X7841071Y-16986214D02*
X7783928Y-16986214D01*
X7755357Y-17000500D01*
X7741071Y-17014786D01*
X7712500Y-17057643D01*
X7698214Y-17114786D01*
X7698214Y-17229072D01*
X7712500Y-17257643D01*
X7726786Y-17271929D01*
X7755357Y-17286214D01*
X7812500Y-17286214D01*
X7841071Y-17271929D01*
X7855357Y-17257643D01*
X7869643Y-17229072D01*
X7869643Y-17157643D01*
X7855357Y-17129072D01*
X7841071Y-17114786D01*
X7812500Y-17100500D01*
X7755357Y-17100500D01*
X7726786Y-17114786D01*
X7712500Y-17129072D01*
X7698214Y-17157643D01*
X8141071Y-16986214D02*
X7998214Y-16986214D01*
X7983928Y-17129072D01*
X7998214Y-17114786D01*
X8026786Y-17100500D01*
X8098214Y-17100500D01*
X8126786Y-17114786D01*
X8141071Y-17129072D01*
X8155357Y-17157643D01*
X8155357Y-17229072D01*
X8141071Y-17257643D01*
X8126786Y-17271929D01*
X8098214Y-17286214D01*
X8026786Y-17286214D01*
X7998214Y-17271929D01*
X7983928Y-17257643D01*
X8283928Y-17286214D02*
X8283928Y-17086214D01*
X8283928Y-17114786D02*
X8298214Y-17100500D01*
X8326786Y-17086214D01*
X8369643Y-17086214D01*
X8398214Y-17100500D01*
X8412500Y-17129072D01*
X8412500Y-17286214D01*
X8412500Y-17129072D02*
X8426786Y-17100500D01*
X8455357Y-17086214D01*
X8498214Y-17086214D01*
X8526786Y-17100500D01*
X8541071Y-17129072D01*
X8541071Y-17286214D01*
X8683928Y-17286214D02*
X8683928Y-17086214D01*
X8683928Y-17114786D02*
X8698214Y-17100500D01*
X8726786Y-17086214D01*
X8769643Y-17086214D01*
X8798214Y-17100500D01*
X8812500Y-17129072D01*
X8812500Y-17286214D01*
X8812500Y-17129072D02*
X8826786Y-17100500D01*
X8855357Y-17086214D01*
X8898214Y-17086214D01*
X8926786Y-17100500D01*
X8941071Y-17129072D01*
X8941071Y-17286214D01*
X9526786Y-16971929D02*
X9269643Y-17357643D01*
X9912500Y-16986214D02*
X9941071Y-16986214D01*
X9969643Y-17000500D01*
X9983928Y-17014786D01*
X9998214Y-17043357D01*
X10012500Y-17100500D01*
X10012500Y-17171929D01*
X9998214Y-17229072D01*
X9983928Y-17257643D01*
X9969643Y-17271929D01*
X9941071Y-17286214D01*
X9912500Y-17286214D01*
X9883928Y-17271929D01*
X9869643Y-17257643D01*
X9855357Y-17229072D01*
X9841071Y-17171929D01*
X9841071Y-17100500D01*
X9855357Y-17043357D01*
X9869643Y-17014786D01*
X9883928Y-17000500D01*
X9912500Y-16986214D01*
X10141071Y-17257643D02*
X10155357Y-17271929D01*
X10141071Y-17286214D01*
X10126786Y-17271929D01*
X10141071Y-17257643D01*
X10141071Y-17286214D01*
X10341071Y-16986214D02*
X10369643Y-16986214D01*
X10398214Y-17000500D01*
X10412500Y-17014786D01*
X10426786Y-17043357D01*
X10441071Y-17100500D01*
X10441071Y-17171929D01*
X10426786Y-17229072D01*
X10412500Y-17257643D01*
X10398214Y-17271929D01*
X10369643Y-17286214D01*
X10341071Y-17286214D01*
X10312500Y-17271929D01*
X10298214Y-17257643D01*
X10283928Y-17229072D01*
X10269643Y-17171929D01*
X10269643Y-17100500D01*
X10283928Y-17043357D01*
X10298214Y-17014786D01*
X10312500Y-17000500D01*
X10341071Y-16986214D01*
X10555357Y-17014786D02*
X10569643Y-17000500D01*
X10598214Y-16986214D01*
X10669643Y-16986214D01*
X10698214Y-17000500D01*
X10712500Y-17014786D01*
X10726786Y-17043357D01*
X10726786Y-17071929D01*
X10712500Y-17114786D01*
X10541071Y-17286214D01*
X10726786Y-17286214D01*
X10983928Y-16986214D02*
X10926786Y-16986214D01*
X10898214Y-17000500D01*
X10883928Y-17014786D01*
X10855357Y-17057643D01*
X10841071Y-17114786D01*
X10841071Y-17229072D01*
X10855357Y-17257643D01*
X10869643Y-17271929D01*
X10898214Y-17286214D01*
X10955357Y-17286214D01*
X10983928Y-17271929D01*
X10998214Y-17257643D01*
X11012500Y-17229072D01*
X11012500Y-17157643D01*
X10998214Y-17129072D01*
X10983928Y-17114786D01*
X10955357Y-17100500D01*
X10898214Y-17100500D01*
X10869643Y-17114786D01*
X10855357Y-17129072D01*
X10841071Y-17157643D01*
X11126786Y-16986214D02*
X11126786Y-17043357D01*
X11241071Y-16986214D02*
X11241071Y-17043357D01*
X11683928Y-17400500D02*
X11669643Y-17386214D01*
X11641071Y-17343357D01*
X11626786Y-17314786D01*
X11612500Y-17271929D01*
X11598214Y-17200500D01*
X11598214Y-17143357D01*
X11612500Y-17071929D01*
X11626786Y-17029072D01*
X11641071Y-17000500D01*
X11669643Y-16957643D01*
X11683928Y-16943357D01*
X11955357Y-17286214D02*
X11783928Y-17286214D01*
X11869643Y-17286214D02*
X11869643Y-16986214D01*
X11841071Y-17029072D01*
X11812500Y-17057643D01*
X11783928Y-17071929D01*
X12141071Y-16986214D02*
X12169643Y-16986214D01*
X12198214Y-17000500D01*
X12212500Y-17014786D01*
X12226786Y-17043357D01*
X12241071Y-17100500D01*
X12241071Y-17171929D01*
X12226786Y-17229072D01*
X12212500Y-17257643D01*
X12198214Y-17271929D01*
X12169643Y-17286214D01*
X12141071Y-17286214D01*
X12112500Y-17271929D01*
X12098214Y-17257643D01*
X12083928Y-17229072D01*
X12069643Y-17171929D01*
X12069643Y-17100500D01*
X12083928Y-17043357D01*
X12098214Y-17014786D01*
X12112500Y-17000500D01*
X12141071Y-16986214D01*
X12598214Y-17286214D02*
X12598214Y-16986214D01*
X12726786Y-17286214D02*
X12726786Y-17129072D01*
X12712500Y-17100500D01*
X12683928Y-17086214D01*
X12641071Y-17086214D01*
X12612500Y-17100500D01*
X12598214Y-17114786D01*
X12912500Y-17286214D02*
X12883928Y-17271929D01*
X12869643Y-17257643D01*
X12855357Y-17229072D01*
X12855357Y-17143357D01*
X12869643Y-17114786D01*
X12883928Y-17100500D01*
X12912500Y-17086214D01*
X12955357Y-17086214D01*
X12983928Y-17100500D01*
X12998214Y-17114786D01*
X13012500Y-17143357D01*
X13012500Y-17229072D01*
X12998214Y-17257643D01*
X12983928Y-17271929D01*
X12955357Y-17286214D01*
X12912500Y-17286214D01*
X13183928Y-17286214D02*
X13155357Y-17271929D01*
X13141071Y-17243357D01*
X13141071Y-16986214D01*
X13412500Y-17271929D02*
X13383928Y-17286214D01*
X13326786Y-17286214D01*
X13298214Y-17271929D01*
X13283928Y-17243357D01*
X13283928Y-17129072D01*
X13298214Y-17100500D01*
X13326786Y-17086214D01*
X13383928Y-17086214D01*
X13412500Y-17100500D01*
X13426786Y-17129072D01*
X13426786Y-17157643D01*
X13283928Y-17186214D01*
X13541071Y-17271929D02*
X13569643Y-17286214D01*
X13626786Y-17286214D01*
X13655357Y-17271929D01*
X13669643Y-17243357D01*
X13669643Y-17229072D01*
X13655357Y-17200500D01*
X13626786Y-17186214D01*
X13583928Y-17186214D01*
X13555357Y-17171929D01*
X13541071Y-17143357D01*
X13541071Y-17129072D01*
X13555357Y-17100500D01*
X13583928Y-17086214D01*
X13626786Y-17086214D01*
X13655357Y-17100500D01*
X13769643Y-17400500D02*
X13783928Y-17386214D01*
X13812500Y-17343357D01*
X13826786Y-17314786D01*
X13841071Y-17271929D01*
X13855357Y-17200500D01*
X13855357Y-17143357D01*
X13841071Y-17071929D01*
X13826786Y-17029072D01*
X13812500Y-17000500D01*
X13783928Y-16957643D01*
X13769643Y-16943357D01*
X6962500Y-17581500D02*
X6997500Y-17546500D01*
X6962500Y-17511500D01*
X6927500Y-17546500D01*
X6962500Y-17581500D01*
X7341071Y-17382214D02*
X7369643Y-17382214D01*
X7398214Y-17396500D01*
X7412500Y-17410786D01*
X7426786Y-17439357D01*
X7441071Y-17496500D01*
X7441071Y-17567929D01*
X7426786Y-17625072D01*
X7412500Y-17653643D01*
X7398214Y-17667929D01*
X7369643Y-17682214D01*
X7341071Y-17682214D01*
X7312500Y-17667929D01*
X7298214Y-17653643D01*
X7283928Y-17625072D01*
X7269643Y-17567929D01*
X7269643Y-17496500D01*
X7283928Y-17439357D01*
X7298214Y-17410786D01*
X7312500Y-17396500D01*
X7341071Y-17382214D01*
X7569643Y-17653643D02*
X7583928Y-17667929D01*
X7569643Y-17682214D01*
X7555357Y-17667929D01*
X7569643Y-17653643D01*
X7569643Y-17682214D01*
X7683928Y-17382214D02*
X7883928Y-17382214D01*
X7755357Y-17682214D01*
X8055357Y-17382214D02*
X8083928Y-17382214D01*
X8112500Y-17396500D01*
X8126786Y-17410786D01*
X8141071Y-17439357D01*
X8155357Y-17496500D01*
X8155357Y-17567929D01*
X8141071Y-17625072D01*
X8126786Y-17653643D01*
X8112500Y-17667929D01*
X8083928Y-17682214D01*
X8055357Y-17682214D01*
X8026786Y-17667929D01*
X8012500Y-17653643D01*
X7998214Y-17625072D01*
X7983928Y-17567929D01*
X7983928Y-17496500D01*
X7998214Y-17439357D01*
X8012500Y-17410786D01*
X8026786Y-17396500D01*
X8055357Y-17382214D01*
X8283928Y-17682214D02*
X8283928Y-17482214D01*
X8283928Y-17510786D02*
X8298214Y-17496500D01*
X8326786Y-17482214D01*
X8369643Y-17482214D01*
X8398214Y-17496500D01*
X8412500Y-17525072D01*
X8412500Y-17682214D01*
X8412500Y-17525072D02*
X8426786Y-17496500D01*
X8455357Y-17482214D01*
X8498214Y-17482214D01*
X8526786Y-17496500D01*
X8541071Y-17525072D01*
X8541071Y-17682214D01*
X8683928Y-17682214D02*
X8683928Y-17482214D01*
X8683928Y-17510786D02*
X8698214Y-17496500D01*
X8726786Y-17482214D01*
X8769643Y-17482214D01*
X8798214Y-17496500D01*
X8812500Y-17525072D01*
X8812500Y-17682214D01*
X8812500Y-17525072D02*
X8826786Y-17496500D01*
X8855357Y-17482214D01*
X8898214Y-17482214D01*
X8926786Y-17496500D01*
X8941071Y-17525072D01*
X8941071Y-17682214D01*
X9526786Y-17367929D02*
X9269643Y-17753643D01*
X9912500Y-17382214D02*
X9941071Y-17382214D01*
X9969643Y-17396500D01*
X9983928Y-17410786D01*
X9998214Y-17439357D01*
X10012500Y-17496500D01*
X10012500Y-17567929D01*
X9998214Y-17625072D01*
X9983928Y-17653643D01*
X9969643Y-17667929D01*
X9941071Y-17682214D01*
X9912500Y-17682214D01*
X9883928Y-17667929D01*
X9869643Y-17653643D01*
X9855357Y-17625072D01*
X9841071Y-17567929D01*
X9841071Y-17496500D01*
X9855357Y-17439357D01*
X9869643Y-17410786D01*
X9883928Y-17396500D01*
X9912500Y-17382214D01*
X10141071Y-17653643D02*
X10155357Y-17667929D01*
X10141071Y-17682214D01*
X10126786Y-17667929D01*
X10141071Y-17653643D01*
X10141071Y-17682214D01*
X10341071Y-17382214D02*
X10369643Y-17382214D01*
X10398214Y-17396500D01*
X10412500Y-17410786D01*
X10426786Y-17439357D01*
X10441071Y-17496500D01*
X10441071Y-17567929D01*
X10426786Y-17625072D01*
X10412500Y-17653643D01*
X10398214Y-17667929D01*
X10369643Y-17682214D01*
X10341071Y-17682214D01*
X10312500Y-17667929D01*
X10298214Y-17653643D01*
X10283928Y-17625072D01*
X10269643Y-17567929D01*
X10269643Y-17496500D01*
X10283928Y-17439357D01*
X10298214Y-17410786D01*
X10312500Y-17396500D01*
X10341071Y-17382214D01*
X10555357Y-17410786D02*
X10569643Y-17396500D01*
X10598214Y-17382214D01*
X10669643Y-17382214D01*
X10698214Y-17396500D01*
X10712500Y-17410786D01*
X10726786Y-17439357D01*
X10726786Y-17467929D01*
X10712500Y-17510786D01*
X10541071Y-17682214D01*
X10726786Y-17682214D01*
X10898214Y-17510786D02*
X10869643Y-17496500D01*
X10855357Y-17482214D01*
X10841071Y-17453643D01*
X10841071Y-17439357D01*
X10855357Y-17410786D01*
X10869643Y-17396500D01*
X10898214Y-17382214D01*
X10955357Y-17382214D01*
X10983928Y-17396500D01*
X10998214Y-17410786D01*
X11012500Y-17439357D01*
X11012500Y-17453643D01*
X10998214Y-17482214D01*
X10983928Y-17496500D01*
X10955357Y-17510786D01*
X10898214Y-17510786D01*
X10869643Y-17525072D01*
X10855357Y-17539357D01*
X10841071Y-17567929D01*
X10841071Y-17625072D01*
X10855357Y-17653643D01*
X10869643Y-17667929D01*
X10898214Y-17682214D01*
X10955357Y-17682214D01*
X10983928Y-17667929D01*
X10998214Y-17653643D01*
X11012500Y-17625072D01*
X11012500Y-17567929D01*
X10998214Y-17539357D01*
X10983928Y-17525072D01*
X10955357Y-17510786D01*
X11126786Y-17382214D02*
X11126786Y-17439357D01*
X11241071Y-17382214D02*
X11241071Y-17439357D01*
X11683928Y-17796500D02*
X11669643Y-17782214D01*
X11641071Y-17739357D01*
X11626786Y-17710786D01*
X11612500Y-17667929D01*
X11598214Y-17596500D01*
X11598214Y-17539357D01*
X11612500Y-17467929D01*
X11626786Y-17425072D01*
X11641071Y-17396500D01*
X11669643Y-17353643D01*
X11683928Y-17339357D01*
X11841071Y-17510786D02*
X11812500Y-17496500D01*
X11798214Y-17482214D01*
X11783928Y-17453643D01*
X11783928Y-17439357D01*
X11798214Y-17410786D01*
X11812500Y-17396500D01*
X11841071Y-17382214D01*
X11898214Y-17382214D01*
X11926786Y-17396500D01*
X11941071Y-17410786D01*
X11955357Y-17439357D01*
X11955357Y-17453643D01*
X11941071Y-17482214D01*
X11926786Y-17496500D01*
X11898214Y-17510786D01*
X11841071Y-17510786D01*
X11812500Y-17525072D01*
X11798214Y-17539357D01*
X11783928Y-17567929D01*
X11783928Y-17625072D01*
X11798214Y-17653643D01*
X11812500Y-17667929D01*
X11841071Y-17682214D01*
X11898214Y-17682214D01*
X11926786Y-17667929D01*
X11941071Y-17653643D01*
X11955357Y-17625072D01*
X11955357Y-17567929D01*
X11941071Y-17539357D01*
X11926786Y-17525072D01*
X11898214Y-17510786D01*
X12312500Y-17682214D02*
X12312500Y-17382214D01*
X12441071Y-17682214D02*
X12441071Y-17525072D01*
X12426786Y-17496500D01*
X12398214Y-17482214D01*
X12355357Y-17482214D01*
X12326786Y-17496500D01*
X12312500Y-17510786D01*
X12626786Y-17682214D02*
X12598214Y-17667929D01*
X12583928Y-17653643D01*
X12569643Y-17625072D01*
X12569643Y-17539357D01*
X12583928Y-17510786D01*
X12598214Y-17496500D01*
X12626786Y-17482214D01*
X12669643Y-17482214D01*
X12698214Y-17496500D01*
X12712500Y-17510786D01*
X12726786Y-17539357D01*
X12726786Y-17625072D01*
X12712500Y-17653643D01*
X12698214Y-17667929D01*
X12669643Y-17682214D01*
X12626786Y-17682214D01*
X12898214Y-17682214D02*
X12869643Y-17667929D01*
X12855357Y-17639357D01*
X12855357Y-17382214D01*
X13126786Y-17667929D02*
X13098214Y-17682214D01*
X13041071Y-17682214D01*
X13012500Y-17667929D01*
X12998214Y-17639357D01*
X12998214Y-17525072D01*
X13012500Y-17496500D01*
X13041071Y-17482214D01*
X13098214Y-17482214D01*
X13126786Y-17496500D01*
X13141071Y-17525072D01*
X13141071Y-17553643D01*
X12998214Y-17582214D01*
X13255357Y-17667929D02*
X13283928Y-17682214D01*
X13341071Y-17682214D01*
X13369643Y-17667929D01*
X13383928Y-17639357D01*
X13383928Y-17625072D01*
X13369643Y-17596500D01*
X13341071Y-17582214D01*
X13298214Y-17582214D01*
X13269643Y-17567929D01*
X13255357Y-17539357D01*
X13255357Y-17525072D01*
X13269643Y-17496500D01*
X13298214Y-17482214D01*
X13341071Y-17482214D01*
X13369643Y-17496500D01*
X13483928Y-17796500D02*
X13498214Y-17782214D01*
X13526786Y-17739357D01*
X13541071Y-17710786D01*
X13555357Y-17667929D01*
X13569643Y-17596500D01*
X13569643Y-17539357D01*
X13555357Y-17467929D01*
X13541071Y-17425072D01*
X13526786Y-17396500D01*
X13498214Y-17353643D01*
X13483928Y-17339357D01*
X6917490Y-17902495D02*
X6997500Y-17982505D01*
X6997500Y-17902495D02*
X6917490Y-17982505D01*
X6997500Y-17942500D02*
G75*
G03X6997500Y-17942500I-40005J0D01*
G01*
X7341071Y-17778214D02*
X7369643Y-17778214D01*
X7398214Y-17792500D01*
X7412500Y-17806786D01*
X7426786Y-17835357D01*
X7441071Y-17892500D01*
X7441071Y-17963929D01*
X7426786Y-18021072D01*
X7412500Y-18049643D01*
X7398214Y-18063929D01*
X7369643Y-18078214D01*
X7341071Y-18078214D01*
X7312500Y-18063929D01*
X7298214Y-18049643D01*
X7283928Y-18021072D01*
X7269643Y-17963929D01*
X7269643Y-17892500D01*
X7283928Y-17835357D01*
X7298214Y-17806786D01*
X7312500Y-17792500D01*
X7341071Y-17778214D01*
X7569643Y-18049643D02*
X7583928Y-18063929D01*
X7569643Y-18078214D01*
X7555357Y-18063929D01*
X7569643Y-18049643D01*
X7569643Y-18078214D01*
X7755357Y-17906786D02*
X7726786Y-17892500D01*
X7712500Y-17878214D01*
X7698214Y-17849643D01*
X7698214Y-17835357D01*
X7712500Y-17806786D01*
X7726786Y-17792500D01*
X7755357Y-17778214D01*
X7812500Y-17778214D01*
X7841071Y-17792500D01*
X7855357Y-17806786D01*
X7869643Y-17835357D01*
X7869643Y-17849643D01*
X7855357Y-17878214D01*
X7841071Y-17892500D01*
X7812500Y-17906786D01*
X7755357Y-17906786D01*
X7726786Y-17921072D01*
X7712500Y-17935357D01*
X7698214Y-17963929D01*
X7698214Y-18021072D01*
X7712500Y-18049643D01*
X7726786Y-18063929D01*
X7755357Y-18078214D01*
X7812500Y-18078214D01*
X7841071Y-18063929D01*
X7855357Y-18049643D01*
X7869643Y-18021072D01*
X7869643Y-17963929D01*
X7855357Y-17935357D01*
X7841071Y-17921072D01*
X7812500Y-17906786D01*
X8055357Y-17778214D02*
X8083928Y-17778214D01*
X8112500Y-17792500D01*
X8126786Y-17806786D01*
X8141071Y-17835357D01*
X8155357Y-17892500D01*
X8155357Y-17963929D01*
X8141071Y-18021072D01*
X8126786Y-18049643D01*
X8112500Y-18063929D01*
X8083928Y-18078214D01*
X8055357Y-18078214D01*
X8026786Y-18063929D01*
X8012500Y-18049643D01*
X7998214Y-18021072D01*
X7983928Y-17963929D01*
X7983928Y-17892500D01*
X7998214Y-17835357D01*
X8012500Y-17806786D01*
X8026786Y-17792500D01*
X8055357Y-17778214D01*
X8283928Y-18078214D02*
X8283928Y-17878214D01*
X8283928Y-17906786D02*
X8298214Y-17892500D01*
X8326786Y-17878214D01*
X8369643Y-17878214D01*
X8398214Y-17892500D01*
X8412500Y-17921072D01*
X8412500Y-18078214D01*
X8412500Y-17921072D02*
X8426786Y-17892500D01*
X8455357Y-17878214D01*
X8498214Y-17878214D01*
X8526786Y-17892500D01*
X8541071Y-17921072D01*
X8541071Y-18078214D01*
X8683928Y-18078214D02*
X8683928Y-17878214D01*
X8683928Y-17906786D02*
X8698214Y-17892500D01*
X8726786Y-17878214D01*
X8769643Y-17878214D01*
X8798214Y-17892500D01*
X8812500Y-17921072D01*
X8812500Y-18078214D01*
X8812500Y-17921072D02*
X8826786Y-17892500D01*
X8855357Y-17878214D01*
X8898214Y-17878214D01*
X8926786Y-17892500D01*
X8941071Y-17921072D01*
X8941071Y-18078214D01*
X9526786Y-17763929D02*
X9269643Y-18149643D01*
X9912500Y-17778214D02*
X9941071Y-17778214D01*
X9969643Y-17792500D01*
X9983928Y-17806786D01*
X9998214Y-17835357D01*
X10012500Y-17892500D01*
X10012500Y-17963929D01*
X9998214Y-18021072D01*
X9983928Y-18049643D01*
X9969643Y-18063929D01*
X9941071Y-18078214D01*
X9912500Y-18078214D01*
X9883928Y-18063929D01*
X9869643Y-18049643D01*
X9855357Y-18021072D01*
X9841071Y-17963929D01*
X9841071Y-17892500D01*
X9855357Y-17835357D01*
X9869643Y-17806786D01*
X9883928Y-17792500D01*
X9912500Y-17778214D01*
X10141071Y-18049643D02*
X10155357Y-18063929D01*
X10141071Y-18078214D01*
X10126786Y-18063929D01*
X10141071Y-18049643D01*
X10141071Y-18078214D01*
X10341071Y-17778214D02*
X10369643Y-17778214D01*
X10398214Y-17792500D01*
X10412500Y-17806786D01*
X10426786Y-17835357D01*
X10441071Y-17892500D01*
X10441071Y-17963929D01*
X10426786Y-18021072D01*
X10412500Y-18049643D01*
X10398214Y-18063929D01*
X10369643Y-18078214D01*
X10341071Y-18078214D01*
X10312500Y-18063929D01*
X10298214Y-18049643D01*
X10283928Y-18021072D01*
X10269643Y-17963929D01*
X10269643Y-17892500D01*
X10283928Y-17835357D01*
X10298214Y-17806786D01*
X10312500Y-17792500D01*
X10341071Y-17778214D01*
X10541071Y-17778214D02*
X10726786Y-17778214D01*
X10626786Y-17892500D01*
X10669643Y-17892500D01*
X10698214Y-17906786D01*
X10712500Y-17921072D01*
X10726786Y-17949643D01*
X10726786Y-18021072D01*
X10712500Y-18049643D01*
X10698214Y-18063929D01*
X10669643Y-18078214D01*
X10583928Y-18078214D01*
X10555357Y-18063929D01*
X10541071Y-18049643D01*
X10841071Y-17806786D02*
X10855357Y-17792500D01*
X10883928Y-17778214D01*
X10955357Y-17778214D01*
X10983928Y-17792500D01*
X10998214Y-17806786D01*
X11012500Y-17835357D01*
X11012500Y-17863929D01*
X10998214Y-17906786D01*
X10826786Y-18078214D01*
X11012500Y-18078214D01*
X11126786Y-17778214D02*
X11126786Y-17835357D01*
X11241071Y-17778214D02*
X11241071Y-17835357D01*
X11683928Y-18192500D02*
X11669643Y-18178214D01*
X11641071Y-18135357D01*
X11626786Y-18106786D01*
X11612500Y-18063929D01*
X11598214Y-17992500D01*
X11598214Y-17935357D01*
X11612500Y-17863929D01*
X11626786Y-17821072D01*
X11641071Y-17792500D01*
X11669643Y-17749643D01*
X11683928Y-17735357D01*
X11926786Y-17778214D02*
X11869643Y-17778214D01*
X11841071Y-17792500D01*
X11826786Y-17806786D01*
X11798214Y-17849643D01*
X11783928Y-17906786D01*
X11783928Y-18021072D01*
X11798214Y-18049643D01*
X11812500Y-18063929D01*
X11841071Y-18078214D01*
X11898214Y-18078214D01*
X11926786Y-18063929D01*
X11941071Y-18049643D01*
X11955357Y-18021072D01*
X11955357Y-17949643D01*
X11941071Y-17921072D01*
X11926786Y-17906786D01*
X11898214Y-17892500D01*
X11841071Y-17892500D01*
X11812500Y-17906786D01*
X11798214Y-17921072D01*
X11783928Y-17949643D01*
X12212500Y-17878214D02*
X12212500Y-18078214D01*
X12141071Y-17763929D02*
X12069643Y-17978214D01*
X12255357Y-17978214D01*
X12598214Y-18078214D02*
X12598214Y-17778214D01*
X12726786Y-18078214D02*
X12726786Y-17921072D01*
X12712500Y-17892500D01*
X12683928Y-17878214D01*
X12641071Y-17878214D01*
X12612500Y-17892500D01*
X12598214Y-17906786D01*
X12912500Y-18078214D02*
X12883928Y-18063929D01*
X12869643Y-18049643D01*
X12855357Y-18021072D01*
X12855357Y-17935357D01*
X12869643Y-17906786D01*
X12883928Y-17892500D01*
X12912500Y-17878214D01*
X12955357Y-17878214D01*
X12983928Y-17892500D01*
X12998214Y-17906786D01*
X13012500Y-17935357D01*
X13012500Y-18021072D01*
X12998214Y-18049643D01*
X12983928Y-18063929D01*
X12955357Y-18078214D01*
X12912500Y-18078214D01*
X13183928Y-18078214D02*
X13155357Y-18063929D01*
X13141071Y-18035357D01*
X13141071Y-17778214D01*
X13412500Y-18063929D02*
X13383928Y-18078214D01*
X13326786Y-18078214D01*
X13298214Y-18063929D01*
X13283928Y-18035357D01*
X13283928Y-17921072D01*
X13298214Y-17892500D01*
X13326786Y-17878214D01*
X13383928Y-17878214D01*
X13412500Y-17892500D01*
X13426786Y-17921072D01*
X13426786Y-17949643D01*
X13283928Y-17978214D01*
X13541071Y-18063929D02*
X13569643Y-18078214D01*
X13626786Y-18078214D01*
X13655357Y-18063929D01*
X13669643Y-18035357D01*
X13669643Y-18021072D01*
X13655357Y-17992500D01*
X13626786Y-17978214D01*
X13583928Y-17978214D01*
X13555357Y-17963929D01*
X13541071Y-17935357D01*
X13541071Y-17921072D01*
X13555357Y-17892500D01*
X13583928Y-17878214D01*
X13626786Y-17878214D01*
X13655357Y-17892500D01*
X13769643Y-18192500D02*
X13783928Y-18178214D01*
X13812500Y-18135357D01*
X13826786Y-18106786D01*
X13841071Y-18063929D01*
X13855357Y-17992500D01*
X13855357Y-17935357D01*
X13841071Y-17863929D01*
X13826786Y-17821072D01*
X13812500Y-17792500D01*
X13783928Y-17749643D01*
X13769643Y-17735357D01*
X6907500Y-18293500D02*
X6997500Y-18383500D01*
X6997500Y-18293500D02*
X6907500Y-18383500D01*
X6952500Y-18293500D02*
X6952500Y-18383500D01*
X6907500Y-18338500D02*
X6997500Y-18338500D01*
X7341071Y-18174214D02*
X7369643Y-18174214D01*
X7398214Y-18188500D01*
X7412500Y-18202786D01*
X7426786Y-18231357D01*
X7441071Y-18288500D01*
X7441071Y-18359929D01*
X7426786Y-18417072D01*
X7412500Y-18445643D01*
X7398214Y-18459929D01*
X7369643Y-18474214D01*
X7341071Y-18474214D01*
X7312500Y-18459929D01*
X7298214Y-18445643D01*
X7283928Y-18417072D01*
X7269643Y-18359929D01*
X7269643Y-18288500D01*
X7283928Y-18231357D01*
X7298214Y-18202786D01*
X7312500Y-18188500D01*
X7341071Y-18174214D01*
X7569643Y-18445643D02*
X7583928Y-18459929D01*
X7569643Y-18474214D01*
X7555357Y-18459929D01*
X7569643Y-18445643D01*
X7569643Y-18474214D01*
X7726786Y-18474214D02*
X7783928Y-18474214D01*
X7812500Y-18459929D01*
X7826786Y-18445643D01*
X7855357Y-18402786D01*
X7869643Y-18345643D01*
X7869643Y-18231357D01*
X7855357Y-18202786D01*
X7841071Y-18188500D01*
X7812500Y-18174214D01*
X7755357Y-18174214D01*
X7726786Y-18188500D01*
X7712500Y-18202786D01*
X7698214Y-18231357D01*
X7698214Y-18302786D01*
X7712500Y-18331357D01*
X7726786Y-18345643D01*
X7755357Y-18359929D01*
X7812500Y-18359929D01*
X7841071Y-18345643D01*
X7855357Y-18331357D01*
X7869643Y-18302786D01*
X8055357Y-18174214D02*
X8083928Y-18174214D01*
X8112500Y-18188500D01*
X8126786Y-18202786D01*
X8141071Y-18231357D01*
X8155357Y-18288500D01*
X8155357Y-18359929D01*
X8141071Y-18417072D01*
X8126786Y-18445643D01*
X8112500Y-18459929D01*
X8083928Y-18474214D01*
X8055357Y-18474214D01*
X8026786Y-18459929D01*
X8012500Y-18445643D01*
X7998214Y-18417072D01*
X7983928Y-18359929D01*
X7983928Y-18288500D01*
X7998214Y-18231357D01*
X8012500Y-18202786D01*
X8026786Y-18188500D01*
X8055357Y-18174214D01*
X8283928Y-18474214D02*
X8283928Y-18274214D01*
X8283928Y-18302786D02*
X8298214Y-18288500D01*
X8326786Y-18274214D01*
X8369643Y-18274214D01*
X8398214Y-18288500D01*
X8412500Y-18317072D01*
X8412500Y-18474214D01*
X8412500Y-18317072D02*
X8426786Y-18288500D01*
X8455357Y-18274214D01*
X8498214Y-18274214D01*
X8526786Y-18288500D01*
X8541071Y-18317072D01*
X8541071Y-18474214D01*
X8683928Y-18474214D02*
X8683928Y-18274214D01*
X8683928Y-18302786D02*
X8698214Y-18288500D01*
X8726786Y-18274214D01*
X8769643Y-18274214D01*
X8798214Y-18288500D01*
X8812500Y-18317072D01*
X8812500Y-18474214D01*
X8812500Y-18317072D02*
X8826786Y-18288500D01*
X8855357Y-18274214D01*
X8898214Y-18274214D01*
X8926786Y-18288500D01*
X8941071Y-18317072D01*
X8941071Y-18474214D01*
X9526786Y-18159929D02*
X9269643Y-18545643D01*
X9912500Y-18174214D02*
X9941071Y-18174214D01*
X9969643Y-18188500D01*
X9983928Y-18202786D01*
X9998214Y-18231357D01*
X10012500Y-18288500D01*
X10012500Y-18359929D01*
X9998214Y-18417072D01*
X9983928Y-18445643D01*
X9969643Y-18459929D01*
X9941071Y-18474214D01*
X9912500Y-18474214D01*
X9883928Y-18459929D01*
X9869643Y-18445643D01*
X9855357Y-18417072D01*
X9841071Y-18359929D01*
X9841071Y-18288500D01*
X9855357Y-18231357D01*
X9869643Y-18202786D01*
X9883928Y-18188500D01*
X9912500Y-18174214D01*
X10141071Y-18445643D02*
X10155357Y-18459929D01*
X10141071Y-18474214D01*
X10126786Y-18459929D01*
X10141071Y-18445643D01*
X10141071Y-18474214D01*
X10341071Y-18174214D02*
X10369643Y-18174214D01*
X10398214Y-18188500D01*
X10412500Y-18202786D01*
X10426786Y-18231357D01*
X10441071Y-18288500D01*
X10441071Y-18359929D01*
X10426786Y-18417072D01*
X10412500Y-18445643D01*
X10398214Y-18459929D01*
X10369643Y-18474214D01*
X10341071Y-18474214D01*
X10312500Y-18459929D01*
X10298214Y-18445643D01*
X10283928Y-18417072D01*
X10269643Y-18359929D01*
X10269643Y-18288500D01*
X10283928Y-18231357D01*
X10298214Y-18202786D01*
X10312500Y-18188500D01*
X10341071Y-18174214D01*
X10541071Y-18174214D02*
X10726786Y-18174214D01*
X10626786Y-18288500D01*
X10669643Y-18288500D01*
X10698214Y-18302786D01*
X10712500Y-18317072D01*
X10726786Y-18345643D01*
X10726786Y-18417072D01*
X10712500Y-18445643D01*
X10698214Y-18459929D01*
X10669643Y-18474214D01*
X10583928Y-18474214D01*
X10555357Y-18459929D01*
X10541071Y-18445643D01*
X10998214Y-18174214D02*
X10855357Y-18174214D01*
X10841071Y-18317072D01*
X10855357Y-18302786D01*
X10883928Y-18288500D01*
X10955357Y-18288500D01*
X10983928Y-18302786D01*
X10998214Y-18317072D01*
X11012500Y-18345643D01*
X11012500Y-18417072D01*
X10998214Y-18445643D01*
X10983928Y-18459929D01*
X10955357Y-18474214D01*
X10883928Y-18474214D01*
X10855357Y-18459929D01*
X10841071Y-18445643D01*
X11126786Y-18174214D02*
X11126786Y-18231357D01*
X11241071Y-18174214D02*
X11241071Y-18231357D01*
X11683928Y-18588500D02*
X11669643Y-18574214D01*
X11641071Y-18531357D01*
X11626786Y-18502786D01*
X11612500Y-18459929D01*
X11598214Y-18388500D01*
X11598214Y-18331357D01*
X11612500Y-18259929D01*
X11626786Y-18217072D01*
X11641071Y-18188500D01*
X11669643Y-18145643D01*
X11683928Y-18131357D01*
X11783928Y-18202786D02*
X11798214Y-18188500D01*
X11826786Y-18174214D01*
X11898214Y-18174214D01*
X11926786Y-18188500D01*
X11941071Y-18202786D01*
X11955357Y-18231357D01*
X11955357Y-18259929D01*
X11941071Y-18302786D01*
X11769643Y-18474214D01*
X11955357Y-18474214D01*
X12312500Y-18474214D02*
X12312500Y-18174214D01*
X12441071Y-18474214D02*
X12441071Y-18317072D01*
X12426786Y-18288500D01*
X12398214Y-18274214D01*
X12355357Y-18274214D01*
X12326786Y-18288500D01*
X12312500Y-18302786D01*
X12626786Y-18474214D02*
X12598214Y-18459929D01*
X12583928Y-18445643D01*
X12569643Y-18417072D01*
X12569643Y-18331357D01*
X12583928Y-18302786D01*
X12598214Y-18288500D01*
X12626786Y-18274214D01*
X12669643Y-18274214D01*
X12698214Y-18288500D01*
X12712500Y-18302786D01*
X12726786Y-18331357D01*
X12726786Y-18417072D01*
X12712500Y-18445643D01*
X12698214Y-18459929D01*
X12669643Y-18474214D01*
X12626786Y-18474214D01*
X12898214Y-18474214D02*
X12869643Y-18459929D01*
X12855357Y-18431357D01*
X12855357Y-18174214D01*
X13126786Y-18459929D02*
X13098214Y-18474214D01*
X13041071Y-18474214D01*
X13012500Y-18459929D01*
X12998214Y-18431357D01*
X12998214Y-18317072D01*
X13012500Y-18288500D01*
X13041071Y-18274214D01*
X13098214Y-18274214D01*
X13126786Y-18288500D01*
X13141071Y-18317072D01*
X13141071Y-18345643D01*
X12998214Y-18374214D01*
X13255357Y-18459929D02*
X13283928Y-18474214D01*
X13341071Y-18474214D01*
X13369643Y-18459929D01*
X13383928Y-18431357D01*
X13383928Y-18417072D01*
X13369643Y-18388500D01*
X13341071Y-18374214D01*
X13298214Y-18374214D01*
X13269643Y-18359929D01*
X13255357Y-18331357D01*
X13255357Y-18317072D01*
X13269643Y-18288500D01*
X13298214Y-18274214D01*
X13341071Y-18274214D01*
X13369643Y-18288500D01*
X13483928Y-18588500D02*
X13498214Y-18574214D01*
X13526786Y-18531357D01*
X13541071Y-18502786D01*
X13555357Y-18459929D01*
X13569643Y-18388500D01*
X13569643Y-18331357D01*
X13555357Y-18259929D01*
X13541071Y-18217072D01*
X13526786Y-18188500D01*
X13498214Y-18145643D01*
X13483928Y-18131357D01*
X6897500Y-18684500D02*
X6997500Y-18784500D01*
X6997500Y-18684500D02*
X6897500Y-18784500D01*
X6982856Y-18769856D02*
X6982856Y-18699144D01*
X6912144Y-18699144D01*
X6912144Y-18769856D01*
X6982856Y-18769856D01*
X7441071Y-18870214D02*
X7269643Y-18870214D01*
X7355357Y-18870214D02*
X7355357Y-18570214D01*
X7326786Y-18613072D01*
X7298214Y-18641643D01*
X7269643Y-18655929D01*
X7569643Y-18841643D02*
X7583928Y-18855929D01*
X7569643Y-18870214D01*
X7555357Y-18855929D01*
X7569643Y-18841643D01*
X7569643Y-18870214D01*
X7769643Y-18570214D02*
X7798214Y-18570214D01*
X7826786Y-18584500D01*
X7841071Y-18598786D01*
X7855357Y-18627357D01*
X7869643Y-18684500D01*
X7869643Y-18755929D01*
X7855357Y-18813072D01*
X7841071Y-18841643D01*
X7826786Y-18855929D01*
X7798214Y-18870214D01*
X7769643Y-18870214D01*
X7741071Y-18855929D01*
X7726786Y-18841643D01*
X7712500Y-18813072D01*
X7698214Y-18755929D01*
X7698214Y-18684500D01*
X7712500Y-18627357D01*
X7726786Y-18598786D01*
X7741071Y-18584500D01*
X7769643Y-18570214D01*
X8055357Y-18570214D02*
X8083928Y-18570214D01*
X8112500Y-18584500D01*
X8126786Y-18598786D01*
X8141071Y-18627357D01*
X8155357Y-18684500D01*
X8155357Y-18755929D01*
X8141071Y-18813072D01*
X8126786Y-18841643D01*
X8112500Y-18855929D01*
X8083928Y-18870214D01*
X8055357Y-18870214D01*
X8026786Y-18855929D01*
X8012500Y-18841643D01*
X7998214Y-18813072D01*
X7983928Y-18755929D01*
X7983928Y-18684500D01*
X7998214Y-18627357D01*
X8012500Y-18598786D01*
X8026786Y-18584500D01*
X8055357Y-18570214D01*
X8283928Y-18870214D02*
X8283928Y-18670214D01*
X8283928Y-18698786D02*
X8298214Y-18684500D01*
X8326786Y-18670214D01*
X8369643Y-18670214D01*
X8398214Y-18684500D01*
X8412500Y-18713072D01*
X8412500Y-18870214D01*
X8412500Y-18713072D02*
X8426786Y-18684500D01*
X8455357Y-18670214D01*
X8498214Y-18670214D01*
X8526786Y-18684500D01*
X8541071Y-18713072D01*
X8541071Y-18870214D01*
X8683928Y-18870214D02*
X8683928Y-18670214D01*
X8683928Y-18698786D02*
X8698214Y-18684500D01*
X8726786Y-18670214D01*
X8769643Y-18670214D01*
X8798214Y-18684500D01*
X8812500Y-18713072D01*
X8812500Y-18870214D01*
X8812500Y-18713072D02*
X8826786Y-18684500D01*
X8855357Y-18670214D01*
X8898214Y-18670214D01*
X8926786Y-18684500D01*
X8941071Y-18713072D01*
X8941071Y-18870214D01*
X9526786Y-18555929D02*
X9269643Y-18941643D01*
X9912500Y-18570214D02*
X9941071Y-18570214D01*
X9969643Y-18584500D01*
X9983928Y-18598786D01*
X9998214Y-18627357D01*
X10012500Y-18684500D01*
X10012500Y-18755929D01*
X9998214Y-18813072D01*
X9983928Y-18841643D01*
X9969643Y-18855929D01*
X9941071Y-18870214D01*
X9912500Y-18870214D01*
X9883928Y-18855929D01*
X9869643Y-18841643D01*
X9855357Y-18813072D01*
X9841071Y-18755929D01*
X9841071Y-18684500D01*
X9855357Y-18627357D01*
X9869643Y-18598786D01*
X9883928Y-18584500D01*
X9912500Y-18570214D01*
X10141071Y-18841643D02*
X10155357Y-18855929D01*
X10141071Y-18870214D01*
X10126786Y-18855929D01*
X10141071Y-18841643D01*
X10141071Y-18870214D01*
X10341071Y-18570214D02*
X10369643Y-18570214D01*
X10398214Y-18584500D01*
X10412500Y-18598786D01*
X10426786Y-18627357D01*
X10441071Y-18684500D01*
X10441071Y-18755929D01*
X10426786Y-18813072D01*
X10412500Y-18841643D01*
X10398214Y-18855929D01*
X10369643Y-18870214D01*
X10341071Y-18870214D01*
X10312500Y-18855929D01*
X10298214Y-18841643D01*
X10283928Y-18813072D01*
X10269643Y-18755929D01*
X10269643Y-18684500D01*
X10283928Y-18627357D01*
X10298214Y-18598786D01*
X10312500Y-18584500D01*
X10341071Y-18570214D01*
X10541071Y-18570214D02*
X10726786Y-18570214D01*
X10626786Y-18684500D01*
X10669643Y-18684500D01*
X10698214Y-18698786D01*
X10712500Y-18713072D01*
X10726786Y-18741643D01*
X10726786Y-18813072D01*
X10712500Y-18841643D01*
X10698214Y-18855929D01*
X10669643Y-18870214D01*
X10583928Y-18870214D01*
X10555357Y-18855929D01*
X10541071Y-18841643D01*
X10869643Y-18870214D02*
X10926786Y-18870214D01*
X10955357Y-18855929D01*
X10969643Y-18841643D01*
X10998214Y-18798786D01*
X11012500Y-18741643D01*
X11012500Y-18627357D01*
X10998214Y-18598786D01*
X10983928Y-18584500D01*
X10955357Y-18570214D01*
X10898214Y-18570214D01*
X10869643Y-18584500D01*
X10855357Y-18598786D01*
X10841071Y-18627357D01*
X10841071Y-18698786D01*
X10855357Y-18727357D01*
X10869643Y-18741643D01*
X10898214Y-18755929D01*
X10955357Y-18755929D01*
X10983928Y-18741643D01*
X10998214Y-18727357D01*
X11012500Y-18698786D01*
X11126786Y-18570214D02*
X11126786Y-18627357D01*
X11241071Y-18570214D02*
X11241071Y-18627357D01*
X11683928Y-18984500D02*
X11669643Y-18970214D01*
X11641071Y-18927357D01*
X11626786Y-18898786D01*
X11612500Y-18855929D01*
X11598214Y-18784500D01*
X11598214Y-18727357D01*
X11612500Y-18655929D01*
X11626786Y-18613072D01*
X11641071Y-18584500D01*
X11669643Y-18541643D01*
X11683928Y-18527357D01*
X11955357Y-18870214D02*
X11783928Y-18870214D01*
X11869643Y-18870214D02*
X11869643Y-18570214D01*
X11841071Y-18613072D01*
X11812500Y-18641643D01*
X11783928Y-18655929D01*
X12069643Y-18598786D02*
X12083928Y-18584500D01*
X12112500Y-18570214D01*
X12183928Y-18570214D01*
X12212500Y-18584500D01*
X12226786Y-18598786D01*
X12241071Y-18627357D01*
X12241071Y-18655929D01*
X12226786Y-18698786D01*
X12055357Y-18870214D01*
X12241071Y-18870214D01*
X12598214Y-18870214D02*
X12598214Y-18570214D01*
X12726786Y-18870214D02*
X12726786Y-18713072D01*
X12712500Y-18684500D01*
X12683928Y-18670214D01*
X12641071Y-18670214D01*
X12612500Y-18684500D01*
X12598214Y-18698786D01*
X12912500Y-18870214D02*
X12883928Y-18855929D01*
X12869643Y-18841643D01*
X12855357Y-18813072D01*
X12855357Y-18727357D01*
X12869643Y-18698786D01*
X12883928Y-18684500D01*
X12912500Y-18670214D01*
X12955357Y-18670214D01*
X12983928Y-18684500D01*
X12998214Y-18698786D01*
X13012500Y-18727357D01*
X13012500Y-18813072D01*
X12998214Y-18841643D01*
X12983928Y-18855929D01*
X12955357Y-18870214D01*
X12912500Y-18870214D01*
X13183928Y-18870214D02*
X13155357Y-18855929D01*
X13141071Y-18827357D01*
X13141071Y-18570214D01*
X13412500Y-18855929D02*
X13383928Y-18870214D01*
X13326786Y-18870214D01*
X13298214Y-18855929D01*
X13283928Y-18827357D01*
X13283928Y-18713072D01*
X13298214Y-18684500D01*
X13326786Y-18670214D01*
X13383928Y-18670214D01*
X13412500Y-18684500D01*
X13426786Y-18713072D01*
X13426786Y-18741643D01*
X13283928Y-18770214D01*
X13541071Y-18855929D02*
X13569643Y-18870214D01*
X13626786Y-18870214D01*
X13655357Y-18855929D01*
X13669643Y-18827357D01*
X13669643Y-18813072D01*
X13655357Y-18784500D01*
X13626786Y-18770214D01*
X13583928Y-18770214D01*
X13555357Y-18755929D01*
X13541071Y-18727357D01*
X13541071Y-18713072D01*
X13555357Y-18684500D01*
X13583928Y-18670214D01*
X13626786Y-18670214D01*
X13655357Y-18684500D01*
X13769643Y-18984500D02*
X13783928Y-18970214D01*
X13812500Y-18927357D01*
X13826786Y-18898786D01*
X13841071Y-18855929D01*
X13855357Y-18784500D01*
X13855357Y-18727357D01*
X13841071Y-18655929D01*
X13826786Y-18613072D01*
X13812500Y-18584500D01*
X13783928Y-18541643D01*
X13769643Y-18527357D01*
X6877500Y-19070500D02*
X6997500Y-19190500D01*
X6997500Y-19070500D02*
X6877500Y-19190500D01*
X6937500Y-19190500D02*
X6997500Y-19130500D01*
X6937500Y-19070500D01*
X6877500Y-19130500D01*
X6937500Y-19190500D01*
X7441071Y-19266214D02*
X7269643Y-19266214D01*
X7355357Y-19266214D02*
X7355357Y-18966214D01*
X7326786Y-19009072D01*
X7298214Y-19037643D01*
X7269643Y-19051929D01*
X7569643Y-19237643D02*
X7583928Y-19251929D01*
X7569643Y-19266214D01*
X7555357Y-19251929D01*
X7569643Y-19237643D01*
X7569643Y-19266214D01*
X7698214Y-18994786D02*
X7712500Y-18980500D01*
X7741071Y-18966214D01*
X7812500Y-18966214D01*
X7841071Y-18980500D01*
X7855357Y-18994786D01*
X7869643Y-19023357D01*
X7869643Y-19051929D01*
X7855357Y-19094786D01*
X7683928Y-19266214D01*
X7869643Y-19266214D01*
X8055357Y-18966214D02*
X8083928Y-18966214D01*
X8112500Y-18980500D01*
X8126786Y-18994786D01*
X8141071Y-19023357D01*
X8155357Y-19080500D01*
X8155357Y-19151929D01*
X8141071Y-19209072D01*
X8126786Y-19237643D01*
X8112500Y-19251929D01*
X8083928Y-19266214D01*
X8055357Y-19266214D01*
X8026786Y-19251929D01*
X8012500Y-19237643D01*
X7998214Y-19209072D01*
X7983928Y-19151929D01*
X7983928Y-19080500D01*
X7998214Y-19023357D01*
X8012500Y-18994786D01*
X8026786Y-18980500D01*
X8055357Y-18966214D01*
X8283928Y-19266214D02*
X8283928Y-19066214D01*
X8283928Y-19094786D02*
X8298214Y-19080500D01*
X8326786Y-19066214D01*
X8369643Y-19066214D01*
X8398214Y-19080500D01*
X8412500Y-19109072D01*
X8412500Y-19266214D01*
X8412500Y-19109072D02*
X8426786Y-19080500D01*
X8455357Y-19066214D01*
X8498214Y-19066214D01*
X8526786Y-19080500D01*
X8541071Y-19109072D01*
X8541071Y-19266214D01*
X8683928Y-19266214D02*
X8683928Y-19066214D01*
X8683928Y-19094786D02*
X8698214Y-19080500D01*
X8726786Y-19066214D01*
X8769643Y-19066214D01*
X8798214Y-19080500D01*
X8812500Y-19109072D01*
X8812500Y-19266214D01*
X8812500Y-19109072D02*
X8826786Y-19080500D01*
X8855357Y-19066214D01*
X8898214Y-19066214D01*
X8926786Y-19080500D01*
X8941071Y-19109072D01*
X8941071Y-19266214D01*
X9526786Y-18951929D02*
X9269643Y-19337643D01*
X9912500Y-18966214D02*
X9941071Y-18966214D01*
X9969643Y-18980500D01*
X9983928Y-18994786D01*
X9998214Y-19023357D01*
X10012500Y-19080500D01*
X10012500Y-19151929D01*
X9998214Y-19209072D01*
X9983928Y-19237643D01*
X9969643Y-19251929D01*
X9941071Y-19266214D01*
X9912500Y-19266214D01*
X9883928Y-19251929D01*
X9869643Y-19237643D01*
X9855357Y-19209072D01*
X9841071Y-19151929D01*
X9841071Y-19080500D01*
X9855357Y-19023357D01*
X9869643Y-18994786D01*
X9883928Y-18980500D01*
X9912500Y-18966214D01*
X10141071Y-19237643D02*
X10155357Y-19251929D01*
X10141071Y-19266214D01*
X10126786Y-19251929D01*
X10141071Y-19237643D01*
X10141071Y-19266214D01*
X10341071Y-18966214D02*
X10369643Y-18966214D01*
X10398214Y-18980500D01*
X10412500Y-18994786D01*
X10426786Y-19023357D01*
X10441071Y-19080500D01*
X10441071Y-19151929D01*
X10426786Y-19209072D01*
X10412500Y-19237643D01*
X10398214Y-19251929D01*
X10369643Y-19266214D01*
X10341071Y-19266214D01*
X10312500Y-19251929D01*
X10298214Y-19237643D01*
X10283928Y-19209072D01*
X10269643Y-19151929D01*
X10269643Y-19080500D01*
X10283928Y-19023357D01*
X10298214Y-18994786D01*
X10312500Y-18980500D01*
X10341071Y-18966214D01*
X10698214Y-19066214D02*
X10698214Y-19266214D01*
X10626786Y-18951929D02*
X10555357Y-19166214D01*
X10741071Y-19166214D01*
X10826786Y-18966214D02*
X11026786Y-18966214D01*
X10898214Y-19266214D01*
X11126786Y-18966214D02*
X11126786Y-19023357D01*
X11241071Y-18966214D02*
X11241071Y-19023357D01*
X11683928Y-19380500D02*
X11669643Y-19366214D01*
X11641071Y-19323357D01*
X11626786Y-19294786D01*
X11612500Y-19251929D01*
X11598214Y-19180500D01*
X11598214Y-19123357D01*
X11612500Y-19051929D01*
X11626786Y-19009072D01*
X11641071Y-18980500D01*
X11669643Y-18937643D01*
X11683928Y-18923357D01*
X11926786Y-18966214D02*
X11869643Y-18966214D01*
X11841071Y-18980500D01*
X11826786Y-18994786D01*
X11798214Y-19037643D01*
X11783928Y-19094786D01*
X11783928Y-19209072D01*
X11798214Y-19237643D01*
X11812500Y-19251929D01*
X11841071Y-19266214D01*
X11898214Y-19266214D01*
X11926786Y-19251929D01*
X11941071Y-19237643D01*
X11955357Y-19209072D01*
X11955357Y-19137643D01*
X11941071Y-19109072D01*
X11926786Y-19094786D01*
X11898214Y-19080500D01*
X11841071Y-19080500D01*
X11812500Y-19094786D01*
X11798214Y-19109072D01*
X11783928Y-19137643D01*
X12312500Y-19266214D02*
X12312500Y-18966214D01*
X12441071Y-19266214D02*
X12441071Y-19109072D01*
X12426786Y-19080500D01*
X12398214Y-19066214D01*
X12355357Y-19066214D01*
X12326786Y-19080500D01*
X12312500Y-19094786D01*
X12626786Y-19266214D02*
X12598214Y-19251929D01*
X12583928Y-19237643D01*
X12569643Y-19209072D01*
X12569643Y-19123357D01*
X12583928Y-19094786D01*
X12598214Y-19080500D01*
X12626786Y-19066214D01*
X12669643Y-19066214D01*
X12698214Y-19080500D01*
X12712500Y-19094786D01*
X12726786Y-19123357D01*
X12726786Y-19209072D01*
X12712500Y-19237643D01*
X12698214Y-19251929D01*
X12669643Y-19266214D01*
X12626786Y-19266214D01*
X12898214Y-19266214D02*
X12869643Y-19251929D01*
X12855357Y-19223357D01*
X12855357Y-18966214D01*
X13126786Y-19251929D02*
X13098214Y-19266214D01*
X13041071Y-19266214D01*
X13012500Y-19251929D01*
X12998214Y-19223357D01*
X12998214Y-19109072D01*
X13012500Y-19080500D01*
X13041071Y-19066214D01*
X13098214Y-19066214D01*
X13126786Y-19080500D01*
X13141071Y-19109072D01*
X13141071Y-19137643D01*
X12998214Y-19166214D01*
X13255357Y-19251929D02*
X13283928Y-19266214D01*
X13341071Y-19266214D01*
X13369643Y-19251929D01*
X13383928Y-19223357D01*
X13383928Y-19209072D01*
X13369643Y-19180500D01*
X13341071Y-19166214D01*
X13298214Y-19166214D01*
X13269643Y-19151929D01*
X13255357Y-19123357D01*
X13255357Y-19109072D01*
X13269643Y-19080500D01*
X13298214Y-19066214D01*
X13341071Y-19066214D01*
X13369643Y-19080500D01*
X13483928Y-19380500D02*
X13498214Y-19366214D01*
X13526786Y-19323357D01*
X13541071Y-19294786D01*
X13555357Y-19251929D01*
X13569643Y-19180500D01*
X13569643Y-19123357D01*
X13555357Y-19051929D01*
X13541071Y-19009072D01*
X13526786Y-18980500D01*
X13498214Y-18937643D01*
X13483928Y-18923357D01*
X6932500Y-19461500D02*
X6932500Y-19591500D01*
X6867500Y-19526500D02*
X6997500Y-19526500D01*
X6997500Y-19526500D02*
G75*
G03X6997500Y-19526500I-65000J0D01*
G01*
X7441071Y-19662214D02*
X7269643Y-19662214D01*
X7355357Y-19662214D02*
X7355357Y-19362214D01*
X7326786Y-19405072D01*
X7298214Y-19433643D01*
X7269643Y-19447929D01*
X7569643Y-19633643D02*
X7583928Y-19647929D01*
X7569643Y-19662214D01*
X7555357Y-19647929D01*
X7569643Y-19633643D01*
X7569643Y-19662214D01*
X7683928Y-19362214D02*
X7869643Y-19362214D01*
X7769643Y-19476500D01*
X7812500Y-19476500D01*
X7841071Y-19490786D01*
X7855357Y-19505072D01*
X7869643Y-19533643D01*
X7869643Y-19605072D01*
X7855357Y-19633643D01*
X7841071Y-19647929D01*
X7812500Y-19662214D01*
X7726786Y-19662214D01*
X7698214Y-19647929D01*
X7683928Y-19633643D01*
X8055357Y-19362214D02*
X8083928Y-19362214D01*
X8112500Y-19376500D01*
X8126786Y-19390786D01*
X8141071Y-19419357D01*
X8155357Y-19476500D01*
X8155357Y-19547929D01*
X8141071Y-19605072D01*
X8126786Y-19633643D01*
X8112500Y-19647929D01*
X8083928Y-19662214D01*
X8055357Y-19662214D01*
X8026786Y-19647929D01*
X8012500Y-19633643D01*
X7998214Y-19605072D01*
X7983928Y-19547929D01*
X7983928Y-19476500D01*
X7998214Y-19419357D01*
X8012500Y-19390786D01*
X8026786Y-19376500D01*
X8055357Y-19362214D01*
X8283928Y-19662214D02*
X8283928Y-19462214D01*
X8283928Y-19490786D02*
X8298214Y-19476500D01*
X8326786Y-19462214D01*
X8369643Y-19462214D01*
X8398214Y-19476500D01*
X8412500Y-19505072D01*
X8412500Y-19662214D01*
X8412500Y-19505072D02*
X8426786Y-19476500D01*
X8455357Y-19462214D01*
X8498214Y-19462214D01*
X8526786Y-19476500D01*
X8541071Y-19505072D01*
X8541071Y-19662214D01*
X8683928Y-19662214D02*
X8683928Y-19462214D01*
X8683928Y-19490786D02*
X8698214Y-19476500D01*
X8726786Y-19462214D01*
X8769643Y-19462214D01*
X8798214Y-19476500D01*
X8812500Y-19505072D01*
X8812500Y-19662214D01*
X8812500Y-19505072D02*
X8826786Y-19476500D01*
X8855357Y-19462214D01*
X8898214Y-19462214D01*
X8926786Y-19476500D01*
X8941071Y-19505072D01*
X8941071Y-19662214D01*
X9526786Y-19347929D02*
X9269643Y-19733643D01*
X9912500Y-19362214D02*
X9941071Y-19362214D01*
X9969643Y-19376500D01*
X9983928Y-19390786D01*
X9998214Y-19419357D01*
X10012500Y-19476500D01*
X10012500Y-19547929D01*
X9998214Y-19605072D01*
X9983928Y-19633643D01*
X9969643Y-19647929D01*
X9941071Y-19662214D01*
X9912500Y-19662214D01*
X9883928Y-19647929D01*
X9869643Y-19633643D01*
X9855357Y-19605072D01*
X9841071Y-19547929D01*
X9841071Y-19476500D01*
X9855357Y-19419357D01*
X9869643Y-19390786D01*
X9883928Y-19376500D01*
X9912500Y-19362214D01*
X10141071Y-19633643D02*
X10155357Y-19647929D01*
X10141071Y-19662214D01*
X10126786Y-19647929D01*
X10141071Y-19633643D01*
X10141071Y-19662214D01*
X10341071Y-19362214D02*
X10369643Y-19362214D01*
X10398214Y-19376500D01*
X10412500Y-19390786D01*
X10426786Y-19419357D01*
X10441071Y-19476500D01*
X10441071Y-19547929D01*
X10426786Y-19605072D01*
X10412500Y-19633643D01*
X10398214Y-19647929D01*
X10369643Y-19662214D01*
X10341071Y-19662214D01*
X10312500Y-19647929D01*
X10298214Y-19633643D01*
X10283928Y-19605072D01*
X10269643Y-19547929D01*
X10269643Y-19476500D01*
X10283928Y-19419357D01*
X10298214Y-19390786D01*
X10312500Y-19376500D01*
X10341071Y-19362214D01*
X10712500Y-19362214D02*
X10569643Y-19362214D01*
X10555357Y-19505072D01*
X10569643Y-19490786D01*
X10598214Y-19476500D01*
X10669643Y-19476500D01*
X10698214Y-19490786D01*
X10712500Y-19505072D01*
X10726786Y-19533643D01*
X10726786Y-19605072D01*
X10712500Y-19633643D01*
X10698214Y-19647929D01*
X10669643Y-19662214D01*
X10598214Y-19662214D01*
X10569643Y-19647929D01*
X10555357Y-19633643D01*
X11012500Y-19662214D02*
X10841071Y-19662214D01*
X10926786Y-19662214D02*
X10926786Y-19362214D01*
X10898214Y-19405072D01*
X10869643Y-19433643D01*
X10841071Y-19447929D01*
X11126786Y-19362214D02*
X11126786Y-19419357D01*
X11241071Y-19362214D02*
X11241071Y-19419357D01*
X11683928Y-19776500D02*
X11669643Y-19762214D01*
X11641071Y-19719357D01*
X11626786Y-19690786D01*
X11612500Y-19647929D01*
X11598214Y-19576500D01*
X11598214Y-19519357D01*
X11612500Y-19447929D01*
X11626786Y-19405072D01*
X11641071Y-19376500D01*
X11669643Y-19333643D01*
X11683928Y-19319357D01*
X11926786Y-19462214D02*
X11926786Y-19662214D01*
X11855357Y-19347929D02*
X11783928Y-19562214D01*
X11969643Y-19562214D01*
X12312500Y-19662214D02*
X12312500Y-19362214D01*
X12441071Y-19662214D02*
X12441071Y-19505072D01*
X12426786Y-19476500D01*
X12398214Y-19462214D01*
X12355357Y-19462214D01*
X12326786Y-19476500D01*
X12312500Y-19490786D01*
X12626786Y-19662214D02*
X12598214Y-19647929D01*
X12583928Y-19633643D01*
X12569643Y-19605072D01*
X12569643Y-19519357D01*
X12583928Y-19490786D01*
X12598214Y-19476500D01*
X12626786Y-19462214D01*
X12669643Y-19462214D01*
X12698214Y-19476500D01*
X12712500Y-19490786D01*
X12726786Y-19519357D01*
X12726786Y-19605072D01*
X12712500Y-19633643D01*
X12698214Y-19647929D01*
X12669643Y-19662214D01*
X12626786Y-19662214D01*
X12898214Y-19662214D02*
X12869643Y-19647929D01*
X12855357Y-19619357D01*
X12855357Y-19362214D01*
X13126786Y-19647929D02*
X13098214Y-19662214D01*
X13041071Y-19662214D01*
X13012500Y-19647929D01*
X12998214Y-19619357D01*
X12998214Y-19505072D01*
X13012500Y-19476500D01*
X13041071Y-19462214D01*
X13098214Y-19462214D01*
X13126786Y-19476500D01*
X13141071Y-19505072D01*
X13141071Y-19533643D01*
X12998214Y-19562214D01*
X13255357Y-19647929D02*
X13283928Y-19662214D01*
X13341071Y-19662214D01*
X13369643Y-19647929D01*
X13383928Y-19619357D01*
X13383928Y-19605072D01*
X13369643Y-19576500D01*
X13341071Y-19562214D01*
X13298214Y-19562214D01*
X13269643Y-19547929D01*
X13255357Y-19519357D01*
X13255357Y-19505072D01*
X13269643Y-19476500D01*
X13298214Y-19462214D01*
X13341071Y-19462214D01*
X13369643Y-19476500D01*
X13483928Y-19776500D02*
X13498214Y-19762214D01*
X13526786Y-19719357D01*
X13541071Y-19690786D01*
X13555357Y-19647929D01*
X13569643Y-19576500D01*
X13569643Y-19519357D01*
X13555357Y-19447929D01*
X13541071Y-19405072D01*
X13526786Y-19376500D01*
X13498214Y-19333643D01*
X13483928Y-19319357D01*
X6976998Y-19971998D02*
X6976998Y-19873002D01*
X6878002Y-19873002D01*
X6878002Y-19971998D01*
X6976998Y-19971998D01*
X6997500Y-19922500D02*
G75*
G03X6997500Y-19922500I-70000J0D01*
G01*
X7441071Y-20058214D02*
X7269643Y-20058214D01*
X7355357Y-20058214D02*
X7355357Y-19758214D01*
X7326786Y-19801072D01*
X7298214Y-19829643D01*
X7269643Y-19843929D01*
X7569643Y-20029643D02*
X7583928Y-20043929D01*
X7569643Y-20058214D01*
X7555357Y-20043929D01*
X7569643Y-20029643D01*
X7569643Y-20058214D01*
X7841071Y-19858214D02*
X7841071Y-20058214D01*
X7769643Y-19743929D02*
X7698214Y-19958214D01*
X7883928Y-19958214D01*
X8055357Y-19758214D02*
X8083928Y-19758214D01*
X8112500Y-19772500D01*
X8126786Y-19786786D01*
X8141071Y-19815357D01*
X8155357Y-19872500D01*
X8155357Y-19943929D01*
X8141071Y-20001072D01*
X8126786Y-20029643D01*
X8112500Y-20043929D01*
X8083928Y-20058214D01*
X8055357Y-20058214D01*
X8026786Y-20043929D01*
X8012500Y-20029643D01*
X7998214Y-20001072D01*
X7983928Y-19943929D01*
X7983928Y-19872500D01*
X7998214Y-19815357D01*
X8012500Y-19786786D01*
X8026786Y-19772500D01*
X8055357Y-19758214D01*
X8283928Y-20058214D02*
X8283928Y-19858214D01*
X8283928Y-19886786D02*
X8298214Y-19872500D01*
X8326786Y-19858214D01*
X8369643Y-19858214D01*
X8398214Y-19872500D01*
X8412500Y-19901072D01*
X8412500Y-20058214D01*
X8412500Y-19901072D02*
X8426786Y-19872500D01*
X8455357Y-19858214D01*
X8498214Y-19858214D01*
X8526786Y-19872500D01*
X8541071Y-19901072D01*
X8541071Y-20058214D01*
X8683928Y-20058214D02*
X8683928Y-19858214D01*
X8683928Y-19886786D02*
X8698214Y-19872500D01*
X8726786Y-19858214D01*
X8769643Y-19858214D01*
X8798214Y-19872500D01*
X8812500Y-19901072D01*
X8812500Y-20058214D01*
X8812500Y-19901072D02*
X8826786Y-19872500D01*
X8855357Y-19858214D01*
X8898214Y-19858214D01*
X8926786Y-19872500D01*
X8941071Y-19901072D01*
X8941071Y-20058214D01*
X9526786Y-19743929D02*
X9269643Y-20129643D01*
X9912500Y-19758214D02*
X9941071Y-19758214D01*
X9969643Y-19772500D01*
X9983928Y-19786786D01*
X9998214Y-19815357D01*
X10012500Y-19872500D01*
X10012500Y-19943929D01*
X9998214Y-20001072D01*
X9983928Y-20029643D01*
X9969643Y-20043929D01*
X9941071Y-20058214D01*
X9912500Y-20058214D01*
X9883928Y-20043929D01*
X9869643Y-20029643D01*
X9855357Y-20001072D01*
X9841071Y-19943929D01*
X9841071Y-19872500D01*
X9855357Y-19815357D01*
X9869643Y-19786786D01*
X9883928Y-19772500D01*
X9912500Y-19758214D01*
X10141071Y-20029643D02*
X10155357Y-20043929D01*
X10141071Y-20058214D01*
X10126786Y-20043929D01*
X10141071Y-20029643D01*
X10141071Y-20058214D01*
X10341071Y-19758214D02*
X10369643Y-19758214D01*
X10398214Y-19772500D01*
X10412500Y-19786786D01*
X10426786Y-19815357D01*
X10441071Y-19872500D01*
X10441071Y-19943929D01*
X10426786Y-20001072D01*
X10412500Y-20029643D01*
X10398214Y-20043929D01*
X10369643Y-20058214D01*
X10341071Y-20058214D01*
X10312500Y-20043929D01*
X10298214Y-20029643D01*
X10283928Y-20001072D01*
X10269643Y-19943929D01*
X10269643Y-19872500D01*
X10283928Y-19815357D01*
X10298214Y-19786786D01*
X10312500Y-19772500D01*
X10341071Y-19758214D01*
X10712500Y-19758214D02*
X10569643Y-19758214D01*
X10555357Y-19901072D01*
X10569643Y-19886786D01*
X10598214Y-19872500D01*
X10669643Y-19872500D01*
X10698214Y-19886786D01*
X10712500Y-19901072D01*
X10726786Y-19929643D01*
X10726786Y-20001072D01*
X10712500Y-20029643D01*
X10698214Y-20043929D01*
X10669643Y-20058214D01*
X10598214Y-20058214D01*
X10569643Y-20043929D01*
X10555357Y-20029643D01*
X10998214Y-19758214D02*
X10855357Y-19758214D01*
X10841071Y-19901072D01*
X10855357Y-19886786D01*
X10883928Y-19872500D01*
X10955357Y-19872500D01*
X10983928Y-19886786D01*
X10998214Y-19901072D01*
X11012500Y-19929643D01*
X11012500Y-20001072D01*
X10998214Y-20029643D01*
X10983928Y-20043929D01*
X10955357Y-20058214D01*
X10883928Y-20058214D01*
X10855357Y-20043929D01*
X10841071Y-20029643D01*
X11126786Y-19758214D02*
X11126786Y-19815357D01*
X11241071Y-19758214D02*
X11241071Y-19815357D01*
X11683928Y-20172500D02*
X11669643Y-20158214D01*
X11641071Y-20115357D01*
X11626786Y-20086786D01*
X11612500Y-20043929D01*
X11598214Y-19972500D01*
X11598214Y-19915357D01*
X11612500Y-19843929D01*
X11626786Y-19801072D01*
X11641071Y-19772500D01*
X11669643Y-19729643D01*
X11683928Y-19715357D01*
X11783928Y-19786786D02*
X11798214Y-19772500D01*
X11826786Y-19758214D01*
X11898214Y-19758214D01*
X11926786Y-19772500D01*
X11941071Y-19786786D01*
X11955357Y-19815357D01*
X11955357Y-19843929D01*
X11941071Y-19886786D01*
X11769643Y-20058214D01*
X11955357Y-20058214D01*
X12141071Y-19758214D02*
X12169643Y-19758214D01*
X12198214Y-19772500D01*
X12212500Y-19786786D01*
X12226786Y-19815357D01*
X12241071Y-19872500D01*
X12241071Y-19943929D01*
X12226786Y-20001072D01*
X12212500Y-20029643D01*
X12198214Y-20043929D01*
X12169643Y-20058214D01*
X12141071Y-20058214D01*
X12112500Y-20043929D01*
X12098214Y-20029643D01*
X12083928Y-20001072D01*
X12069643Y-19943929D01*
X12069643Y-19872500D01*
X12083928Y-19815357D01*
X12098214Y-19786786D01*
X12112500Y-19772500D01*
X12141071Y-19758214D01*
X12598214Y-20058214D02*
X12598214Y-19758214D01*
X12726786Y-20058214D02*
X12726786Y-19901072D01*
X12712500Y-19872500D01*
X12683928Y-19858214D01*
X12641071Y-19858214D01*
X12612500Y-19872500D01*
X12598214Y-19886786D01*
X12912500Y-20058214D02*
X12883928Y-20043929D01*
X12869643Y-20029643D01*
X12855357Y-20001072D01*
X12855357Y-19915357D01*
X12869643Y-19886786D01*
X12883928Y-19872500D01*
X12912500Y-19858214D01*
X12955357Y-19858214D01*
X12983928Y-19872500D01*
X12998214Y-19886786D01*
X13012500Y-19915357D01*
X13012500Y-20001072D01*
X12998214Y-20029643D01*
X12983928Y-20043929D01*
X12955357Y-20058214D01*
X12912500Y-20058214D01*
X13183928Y-20058214D02*
X13155357Y-20043929D01*
X13141071Y-20015357D01*
X13141071Y-19758214D01*
X13412500Y-20043929D02*
X13383928Y-20058214D01*
X13326786Y-20058214D01*
X13298214Y-20043929D01*
X13283928Y-20015357D01*
X13283928Y-19901072D01*
X13298214Y-19872500D01*
X13326786Y-19858214D01*
X13383928Y-19858214D01*
X13412500Y-19872500D01*
X13426786Y-19901072D01*
X13426786Y-19929643D01*
X13283928Y-19958214D01*
X13541071Y-20043929D02*
X13569643Y-20058214D01*
X13626786Y-20058214D01*
X13655357Y-20043929D01*
X13669643Y-20015357D01*
X13669643Y-20001072D01*
X13655357Y-19972500D01*
X13626786Y-19958214D01*
X13583928Y-19958214D01*
X13555357Y-19943929D01*
X13541071Y-19915357D01*
X13541071Y-19901072D01*
X13555357Y-19872500D01*
X13583928Y-19858214D01*
X13626786Y-19858214D01*
X13655357Y-19872500D01*
X13769643Y-20172500D02*
X13783928Y-20158214D01*
X13812500Y-20115357D01*
X13826786Y-20086786D01*
X13841071Y-20043929D01*
X13855357Y-19972500D01*
X13855357Y-19915357D01*
X13841071Y-19843929D01*
X13826786Y-19801072D01*
X13812500Y-19772500D01*
X13783928Y-19729643D01*
X13769643Y-19715357D01*
X6842500Y-20473500D02*
X6997500Y-20318500D01*
X6842500Y-20163500D01*
X6687500Y-20318500D01*
X6842500Y-20473500D01*
X6997500Y-20318500D02*
G75*
G03X6997500Y-20318500I-155000J0D01*
G01*
X7255357Y-20154214D02*
X7441071Y-20154214D01*
X7341071Y-20268500D01*
X7383928Y-20268500D01*
X7412500Y-20282786D01*
X7426786Y-20297072D01*
X7441071Y-20325643D01*
X7441071Y-20397072D01*
X7426786Y-20425643D01*
X7412500Y-20439929D01*
X7383928Y-20454214D01*
X7298214Y-20454214D01*
X7269643Y-20439929D01*
X7255357Y-20425643D01*
X7569643Y-20425643D02*
X7583928Y-20439929D01*
X7569643Y-20454214D01*
X7555357Y-20439929D01*
X7569643Y-20425643D01*
X7569643Y-20454214D01*
X7869643Y-20454214D02*
X7698214Y-20454214D01*
X7783928Y-20454214D02*
X7783928Y-20154214D01*
X7755357Y-20197072D01*
X7726786Y-20225643D01*
X7698214Y-20239929D01*
X8055357Y-20154214D02*
X8083928Y-20154214D01*
X8112500Y-20168500D01*
X8126786Y-20182786D01*
X8141071Y-20211357D01*
X8155357Y-20268500D01*
X8155357Y-20339929D01*
X8141071Y-20397072D01*
X8126786Y-20425643D01*
X8112500Y-20439929D01*
X8083928Y-20454214D01*
X8055357Y-20454214D01*
X8026786Y-20439929D01*
X8012500Y-20425643D01*
X7998214Y-20397072D01*
X7983928Y-20339929D01*
X7983928Y-20268500D01*
X7998214Y-20211357D01*
X8012500Y-20182786D01*
X8026786Y-20168500D01*
X8055357Y-20154214D01*
X8283928Y-20454214D02*
X8283928Y-20254214D01*
X8283928Y-20282786D02*
X8298214Y-20268500D01*
X8326786Y-20254214D01*
X8369643Y-20254214D01*
X8398214Y-20268500D01*
X8412500Y-20297072D01*
X8412500Y-20454214D01*
X8412500Y-20297072D02*
X8426786Y-20268500D01*
X8455357Y-20254214D01*
X8498214Y-20254214D01*
X8526786Y-20268500D01*
X8541071Y-20297072D01*
X8541071Y-20454214D01*
X8683928Y-20454214D02*
X8683928Y-20254214D01*
X8683928Y-20282786D02*
X8698214Y-20268500D01*
X8726786Y-20254214D01*
X8769643Y-20254214D01*
X8798214Y-20268500D01*
X8812500Y-20297072D01*
X8812500Y-20454214D01*
X8812500Y-20297072D02*
X8826786Y-20268500D01*
X8855357Y-20254214D01*
X8898214Y-20254214D01*
X8926786Y-20268500D01*
X8941071Y-20297072D01*
X8941071Y-20454214D01*
X9526786Y-20139929D02*
X9269643Y-20525643D01*
X9912500Y-20154214D02*
X9941071Y-20154214D01*
X9969643Y-20168500D01*
X9983928Y-20182786D01*
X9998214Y-20211357D01*
X10012500Y-20268500D01*
X10012500Y-20339929D01*
X9998214Y-20397072D01*
X9983928Y-20425643D01*
X9969643Y-20439929D01*
X9941071Y-20454214D01*
X9912500Y-20454214D01*
X9883928Y-20439929D01*
X9869643Y-20425643D01*
X9855357Y-20397072D01*
X9841071Y-20339929D01*
X9841071Y-20268500D01*
X9855357Y-20211357D01*
X9869643Y-20182786D01*
X9883928Y-20168500D01*
X9912500Y-20154214D01*
X10141071Y-20425643D02*
X10155357Y-20439929D01*
X10141071Y-20454214D01*
X10126786Y-20439929D01*
X10141071Y-20425643D01*
X10141071Y-20454214D01*
X10441071Y-20454214D02*
X10269643Y-20454214D01*
X10355357Y-20454214D02*
X10355357Y-20154214D01*
X10326786Y-20197072D01*
X10298214Y-20225643D01*
X10269643Y-20239929D01*
X10555357Y-20182786D02*
X10569643Y-20168500D01*
X10598214Y-20154214D01*
X10669643Y-20154214D01*
X10698214Y-20168500D01*
X10712500Y-20182786D01*
X10726786Y-20211357D01*
X10726786Y-20239929D01*
X10712500Y-20282786D01*
X10541071Y-20454214D01*
X10726786Y-20454214D01*
X10841071Y-20182786D02*
X10855357Y-20168500D01*
X10883928Y-20154214D01*
X10955357Y-20154214D01*
X10983928Y-20168500D01*
X10998214Y-20182786D01*
X11012500Y-20211357D01*
X11012500Y-20239929D01*
X10998214Y-20282786D01*
X10826786Y-20454214D01*
X11012500Y-20454214D01*
X11126786Y-20154214D02*
X11126786Y-20211357D01*
X11241071Y-20154214D02*
X11241071Y-20211357D01*
X11683928Y-20568500D02*
X11669643Y-20554214D01*
X11641071Y-20511357D01*
X11626786Y-20482786D01*
X11612500Y-20439929D01*
X11598214Y-20368500D01*
X11598214Y-20311357D01*
X11612500Y-20239929D01*
X11626786Y-20197072D01*
X11641071Y-20168500D01*
X11669643Y-20125643D01*
X11683928Y-20111357D01*
X11783928Y-20182786D02*
X11798214Y-20168500D01*
X11826786Y-20154214D01*
X11898214Y-20154214D01*
X11926786Y-20168500D01*
X11941071Y-20182786D01*
X11955357Y-20211357D01*
X11955357Y-20239929D01*
X11941071Y-20282786D01*
X11769643Y-20454214D01*
X11955357Y-20454214D01*
X12312500Y-20454214D02*
X12312500Y-20154214D01*
X12441071Y-20454214D02*
X12441071Y-20297072D01*
X12426786Y-20268500D01*
X12398214Y-20254214D01*
X12355357Y-20254214D01*
X12326786Y-20268500D01*
X12312500Y-20282786D01*
X12626786Y-20454214D02*
X12598214Y-20439929D01*
X12583928Y-20425643D01*
X12569643Y-20397072D01*
X12569643Y-20311357D01*
X12583928Y-20282786D01*
X12598214Y-20268500D01*
X12626786Y-20254214D01*
X12669643Y-20254214D01*
X12698214Y-20268500D01*
X12712500Y-20282786D01*
X12726786Y-20311357D01*
X12726786Y-20397072D01*
X12712500Y-20425643D01*
X12698214Y-20439929D01*
X12669643Y-20454214D01*
X12626786Y-20454214D01*
X12898214Y-20454214D02*
X12869643Y-20439929D01*
X12855357Y-20411357D01*
X12855357Y-20154214D01*
X13126786Y-20439929D02*
X13098214Y-20454214D01*
X13041071Y-20454214D01*
X13012500Y-20439929D01*
X12998214Y-20411357D01*
X12998214Y-20297072D01*
X13012500Y-20268500D01*
X13041071Y-20254214D01*
X13098214Y-20254214D01*
X13126786Y-20268500D01*
X13141071Y-20297072D01*
X13141071Y-20325643D01*
X12998214Y-20354214D01*
X13255357Y-20439929D02*
X13283928Y-20454214D01*
X13341071Y-20454214D01*
X13369643Y-20439929D01*
X13383928Y-20411357D01*
X13383928Y-20397072D01*
X13369643Y-20368500D01*
X13341071Y-20354214D01*
X13298214Y-20354214D01*
X13269643Y-20339929D01*
X13255357Y-20311357D01*
X13255357Y-20297072D01*
X13269643Y-20268500D01*
X13298214Y-20254214D01*
X13341071Y-20254214D01*
X13369643Y-20268500D01*
X13483928Y-20568500D02*
X13498214Y-20554214D01*
X13526786Y-20511357D01*
X13541071Y-20482786D01*
X13555357Y-20439929D01*
X13569643Y-20368500D01*
X13569643Y-20311357D01*
X13555357Y-20239929D01*
X13541071Y-20197072D01*
X13526786Y-20168500D01*
X13498214Y-20125643D01*
X13483928Y-20111357D01*
M02*
